<svg width="111" height="25" viewBox="0 0 111 25" fill="none" xmlns="http://www.w3.org/2000/svg">
<path d="M22.1312 16.9379C22.2303 17.1098 22.2572 17.314 22.206 17.5057C22.1549 17.6974 22.0299 17.861 21.8584 17.9607L12.8584 23.2107C12.7437 23.2776 12.6133 23.3128 12.4806 23.3128C12.3478 23.3128 12.2175 23.2776 12.1028 23.2107L3.10277 17.9607C2.93374 17.8591 2.81151 17.6951 2.76255 17.504C2.7136 17.313 2.74186 17.1104 2.84121 16.94C2.94056 16.7697 3.10302 16.6453 3.29339 16.5938C3.48377 16.5424 3.68676 16.568 3.8584 16.6651L12.4834 21.6948L21.1084 16.6651C21.2803 16.566 21.4844 16.5391 21.6761 16.5903C21.8678 16.6414 22.0315 16.7664 22.1312 16.9379ZM21.1084 12.1651L12.4834 17.1948L3.8584 12.1651C3.68763 12.0801 3.49087 12.0633 3.30818 12.1182C3.1255 12.1732 2.9706 12.2956 2.87503 12.4607C2.77946 12.6258 2.75039 12.8212 2.79375 13.0069C2.8371 13.1927 2.94962 13.355 3.1084 13.4607L12.1084 18.7107C12.2231 18.7776 12.3535 18.8128 12.4862 18.8128C12.619 18.8128 12.7493 18.7776 12.864 18.7107L21.864 13.4607C21.9505 13.4118 22.0263 13.3462 22.0872 13.2678C22.1481 13.1893 22.1928 13.0995 22.2187 13.0036C22.2446 12.9078 22.2513 12.8077 22.2382 12.7092C22.2251 12.6108 22.1926 12.5159 22.1426 12.4301C22.0925 12.3443 22.026 12.2693 21.9467 12.2095C21.8674 12.1496 21.7771 12.1061 21.6809 12.0814C21.5847 12.0568 21.4845 12.0515 21.3862 12.0658C21.288 12.0802 21.1935 12.1139 21.1084 12.1651ZM2.7334 8.31291C2.7337 8.18155 2.76849 8.05257 2.83431 7.93888C2.90012 7.82519 2.99463 7.73078 3.1084 7.6651L12.1084 2.4151C12.2231 2.34823 12.3535 2.31299 12.4862 2.31299C12.619 2.31299 12.7493 2.34823 12.864 2.4151L21.864 7.6651C21.9772 7.73115 22.0712 7.82572 22.1364 7.93939C22.2017 8.05305 22.2361 8.18184 22.2361 8.31291C22.2361 8.44399 22.2017 8.57278 22.1364 8.68644C22.0712 8.8001 21.9772 8.89467 21.864 8.96073L12.864 14.2107C12.7493 14.2776 12.619 14.3128 12.4862 14.3128C12.3535 14.3128 12.2231 14.2776 12.1084 14.2107L3.1084 8.96073C2.99463 8.89505 2.90012 8.80063 2.83431 8.68695C2.76849 8.57326 2.7337 8.44428 2.7334 8.31291ZM4.97215 8.31291L12.4834 12.6948L19.9946 8.31291L12.4834 3.93104L4.97215 8.31291Z" fill="#D1FAE5"/>
<path d="M37.7954 18.005C36.8461 18.005 36.0194 17.8023 35.3154 17.397C34.6221 16.9917 34.0834 16.421 33.6994 15.685C33.3154 14.9383 33.1234 14.0637 33.1234 13.061C33.1234 11.941 33.3581 10.9597 33.8274 10.117C34.2967 9.27432 34.9527 8.61832 35.7954 8.14899C36.6487 7.66899 37.6301 7.42899 38.7394 7.42899C39.0701 7.42899 39.4167 7.45032 39.7794 7.49299C40.1421 7.52499 40.4781 7.56765 40.7874 7.62099C41.0967 7.67432 41.3474 7.72232 41.5394 7.76499C41.7421 7.79699 41.8434 7.81299 41.8434 7.81299L41.9074 7.90899C41.9074 7.90899 41.8807 8.03165 41.8274 8.27699C41.7741 8.51165 41.7101 8.83165 41.6354 9.23699C41.5714 9.64232 41.5234 10.0903 41.4914 10.581L40.7394 10.645C40.7394 10.645 40.7447 10.5543 40.7554 10.373C40.7767 10.1917 40.7874 9.99432 40.7874 9.78099C40.7874 9.27965 40.5954 8.92232 40.2114 8.70899C39.8381 8.48499 39.2247 8.37299 38.3714 8.37299C37.5607 8.37299 36.8674 8.53832 36.2914 8.86899C35.7154 9.18899 35.2727 9.66365 34.9634 10.293C34.6647 10.9117 34.5154 11.6637 34.5154 12.549C34.5154 13.4877 34.6647 14.309 34.9634 15.013C35.2727 15.7063 35.6994 16.245 36.2434 16.629C36.7874 17.013 37.4274 17.205 38.1634 17.205C38.5901 17.205 38.9687 17.157 39.2994 17.061C39.6301 16.9543 39.8861 16.853 40.0674 16.757C40.2594 16.6503 40.3554 16.597 40.3554 16.597V14.645C40.3554 14.2823 40.2967 14.0477 40.1794 13.941C40.0727 13.8343 39.8381 13.781 39.4754 13.781C39.3581 13.781 39.2087 13.781 39.0274 13.781C38.8567 13.781 38.7021 13.781 38.5634 13.781C38.4354 13.781 38.3714 13.781 38.3714 13.781L38.3394 13.717L38.4834 12.917C38.4834 12.917 38.5847 12.9223 38.7874 12.933C39.0007 12.9437 39.2621 12.9543 39.5714 12.965C39.8914 12.9757 40.2061 12.981 40.5154 12.981C40.7501 12.981 40.9687 12.9757 41.1714 12.965C41.3847 12.9437 41.5554 12.9277 41.6834 12.917C41.8221 12.9063 41.8914 12.901 41.8914 12.901L41.9554 13.253C41.8274 13.3597 41.7261 13.5037 41.6514 13.685C41.5874 13.8663 41.5394 14.117 41.5074 14.437C41.4754 14.757 41.4594 15.1837 41.4594 15.717C41.4594 15.9943 41.4701 16.2663 41.4914 16.533C41.5127 16.789 41.5394 16.9863 41.5714 17.125L41.4754 17.269C41.4754 17.269 41.3101 17.333 40.9794 17.461C40.6487 17.5783 40.2061 17.6957 39.6514 17.813C39.0967 17.941 38.4781 18.005 37.7954 18.005ZM43.7868 17.237C44.1068 17.205 44.3201 17.1037 44.4268 16.933C44.5334 16.7517 44.5868 16.4103 44.5868 15.909V12.389C44.5868 12.037 44.5388 11.7863 44.4428 11.637C44.3468 11.4877 44.1921 11.413 43.9788 11.413C43.8934 11.413 43.8134 11.4237 43.7388 11.445C43.6748 11.4557 43.6428 11.461 43.6428 11.461L43.5628 11.349L43.6108 10.853C43.9414 10.789 44.2721 10.7197 44.6028 10.645C44.9334 10.5703 45.2108 10.5063 45.4348 10.453C45.6588 10.3997 45.7708 10.373 45.7708 10.373L45.8828 10.469C45.8828 10.469 45.8668 10.5543 45.8348 10.725C45.8134 10.8957 45.7921 11.109 45.7708 11.365C45.7494 11.6103 45.7388 11.861 45.7388 12.117L45.8028 12.165C46.1334 11.6637 46.5121 11.253 46.9388 10.933C47.3654 10.613 47.7388 10.453 48.0588 10.453C48.2401 10.453 48.3681 10.4637 48.4428 10.485C48.5174 10.5063 48.5548 10.517 48.5548 10.517L48.6028 10.581C48.6028 10.581 48.5921 10.6557 48.5708 10.805C48.5494 10.9437 48.5228 11.1303 48.4908 11.365C48.4588 11.589 48.4268 11.8343 48.3948 12.101C48.3734 12.3677 48.3574 12.6237 48.3468 12.869L47.7228 12.917C47.7228 12.4797 47.6961 12.1917 47.6428 12.053C47.5894 11.9037 47.4721 11.829 47.2908 11.829C47.0561 11.829 46.8054 11.925 46.5388 12.117C46.2721 12.309 46.0268 12.5757 45.8028 12.917C45.8028 12.917 45.7974 13.0183 45.7868 13.221C45.7761 13.413 45.7654 13.6583 45.7548 13.957C45.7441 14.2557 45.7334 14.565 45.7228 14.885C45.7121 15.1943 45.7014 15.4717 45.6908 15.717C45.6801 15.9517 45.6748 16.1063 45.6748 16.181C45.6748 16.5437 45.7281 16.789 45.8348 16.917C45.9414 17.045 46.1441 17.109 46.4428 17.109C46.5601 17.109 46.7041 17.1037 46.8748 17.093C47.0561 17.0823 47.1468 17.077 47.1468 17.077L47.1628 17.141L47.0188 17.845C47.0188 17.845 46.9654 17.8397 46.8588 17.829C46.7521 17.829 46.6134 17.829 46.4428 17.829C46.2721 17.829 46.0908 17.8237 45.8988 17.813C45.7174 17.813 45.5468 17.813 45.3868 17.813C45.0774 17.813 44.7948 17.8183 44.5388 17.829C44.2828 17.8397 44.0801 17.8503 43.9308 17.861C43.7814 17.8717 43.7068 17.877 43.7068 17.877L43.7868 17.237ZM52.7475 18.005C52.0755 18.005 51.4889 17.8557 50.9875 17.557C50.4862 17.2583 50.0915 16.8477 49.8035 16.325C49.5262 15.7917 49.3875 15.173 49.3875 14.469C49.3875 13.925 49.4782 13.4077 49.6595 12.917C49.8515 12.4263 50.1129 11.9943 50.4435 11.621C50.7742 11.237 51.1475 10.9383 51.5635 10.725C51.9902 10.501 52.4435 10.389 52.9235 10.389C54.5129 10.389 55.3075 11.1623 55.3075 12.709C55.3075 12.8477 55.2969 12.9917 55.2755 13.141C55.2542 13.2903 55.2329 13.4077 55.2115 13.493L55.0035 13.685H50.5875C50.5769 14.6343 50.7475 15.3863 51.0995 15.941C51.4622 16.485 51.9689 16.805 52.6195 16.901C53.2702 16.9863 54.0382 16.8263 54.9235 16.421L55.0195 16.453L55.1955 16.917C54.9822 17.0663 54.7262 17.2263 54.4275 17.397C54.1395 17.5677 53.8462 17.7117 53.5475 17.829C53.2489 17.9463 52.9822 18.005 52.7475 18.005ZM50.6515 13.093L53.5475 12.949C53.7075 12.9277 53.8142 12.8903 53.8675 12.837C53.9209 12.7837 53.9475 12.677 53.9475 12.517C53.9475 12.0903 53.8302 11.765 53.5955 11.541C53.3715 11.317 53.0462 11.205 52.6195 11.205C52.1289 11.205 51.7022 11.3757 51.3395 11.717C50.9769 12.0477 50.7475 12.5063 50.6515 13.093ZM59.9194 18.005C59.2474 18.005 58.6607 17.8557 58.1594 17.557C57.6581 17.2583 57.2634 16.8477 56.9754 16.325C56.6981 15.7917 56.5594 15.173 56.5594 14.469C56.5594 13.925 56.6501 13.4077 56.8314 12.917C57.0234 12.4263 57.2847 11.9943 57.6154 11.621C57.9461 11.237 58.3194 10.9383 58.7354 10.725C59.1621 10.501 59.6154 10.389 60.0954 10.389C61.6847 10.389 62.4794 11.1623 62.4794 12.709C62.4794 12.8477 62.4687 12.9917 62.4474 13.141C62.4261 13.2903 62.4047 13.4077 62.3834 13.493L62.1754 13.685H57.7594C57.7487 14.6343 57.9194 15.3863 58.2714 15.941C58.6341 16.485 59.1407 16.805 59.7914 16.901C60.4421 16.9863 61.2101 16.8263 62.0954 16.421L62.1914 16.453L62.3674 16.917C62.1541 17.0663 61.8981 17.2263 61.5994 17.397C61.3114 17.5677 61.0181 17.7117 60.7194 17.829C60.4207 17.9463 60.1541 18.005 59.9194 18.005ZM57.8234 13.093L60.7194 12.949C60.8794 12.9277 60.9861 12.8903 61.0394 12.837C61.0927 12.7837 61.1194 12.677 61.1194 12.517C61.1194 12.0903 61.0021 11.765 60.7674 11.541C60.5434 11.317 60.2181 11.205 59.7914 11.205C59.3007 11.205 58.8741 11.3757 58.5114 11.717C58.1487 12.0477 57.9194 12.5063 57.8234 13.093ZM68.3873 17.349C68.7073 17.2637 68.9366 17.141 69.0753 16.981C69.2139 16.8103 69.2833 16.5863 69.2833 16.309L69.3473 13.141C69.3473 12.6077 69.2299 12.197 68.9953 11.909C68.7713 11.621 68.4459 11.477 68.0193 11.477C67.7633 11.477 67.5019 11.5303 67.2353 11.637C66.9686 11.7437 66.7286 11.861 66.5153 11.989C66.3126 12.117 66.1579 12.2237 66.0513 12.309C66.0406 12.5863 66.0246 12.917 66.0033 13.301C65.9926 13.6743 65.9766 14.0583 65.9553 14.453C65.9446 14.8477 65.9339 15.205 65.9233 15.525C65.9126 15.845 65.9073 16.085 65.9073 16.245C65.9073 16.5757 65.9499 16.8103 66.0353 16.949C66.1313 17.077 66.2806 17.141 66.4833 17.141C66.5793 17.141 66.6966 17.1357 66.8353 17.125C66.9739 17.1143 67.0433 17.109 67.0433 17.109L67.0753 17.173L66.9313 17.861C66.9313 17.861 66.8513 17.8557 66.6913 17.845C66.5313 17.8343 66.3393 17.8237 66.1153 17.813C65.8913 17.813 65.6779 17.813 65.4753 17.813C65.2513 17.813 65.0166 17.8183 64.7713 17.829C64.5259 17.8503 64.3179 17.8663 64.1473 17.877C63.9766 17.8983 63.8913 17.909 63.8913 17.909L63.9713 17.253C64.2806 17.1997 64.4993 17.1037 64.6273 16.965C64.7553 16.8263 64.8193 16.6077 64.8193 16.309V12.405C64.8193 12.0423 64.7606 11.7917 64.6433 11.653C64.5259 11.5037 64.3233 11.429 64.0353 11.429H63.8593L63.8113 11.365L63.8593 10.837C64.2326 10.773 64.5899 10.709 64.9313 10.645C65.2726 10.5703 65.5499 10.5063 65.7633 10.453C65.9873 10.3997 66.0993 10.373 66.0993 10.373L66.1953 10.501C66.1953 10.501 66.1686 10.6077 66.1153 10.821C66.0726 11.0343 66.0406 11.2797 66.0193 11.557L66.0513 11.605C66.1473 11.541 66.2966 11.445 66.4993 11.317C66.7126 11.1783 66.9366 11.0397 67.1713 10.901C67.4166 10.7623 67.6513 10.645 67.8753 10.549C68.0993 10.4423 68.2753 10.389 68.4033 10.389C69.0753 10.389 69.6086 10.5757 70.0033 10.949C70.3979 11.3223 70.5953 11.8237 70.5953 12.453C70.5953 12.5917 70.5846 12.821 70.5633 13.141C70.5419 13.461 70.5153 13.8183 70.4833 14.213C70.4513 14.6077 70.4246 14.9863 70.4033 15.349C70.3819 15.7117 70.3713 16.0103 70.3713 16.245C70.3713 16.5543 70.4139 16.7837 70.4993 16.933C70.5846 17.0717 70.7286 17.141 70.9313 17.141C71.0273 17.141 71.1446 17.1357 71.2833 17.125C71.4219 17.1143 71.4913 17.109 71.4913 17.109L71.5233 17.173L71.3953 17.861C71.3953 17.861 71.3473 17.8557 71.2513 17.845C71.1659 17.845 71.0486 17.8397 70.8993 17.829C70.7606 17.829 70.6059 17.8237 70.4353 17.813C70.2753 17.813 70.1206 17.813 69.9713 17.813C69.8006 17.813 69.6193 17.8237 69.4273 17.845C69.2459 17.8663 69.0699 17.8877 68.8993 17.909C68.7286 17.9303 68.5899 17.9517 68.4833 17.973C68.3766 17.9943 68.3233 18.005 68.3233 18.005L68.3873 17.349ZM75.2686 18.005C74.7673 18.005 74.3246 17.957 73.9406 17.861C73.5673 17.7757 73.274 17.6903 73.0606 17.605C72.858 17.509 72.7566 17.461 72.7566 17.461L72.6766 17.301C72.6766 17.301 72.6873 17.2317 72.7086 17.093C72.73 16.9437 72.7513 16.7463 72.7726 16.501C72.794 16.245 72.8153 15.9463 72.8366 15.605C72.858 15.2637 72.8686 14.901 72.8686 14.517L73.5886 14.437C73.5886 15.205 73.642 15.7917 73.7486 16.197C73.8553 16.5917 74.058 16.8637 74.3566 17.013C74.6553 17.1517 75.0926 17.221 75.6686 17.221C76.33 17.221 76.8633 17.0663 77.2686 16.757C77.6846 16.437 77.8926 16.005 77.8926 15.461C77.8926 15.109 77.7753 14.805 77.5406 14.549C77.306 14.293 77.002 14.0583 76.6286 13.845C76.266 13.6317 75.8766 13.4183 75.4606 13.205C75.034 12.981 74.618 12.741 74.2126 12.485C73.818 12.229 73.4926 11.9357 73.2366 11.605C72.9806 11.2637 72.8526 10.8637 72.8526 10.405C72.8526 9.83965 73.0126 9.33299 73.3326 8.88499C73.6633 8.43699 74.106 8.08499 74.6606 7.82899C75.2153 7.56232 75.8393 7.42899 76.5326 7.42899C77.0126 7.42899 77.434 7.46099 77.7966 7.52499C78.17 7.58899 78.458 7.65832 78.6606 7.73299C78.874 7.79699 78.9806 7.82899 78.9806 7.82899L79.0286 7.92499C79.0286 7.92499 79.002 8.04765 78.9486 8.29299C78.906 8.53832 78.858 8.86899 78.8046 9.28499C78.7513 9.69032 78.7086 10.1383 78.6766 10.629L78.0526 10.693L77.9566 10.613C77.9566 10.613 77.962 10.5383 77.9726 10.389C77.994 10.229 78.0046 10.0263 78.0046 9.78099C78.0046 9.21565 77.866 8.82632 77.5886 8.61299C77.322 8.39965 76.826 8.29299 76.1006 8.29299C75.514 8.29299 75.0286 8.44232 74.6446 8.74099C74.2713 9.02899 74.0846 9.39165 74.0846 9.82899C74.0846 10.149 74.186 10.437 74.3886 10.693C74.5913 10.9383 74.858 11.1623 75.1886 11.365C75.5193 11.5677 75.8766 11.7703 76.2606 11.973C76.73 12.2077 77.1886 12.4583 77.6366 12.725C78.0953 12.9917 78.474 13.2957 78.7726 13.637C79.0713 13.9783 79.2206 14.3943 79.2206 14.885C79.2206 15.493 79.05 16.0317 78.7086 16.501C78.378 16.9703 77.914 17.3383 77.3166 17.605C76.73 17.8717 76.0473 18.005 75.2686 18.005ZM80.969 21.605L81.049 20.981C81.3904 20.9383 81.609 20.8423 81.705 20.693C81.8117 20.5543 81.865 20.2663 81.865 19.829C81.865 19.6583 81.865 19.4077 81.865 19.077C81.8757 18.7463 81.881 18.3997 81.881 18.037C81.8917 17.685 81.897 17.397 81.897 17.173V12.405C81.897 12.0423 81.8384 11.7917 81.721 11.653C81.6037 11.5037 81.401 11.429 81.113 11.429H80.937L80.889 11.365L80.937 10.837C81.3104 10.773 81.6677 10.709 82.009 10.645C82.3504 10.5703 82.6277 10.5063 82.841 10.453C83.065 10.3997 83.177 10.373 83.177 10.373L83.273 10.501C83.273 10.501 83.2517 10.5917 83.209 10.773C83.1664 10.9543 83.1344 11.1517 83.113 11.365L83.177 11.477C83.6464 11.1463 84.041 10.8903 84.361 10.709C84.6917 10.5277 84.9157 10.437 85.033 10.437C85.6517 10.437 86.1904 10.581 86.649 10.869C87.1077 11.1463 87.465 11.541 87.721 12.053C87.9877 12.5543 88.121 13.141 88.121 13.813C88.121 14.389 88.0144 14.933 87.801 15.445C87.5984 15.9463 87.3104 16.389 86.937 16.773C86.5744 17.157 86.153 17.461 85.673 17.685C85.193 17.8983 84.681 18.005 84.137 18.005C84.009 18.005 83.8544 17.9997 83.673 17.989C83.4917 17.9783 83.3264 17.9677 83.177 17.957C83.0384 17.9463 82.969 17.941 82.969 17.941C82.969 18.2077 82.969 18.4797 82.969 18.757C82.9797 19.0343 82.985 19.3117 82.985 19.589C82.985 20.0797 83.033 20.4103 83.129 20.581C83.2357 20.7623 83.4384 20.853 83.737 20.853C83.8224 20.853 83.913 20.8477 84.009 20.837C84.105 20.837 84.1957 20.837 84.281 20.837L84.313 20.885L84.185 21.493C84.057 21.493 83.929 21.493 83.801 21.493C83.673 21.493 83.545 21.493 83.417 21.493C83.2997 21.493 83.177 21.493 83.049 21.493C82.921 21.493 82.793 21.493 82.665 21.493C82.3664 21.493 82.0837 21.4983 81.817 21.509C81.561 21.5303 81.353 21.5517 81.193 21.573C81.0437 21.5943 80.969 21.605 80.969 21.605ZM84.585 17.125C85.2997 17.125 85.8597 16.885 86.265 16.405C86.681 15.9143 86.889 15.2477 86.889 14.405C86.889 13.861 86.793 13.3757 86.601 12.949C86.4197 12.5117 86.169 12.165 85.849 11.909C85.529 11.653 85.1717 11.525 84.777 11.525C84.5637 11.525 84.3024 11.5997 83.993 11.749C83.6837 11.8877 83.3904 12.0743 83.113 12.309C83.0917 12.7463 83.0704 13.2263 83.049 13.749C83.0277 14.2717 83.0117 14.7997 83.001 15.333C82.9904 15.8663 82.985 16.3623 82.985 16.821C83.1984 16.9063 83.449 16.981 83.737 17.045C84.0357 17.0983 84.3184 17.125 84.585 17.125ZM94.6541 18.005C94.2275 18.005 93.8915 17.8983 93.6461 17.685C93.4115 17.461 93.2728 17.1357 93.2301 16.709L93.1661 16.693C92.9101 16.949 92.6648 17.173 92.4301 17.365C92.2061 17.5463 92.0035 17.6903 91.8221 17.797C91.6515 17.893 91.5128 17.941 91.4061 17.941C91.0115 17.941 90.6595 17.8557 90.3501 17.685C90.0408 17.5143 89.7955 17.2797 89.6141 16.981C89.4435 16.6823 89.3581 16.341 89.3581 15.957C89.3581 15.6477 89.4328 15.3757 89.5821 15.141C89.7421 14.9063 89.9501 14.7517 90.2061 14.677L93.2461 13.845L93.2621 13.141C93.2621 12.6077 93.1395 12.1917 92.8941 11.893C92.6488 11.5943 92.3021 11.445 91.8541 11.445C91.5555 11.445 91.2408 11.5143 90.9101 11.653C90.5795 11.7917 90.2541 11.989 89.9341 12.245L89.8541 12.197L89.6621 11.509C89.9395 11.349 90.2488 11.1837 90.5901 11.013C90.9315 10.8317 91.2568 10.6823 91.5661 10.565C91.8755 10.4477 92.1101 10.389 92.2701 10.389C92.7395 10.389 93.1395 10.4743 93.4701 10.645C93.8008 10.805 94.0515 11.0397 94.2221 11.349C94.4035 11.6477 94.4941 12.0157 94.4941 12.453C94.4941 12.5917 94.4781 12.8157 94.4461 13.125C94.4248 13.4343 94.3928 13.781 94.3501 14.165C94.3075 14.5383 94.2701 14.901 94.2381 15.253C94.2168 15.605 94.2061 15.8983 94.2061 16.133C94.2061 16.3677 94.2648 16.549 94.3821 16.677C94.4995 16.805 94.6595 16.869 94.8621 16.869C95.0435 16.869 95.2248 16.8263 95.4061 16.741C95.5875 16.645 95.7261 16.5543 95.8221 16.469L96.0461 16.725C95.9608 16.8637 95.8435 17.0237 95.6941 17.205C95.5555 17.3757 95.3955 17.5357 95.2141 17.685C95.0435 17.8343 94.8568 17.941 94.6541 18.005ZM91.6781 16.853C91.8808 16.853 92.1155 16.7837 92.3821 16.645C92.6595 16.4957 92.9101 16.309 93.1341 16.085L93.2141 14.453L91.0381 15.109C90.7288 15.205 90.5741 15.429 90.5741 15.781C90.5741 16.0797 90.6755 16.3357 90.8781 16.549C91.0915 16.7517 91.3581 16.853 91.6781 16.853ZM97.0993 17.237C97.4193 17.205 97.6326 17.1037 97.7393 16.933C97.8459 16.7517 97.8993 16.4103 97.8993 15.909V12.389C97.8993 12.037 97.8513 11.7863 97.7553 11.637C97.6593 11.4877 97.5046 11.413 97.2913 11.413C97.2059 11.413 97.1259 11.4237 97.0513 11.445C96.9873 11.4557 96.9553 11.461 96.9553 11.461L96.8753 11.349L96.9233 10.853C97.2539 10.789 97.5846 10.7197 97.9153 10.645C98.2459 10.5703 98.5233 10.5063 98.7473 10.453C98.9713 10.3997 99.0833 10.373 99.0833 10.373L99.1953 10.469C99.1953 10.469 99.1793 10.5543 99.1473 10.725C99.1259 10.8957 99.1046 11.109 99.0833 11.365C99.0619 11.6103 99.0513 11.861 99.0513 12.117L99.1153 12.165C99.4459 11.6637 99.8246 11.253 100.251 10.933C100.678 10.613 101.051 10.453 101.371 10.453C101.553 10.453 101.681 10.4637 101.755 10.485C101.83 10.5063 101.867 10.517 101.867 10.517L101.915 10.581C101.915 10.581 101.905 10.6557 101.883 10.805C101.862 10.9437 101.835 11.1303 101.803 11.365C101.771 11.589 101.739 11.8343 101.707 12.101C101.686 12.3677 101.67 12.6237 101.659 12.869L101.035 12.917C101.035 12.4797 101.009 12.1917 100.955 12.053C100.902 11.9037 100.785 11.829 100.603 11.829C100.369 11.829 100.118 11.925 99.8513 12.117C99.5846 12.309 99.3393 12.5757 99.1153 12.917C99.1153 12.917 99.1099 13.0183 99.0993 13.221C99.0886 13.413 99.0779 13.6583 99.0673 13.957C99.0566 14.2557 99.0459 14.565 99.0353 14.885C99.0246 15.1943 99.0139 15.4717 99.0033 15.717C98.9926 15.9517 98.9873 16.1063 98.9873 16.181C98.9873 16.5437 99.0406 16.789 99.1473 16.917C99.2539 17.045 99.4566 17.109 99.7553 17.109C99.8726 17.109 100.017 17.1037 100.187 17.093C100.369 17.0823 100.459 17.077 100.459 17.077L100.475 17.141L100.331 17.845C100.331 17.845 100.278 17.8397 100.171 17.829C100.065 17.829 99.9259 17.829 99.7553 17.829C99.5846 17.829 99.4033 17.8237 99.2113 17.813C99.0299 17.813 98.8593 17.813 98.6993 17.813C98.3899 17.813 98.1073 17.8183 97.8513 17.829C97.5953 17.8397 97.3926 17.8503 97.2433 17.861C97.0939 17.8717 97.0193 17.877 97.0193 17.877L97.0993 17.237ZM102.824 17.253C103.112 17.2103 103.315 17.1357 103.432 17.029C103.55 16.9117 103.619 16.741 103.64 16.517C103.662 16.293 103.672 16.005 103.672 15.653V7.79699C103.672 7.22099 103.475 6.93299 103.08 6.93299C102.995 6.93299 102.904 6.94365 102.808 6.96499C102.723 6.98632 102.68 6.99699 102.68 6.99699C102.68 6.94365 102.68 6.89565 102.68 6.85299C102.691 6.79965 102.702 6.75165 102.712 6.70899L102.744 6.40499C103.022 6.37299 103.299 6.33032 103.576 6.27699C103.854 6.22365 104.11 6.17032 104.344 6.11699C104.579 6.06365 104.766 6.02099 104.904 5.98899C105.043 5.95699 105.112 5.94099 105.112 5.94099L105.208 6.14899C105.166 6.22365 105.123 6.46365 105.08 6.86899C105.038 7.27432 104.995 7.80765 104.952 8.46899C104.92 9.13032 104.888 9.88232 104.856 10.725C104.824 11.557 104.798 12.4477 104.776 13.397C104.766 14.3357 104.76 15.285 104.76 16.245C104.76 16.5757 104.803 16.8103 104.888 16.949C104.984 17.077 105.134 17.141 105.336 17.141C105.432 17.141 105.55 17.1357 105.688 17.125C105.827 17.1143 105.896 17.109 105.896 17.109L105.928 17.173L105.784 17.861C105.784 17.861 105.736 17.8557 105.64 17.845C105.544 17.845 105.422 17.8397 105.272 17.829C105.123 17.829 104.963 17.8237 104.792 17.813C104.632 17.813 104.478 17.813 104.328 17.813C104.104 17.813 103.87 17.8183 103.624 17.829C103.379 17.8503 103.171 17.8663 103 17.877C102.83 17.8983 102.744 17.909 102.744 17.909L102.824 17.253ZM105.16 14.069L105.192 13.813L107.096 11.989C107.246 11.8503 107.347 11.7437 107.4 11.669C107.454 11.5837 107.48 11.5037 107.48 11.429C107.48 11.3117 107.411 11.2263 107.272 11.173C107.134 11.1197 106.91 11.093 106.6 11.093L106.552 11.013L106.696 10.549C106.696 10.549 106.792 10.5543 106.984 10.565C107.176 10.565 107.395 10.5703 107.64 10.581C107.896 10.581 108.12 10.581 108.312 10.581C108.515 10.581 108.734 10.5757 108.968 10.565C109.203 10.5437 109.406 10.5277 109.576 10.517C109.747 10.4957 109.832 10.485 109.832 10.485L109.88 10.565L109.752 11.061C109.368 11.1677 108.979 11.3757 108.584 11.685C108.2 11.9837 107.816 12.3197 107.432 12.693C107.059 13.0663 106.696 13.4237 106.344 13.765L108.024 15.925C108.398 16.3943 108.728 16.7303 109.016 16.933C109.315 17.1357 109.63 17.237 109.96 17.237L110.008 17.317L109.912 17.781C109.912 17.781 109.827 17.8023 109.656 17.845C109.496 17.8877 109.32 17.9303 109.128 17.973C108.947 18.0157 108.814 18.037 108.728 18.037C108.622 18.037 108.52 18.021 108.424 17.989C108.339 17.957 108.254 17.9197 108.168 17.877C107.998 17.7917 107.827 17.6583 107.656 17.477C107.496 17.285 107.294 17.0183 107.048 16.677L105.16 14.069Z" fill="#D1FAE5"/>
</svg>
