<svg width="25" height="25" viewBox="0 0 25 25" fill="none" xmlns="http://www.w3.org/2000/svg">
<g clip-path="url(#clip0_19_211)">
<path d="M14.8886 19.1264C14.9595 19.2753 15.0753 19.3983 15.2197 19.4779C15.3091 19.5234 15.4074 19.549 15.5077 19.5526C15.4871 19.4615 15.4645 19.3708 15.4399 19.2806C15.3735 19.0193 15.2759 18.7669 15.1493 18.5289C15.0719 18.3896 14.995 18.2506 14.9093 18.1176L14.7385 18.2364C14.7432 18.5384 14.751 18.8556 14.8886 19.1264Z" fill="#FEE992"/>
<path d="M15.3105 18.6781C15.4166 18.9219 15.4999 19.1749 15.5594 19.4341C15.569 19.4734 15.5776 19.5129 15.5866 19.5524C15.6271 19.5496 15.6672 19.5433 15.7066 19.5334C16.0371 19.4494 16.2339 19.1308 16.3104 18.8185C16.3744 18.4855 16.3951 18.1456 16.372 17.8072C16.3671 17.5781 16.3581 17.3491 16.3449 17.1202L14.9739 18.0733C15.0281 18.1564 15.0785 18.2421 15.1268 18.329C15.1899 18.4441 15.2561 18.5581 15.3105 18.6781Z" fill="#FEE992"/>
<path d="M16.3446 17.1198C16.3574 17.3487 16.3672 17.5778 16.3717 17.8068C16.3949 18.1452 16.3742 18.4851 16.3102 18.8181C16.2336 19.1301 16.0368 19.4493 15.7063 19.533C15.667 19.5429 15.6268 19.5492 15.5863 19.552C15.592 19.5771 15.5983 19.6022 15.6036 19.6272C15.7537 19.6071 15.896 19.5483 16.0165 19.4564C16.1369 19.3646 16.2313 19.243 16.2905 19.1036C16.4449 18.7796 16.4512 18.4054 16.451 18.0533C16.451 17.7351 16.439 17.4166 16.4212 17.0988L16.4192 17.0679L16.3446 17.1198ZM15.5081 19.5528C15.4078 19.5492 15.3095 19.5236 15.2201 19.4781C15.0756 19.3984 14.9598 19.2754 14.889 19.1264C14.7514 18.8555 14.7436 18.5384 14.7388 18.2366L14.6639 18.2886C14.6543 18.5665 14.6986 18.8436 14.7944 19.1046C14.8568 19.2542 14.9569 19.3849 15.0851 19.484C15.2133 19.5771 15.3674 19.6278 15.5258 19.6292C15.52 19.6036 15.5137 19.5783 15.5081 19.5528Z" fill="black"/>
<path d="M11.9618 20.4569C11.9592 20.6157 11.985 20.7737 12.038 20.9234C12.0673 21.0006 12.1132 21.0704 12.1726 21.1279C12.2319 21.1853 12.3031 21.229 12.3812 21.2558C12.5537 21.3095 12.7349 21.329 12.9148 21.3134C13.0944 21.3 13.2629 21.2212 13.3882 21.0919C13.511 20.9625 13.6065 20.8097 13.6689 20.6426C13.7776 20.3366 13.8185 20.0105 13.7889 19.6871C13.7742 19.44 13.7451 19.1939 13.7119 18.9485C13.1679 19.3256 12.6232 19.7016 12.0777 20.0765C12.0384 20.1035 11.9991 20.1308 11.9599 20.158C11.9574 20.2578 11.9584 20.3576 11.9618 20.4569Z" fill="#FEE992"/>
<path d="M13.7126 18.9485C13.7458 19.1939 13.7749 19.4405 13.7896 19.6871C13.8192 20.0106 13.7783 20.3366 13.6696 20.6427C13.6072 20.8098 13.5117 20.9625 13.3889 21.0919C13.2636 21.2213 13.0951 21.3001 12.9155 21.3135C12.7356 21.3291 12.5544 21.3095 12.3819 21.2559C12.3038 21.229 12.2326 21.1854 12.1733 21.1279C12.1139 21.0705 12.068 21.0007 12.0387 20.9235C11.9857 20.7737 11.9599 20.6157 11.9625 20.4569C11.9588 20.3577 11.9577 20.2577 11.9608 20.158L11.8838 20.2111C11.8827 20.2807 11.8827 20.3505 11.8847 20.4201C11.8835 20.5638 11.8993 20.7071 11.9319 20.847C11.9711 21.0055 12.0627 21.1462 12.1918 21.2461C12.3476 21.34 12.5259 21.3898 12.7078 21.3901C12.8873 21.41 13.0688 21.3804 13.2328 21.3047C13.3917 21.2152 13.5234 21.0843 13.6139 20.926C13.9817 20.3353 13.8779 19.606 13.7902 18.9533C13.7879 18.9355 13.7853 18.9173 13.7829 18.9001L13.7126 18.9485ZM15.3859 20.3604L15.653 20.3884C15.6397 20.28 15.6245 20.172 15.6074 20.0644C15.4616 20.1447 15.3229 20.237 15.1925 20.3404L15.3859 20.3604Z" fill="black"/>
<path d="M15.6529 20.3884L15.3857 20.3605L15.1924 20.3403C15.3228 20.2369 15.4615 20.1446 15.6073 20.0643C15.6058 20.0554 15.605 20.0467 15.6035 20.0378C15.6008 20.0206 15.5974 20.0033 15.5945 19.9861C15.5432 20.0122 15.4925 20.0402 15.4432 20.0709C15.313 20.1539 15.1876 20.2442 15.0675 20.3414C15.0383 20.3643 15.0658 20.4038 15.0946 20.4068L15.6625 20.4668C15.6595 20.4401 15.6561 20.4139 15.6529 20.3884ZM16.9673 19.9366C16.762 19.8457 16.5395 19.8 16.315 19.8026C16.0905 19.8052 15.8691 19.8561 15.6659 19.9517C15.6703 19.9772 15.6748 20.0025 15.679 20.0279C15.6886 20.0871 15.6977 20.1464 15.7061 20.2059C15.7151 20.2693 15.7214 20.3329 15.7292 20.3963C15.7323 20.4223 15.7355 20.4481 15.7385 20.474L15.896 20.4904L17.1721 20.6237L17.4632 20.6542C17.4733 20.6541 17.483 20.6501 17.4901 20.6429C17.4973 20.6357 17.5014 20.6261 17.5015 20.6159C17.5012 20.2984 17.2379 20.0578 16.9673 19.9366ZM14.2418 21.7251C13.7648 21.4859 13.2098 21.5691 12.7438 21.7916C12.607 21.8579 12.475 21.9338 12.3488 22.0185C12.3236 22.0352 12.3233 22.0819 12.3579 22.0885L13.1783 22.246L14.4805 22.4962L14.7794 22.5536C14.7844 22.5548 14.7895 22.555 14.7946 22.5543C14.7997 22.5535 14.8045 22.5517 14.8089 22.5491C14.8133 22.5464 14.8171 22.5429 14.8201 22.5388C14.8232 22.5347 14.8253 22.53 14.8265 22.525C14.828 22.5189 14.828 22.5126 14.8265 22.5065C14.7973 22.3395 14.7291 22.1817 14.6275 22.0459C14.5259 21.9102 14.3938 21.8002 14.2418 21.7251Z" fill="black"/>
<path d="M13.9738 11.4783C13.9639 11.4783 13.9583 11.4879 13.9547 11.4989L13.9855 11.4844C13.9826 11.4809 13.9783 11.4787 13.9738 11.4783ZM10.0563 12.1551C10.2638 12.2543 10.4835 12.3257 10.7097 12.3675C10.8289 12.3993 10.952 12.4147 11.0754 12.4131C11.179 12.4067 11.2729 12.3596 11.3754 12.3456C11.416 12.3361 11.4585 12.3397 11.4969 12.3559C11.5353 12.3721 11.5675 12.4001 11.589 12.4358C11.6033 12.4658 11.6101 12.4989 11.6089 12.5321C11.6077 12.5654 11.5985 12.5979 11.5821 12.6268C12.1438 12.3651 12.703 12.098 13.2621 11.831C13.3555 11.7863 13.4489 11.7416 13.5424 11.6967C13.5412 11.5064 13.5276 11.3165 13.5019 11.128C13.4252 10.7026 13.2136 10.3132 12.8983 10.0175L12.8963 10.0144C12.8949 10.0137 12.8936 10.0128 12.8923 10.0119C12.8408 9.96511 12.7868 9.92105 12.7307 9.87988C12.6959 9.90244 12.6533 9.91936 12.6178 9.93808L12.595 9.95008L11.1557 10.7178L9.61801 11.5374L9.48193 11.61C9.48961 11.6231 9.49717 11.6363 9.50593 11.6492C9.50593 11.6499 9.50593 11.6508 9.50677 11.6517L9.51061 11.656C9.64727 11.8659 9.83503 12.0376 10.0563 12.1551Z" fill="#FFD2D2"/>
<path d="M18.8631 12.1173L19.0037 12.1077C19.053 12.1044 19.0527 12.181 19.0037 12.1844L18.8443 12.1952C18.8011 12.3771 18.7563 12.5587 18.7101 12.7398C18.8373 12.7434 18.9609 12.7476 19.0747 12.7511C19.1069 13.2087 19.1347 13.6047 19.1347 14.0118C18.7057 14.0757 18.3886 14.0064 17.7918 14.0438C17.7546 13.6115 17.7394 13.1777 17.7462 12.7439C17.8217 12.739 17.9022 12.7362 17.9843 12.7342C17.9755 12.5624 17.9554 12.3913 17.9243 12.222C17.9166 12.1756 17.9085 12.1284 17.9003 12.081C17.8597 12.0776 17.8195 12.0703 17.7803 12.0592C17.7707 12.0563 17.7627 12.0498 17.7579 12.0411C17.753 12.0323 17.7518 12.022 17.7545 12.0124C17.7571 12.0028 17.7634 11.9946 17.772 11.9895C17.7806 11.9845 17.7909 11.983 17.8006 11.9854C17.829 11.9932 17.858 11.9987 17.8873 12.002C17.8502 11.8129 17.8393 11.6197 17.8549 11.4276L17.6424 11.4459C17.5932 11.4501 17.5937 11.3739 17.6424 11.3693L17.8668 11.35C17.8859 11.2451 17.9237 11.1445 17.9783 11.0529C18.0102 11.0002 18.0487 10.9518 18.0929 10.9089C17.91 10.7537 17.728 10.5976 17.5446 10.4429C17.0587 10.0328 16.5717 9.62381 16.0787 9.22205C15.8018 8.98279 15.5124 8.75848 15.2117 8.55005L15.1983 8.55749C15.0423 8.64329 14.8848 8.72669 14.7279 8.81081C14.6458 8.85489 14.5636 8.89889 14.4814 8.94281C14.5005 8.98373 14.5197 9.02465 14.5369 9.06641C14.581 9.17441 14.6188 9.28397 14.6536 9.39485C14.6537 9.39629 14.6537 9.39773 14.6536 9.39917C14.6536 9.40049 14.6555 9.40109 14.656 9.40253C14.7051 9.56105 14.748 9.72125 14.7924 9.88097C14.8704 10.1612 14.9509 10.441 15.0084 10.7264C15.0264 10.8557 15.0544 10.9834 15.0924 11.1083C15.1316 11.2207 15.2032 11.3189 15.2982 11.3907C15.3723 11.4422 15.472 11.5116 15.4363 11.617C15.4169 11.6553 15.386 11.6865 15.3479 11.7063C15.3099 11.7261 15.2665 11.7334 15.2241 11.7273C15.0707 11.7178 14.952 11.6124 14.8227 11.5353C14.8404 11.593 14.8579 11.6506 14.8764 11.7081C14.9981 12.084 15.1311 12.4562 15.2752 12.8241C15.3996 13.155 15.5406 13.4794 15.6977 13.7961C15.7026 13.8049 15.7038 13.8153 15.7013 13.8251C15.6987 13.8348 15.6925 13.8432 15.6839 13.8485C15.4223 14.0119 15.1579 14.1705 14.8907 14.3244C14.4087 14.6037 13.9213 14.8738 13.4407 15.1557C12.9682 15.4329 12.5015 15.7215 12.0565 16.0416C12.0527 16.0444 12.0483 16.0461 12.0436 16.0466H12.0389C12.036 16.0466 12.0331 16.0463 12.0303 16.0458C12.0258 16.0448 12.0215 16.0431 12.0175 16.0408C12.0155 16.0397 12.0136 16.0385 12.0119 16.037L12.0101 16.0356C11.8724 15.8985 11.7367 15.7595 11.6029 15.6185C11.1514 15.1449 10.7137 14.6559 10.2457 14.1978C9.99846 14.1051 9.75478 14.0032 9.5147 13.8921C8.95275 13.6498 8.43199 13.3214 7.97114 12.9188C7.97042 12.9188 7.97054 12.917 7.96994 12.9162C7.96813 12.9153 7.96641 12.9142 7.96478 12.913L7.96082 12.9095L7.9601 12.9082C7.87796 12.8276 7.80202 12.7408 7.73294 12.6488C7.7141 12.6238 7.69694 12.5975 7.67894 12.5718L6.98366 12.9428C7.02698 12.9455 7.0703 12.9483 7.1135 12.9518C7.12001 12.9513 7.12652 12.9528 7.13219 12.956C7.13785 12.9593 7.14242 12.9641 7.1453 12.97C7.14945 12.9759 7.15171 12.9829 7.15178 12.99C7.16171 13.2486 7.13176 13.5072 7.06298 13.7566C7.03141 13.8652 6.97612 13.9654 6.9011 14.05C6.99866 14.0589 7.0961 14.0697 7.19318 14.0831C7.33925 14.1009 7.484 14.1282 7.6265 14.165C7.63323 14.1666 7.63932 14.1702 7.64396 14.1753C7.64861 14.1805 7.65159 14.1869 7.65254 14.1938C7.65573 14.2015 7.65574 14.2102 7.65257 14.2179C7.64941 14.2256 7.64331 14.2318 7.63562 14.235C7.45269 14.3256 7.26216 14.4 7.06622 14.4572C6.71887 14.5564 6.35594 14.5893 5.99642 14.5541C5.83032 14.5389 5.66591 14.5089 5.50514 14.4645C5.35404 14.4179 5.20677 14.3598 5.06462 14.2906C5.05827 14.2867 5.05319 14.281 5.04999 14.2743C5.04679 14.2675 5.04561 14.26 5.04658 14.2526C5.04756 14.2452 5.05065 14.2382 5.05549 14.2325C5.06033 14.2268 5.06671 14.2227 5.07386 14.2205C5.19302 14.1903 5.31122 14.1566 5.43134 14.1297C5.59156 14.0941 5.75371 14.0677 5.91698 14.0508C5.84181 13.9665 5.78181 13.8697 5.73962 13.7649C5.72185 13.7216 5.70584 13.6775 5.69162 13.6329L5.53898 13.7144L5.21726 13.8866C5.23819 13.8975 5.26084 13.9047 5.28422 13.9079C5.33337 13.9115 5.38235 13.8988 5.42356 13.8718C5.46478 13.8448 5.49594 13.8049 5.51222 13.7584C5.52962 13.7128 5.60366 13.7327 5.58602 13.7788C5.56724 13.8332 5.53361 13.8813 5.48892 13.9176C5.44424 13.9539 5.39029 13.977 5.33318 13.9842C5.26401 13.9899 5.19517 13.97 5.13974 13.9282L4.73174 14.1467C4.6313 14.2007 4.52978 14.2536 4.43018 14.3094L4.53374 14.4185C4.98174 14.8905 5.43286 15.3594 5.8871 15.825C6.42142 16.377 6.95638 16.9281 7.49198 17.4783C8.00838 18.0101 8.52374 18.543 9.03806 19.0768C9.43406 19.4885 9.82898 19.9007 10.2161 20.3204C10.3394 20.4526 10.4602 20.587 10.5785 20.7237C10.6296 20.7781 10.6764 20.8363 10.7185 20.8979C10.7357 20.8872 10.753 20.8767 10.77 20.8659C11.2852 20.538 11.7858 20.1861 12.289 19.8401C13.1248 19.2655 13.9588 18.6882 14.791 18.1082L14.8691 18.0538C14.8339 18.0026 14.7971 17.9525 14.7571 17.904C14.6009 17.7136 14.4411 17.5262 14.2779 17.3417C13.9131 16.9287 13.5334 16.5293 13.1388 16.1436C13.1035 16.1092 13.1578 16.0551 13.1929 16.0895C13.2448 16.1402 13.2964 16.191 13.3477 16.2422C13.736 16.6292 14.1098 17.0299 14.4691 17.4443C14.6334 17.6245 14.7882 17.8132 14.9328 18.0095C15.8185 17.3939 16.7041 16.7782 17.5896 16.1622L17.9848 15.888C17.8765 15.8825 17.7681 15.8842 17.6601 15.8931C17.5345 15.9001 17.414 15.9447 17.3142 16.0211C17.2825 16.0458 17.2288 16.0144 17.2542 15.9747L17.4462 15.6735L17.4785 15.6226C17.3999 15.6704 17.3265 15.7263 17.2595 15.7894L17.1635 15.9652C17.1591 15.9724 17.1525 15.978 17.1447 15.9812C17.1369 15.9843 17.1283 15.9849 17.1202 15.9828C16.6626 15.8813 16.2035 15.7868 15.7429 15.6994C15.738 15.698 15.7334 15.6957 15.7294 15.6925C15.7254 15.6894 15.7221 15.6854 15.7196 15.681C15.7171 15.6765 15.7156 15.6716 15.715 15.6665C15.7145 15.6614 15.715 15.6563 15.7164 15.6514C15.7172 15.6484 15.7185 15.6456 15.72 15.6429C15.8818 15.3754 16.0516 15.112 16.236 14.8593C16.2387 14.853 16.2434 14.8477 16.2493 14.8443C16.2553 14.8409 16.2622 14.8395 16.269 14.8404C16.7107 14.8756 17.1486 14.939 17.5864 15.0058C17.6831 14.903 17.7945 14.815 17.917 14.7447C18.1921 14.5834 18.5174 14.5299 18.8297 14.5946C18.8395 14.5975 18.8478 14.6041 18.8528 14.6131C18.8577 14.6221 18.8588 14.6327 18.856 14.6426C18.8542 14.6486 18.851 14.6542 18.8466 14.6588C18.7275 14.7802 18.6187 14.9113 18.5213 15.0507C18.6158 15.0581 18.7087 15.079 18.7973 15.1125C18.8593 15.136 18.9188 15.166 18.9747 15.2018C19.3158 14.9658 19.6573 14.7301 19.9991 14.4948C20.4246 14.2026 20.8469 13.9001 21.2861 13.6281C21.0429 13.4328 20.809 13.2249 20.5721 13.0222C20.1099 12.6268 19.6477 12.2314 19.1857 11.8359C19.1113 11.7723 19.0366 11.7093 18.9622 11.6458C18.9413 11.7806 18.9108 11.9144 18.8821 12.0438C18.8751 12.0684 18.8686 12.0927 18.8631 12.1173ZM15.6124 10.6878C15.6057 10.7366 15.5319 10.7157 15.5385 10.6676C15.5729 10.4167 15.592 10.164 15.5958 9.91085C15.5958 9.9007 15.5998 9.89096 15.607 9.88378C15.6142 9.8766 15.6239 9.87257 15.6341 9.87257C15.6442 9.87257 15.654 9.8766 15.6612 9.88378C15.6683 9.89096 15.6724 9.9007 15.6724 9.91085C15.6682 10.1708 15.6481 10.4303 15.6124 10.6878ZM12.6523 15.8291C12.6537 15.8272 12.6552 15.8253 12.6569 15.8236L12.8362 15.678C12.8435 15.6711 12.8532 15.6673 12.8633 15.6673C12.8734 15.6673 12.8831 15.6711 12.8904 15.678C12.9464 15.7386 13.0021 15.7993 13.0573 15.8602C13.1107 15.9183 13.1683 16.0058 13.0738 16.0586C13.0372 16.0728 12.9977 16.0781 12.9587 16.0739C12.9197 16.0697 12.8822 16.0562 12.8495 16.0346C12.7721 15.995 12.7043 15.939 12.6509 15.8704C12.6494 15.8682 12.6483 15.8658 12.6474 15.8633C12.6456 15.8596 12.6446 15.8548 12.6444 15.8506V15.8483C12.6445 15.8452 12.6452 15.8421 12.6463 15.8392C12.6473 15.8368 12.6485 15.8346 12.6501 15.8325C12.6507 15.8313 12.6515 15.8302 12.6523 15.8291ZM10.9449 16.6312C10.9522 16.6272 10.9607 16.6256 10.969 16.6267C10.9773 16.6277 10.9851 16.6314 10.9912 16.6372C11.1311 16.7659 11.2694 16.8964 11.406 17.0285C11.9034 17.5077 12.39 18.0035 12.933 18.4319C12.9402 18.4392 12.9443 18.449 12.9443 18.4592C12.9443 18.4695 12.9402 18.4793 12.933 18.4865C12.9309 18.4887 12.9284 18.4905 12.9258 18.492C12.7957 18.5768 12.6646 18.6602 12.5326 18.7424C12.0672 19.0318 11.5917 19.3038 11.106 19.5584C11.1048 19.5584 11.1037 19.5584 11.1025 19.5593C11.0972 19.5625 11.091 19.5641 11.0848 19.5639C11.0786 19.5638 11.0725 19.5618 11.0674 19.5584C11.0353 19.5366 11.0052 19.5121 10.9775 19.485C10.9258 19.4384 10.8748 19.3911 10.8244 19.3431C10.525 19.0598 10.2311 18.7709 9.93218 18.4871C9.63878 18.2086 9.34538 17.924 9.02558 17.6753C9.01838 17.6681 9.01434 17.6583 9.01434 17.6481C9.01434 17.6379 9.01838 17.6281 9.02558 17.6208C9.02781 17.6187 9.03031 17.6168 9.03302 17.6152L10.9449 16.6312ZM12.9057 18.7817C12.7732 18.8727 12.6392 18.9614 12.5038 19.0479C12.0496 19.3376 11.5774 19.5974 11.1106 19.8658C11.1032 19.8699 11.0947 19.8715 11.0864 19.8704C11.0781 19.8694 11.0703 19.8657 11.0641 19.8599C10.9053 19.7256 10.747 19.5906 10.5894 19.4549C10.0494 18.9885 9.5237 18.5055 9.02498 17.9946C8.99054 17.9594 9.04466 17.9051 9.07922 17.9404C9.22442 18.0892 9.3717 18.2359 9.52106 18.3806C10.0269 18.87 10.5581 19.3319 11.0955 19.7862C11.227 19.7106 11.3587 19.6354 11.4907 19.5604C11.9587 19.2938 12.4225 19.0204 12.867 18.7156C12.9077 18.6875 12.9457 18.7539 12.9057 18.7817ZM8.88734 15.6125C8.7652 15.5937 8.65197 15.5373 8.56334 15.4511C8.46242 15.3634 8.37134 15.2656 8.26862 15.1798C8.15792 15.1026 8.0707 14.9964 8.01662 14.8727C7.99657 14.8102 7.99142 14.7439 8.00155 14.6791C8.01168 14.6143 8.03683 14.5527 8.07499 14.4993C8.11314 14.4459 8.16325 14.4022 8.2213 14.3716C8.27936 14.341 8.34377 14.3244 8.40938 14.3231C8.54026 14.3277 8.66672 14.3716 8.77226 14.4491C8.8469 14.504 8.9147 14.5698 8.9843 14.6308L9.20582 14.8253C9.31491 14.8991 9.3911 15.0123 9.41834 15.1412C9.41528 15.2094 9.39726 15.2762 9.36553 15.3367C9.3338 15.3972 9.28915 15.45 9.23474 15.4913C9.18791 15.5338 9.13303 15.5664 9.07335 15.5872C9.01367 15.608 8.95041 15.6166 8.88734 15.6125ZM11.0713 20.1567C10.9513 20.0664 10.8332 19.9737 10.717 19.8785C10.389 19.6134 10.0659 19.342 9.74762 19.0643C9.5963 18.9323 9.4463 18.7979 9.30026 18.6597C9.19235 18.5615 9.09048 18.4569 8.99522 18.3464C8.96402 18.3087 9.0179 18.2542 9.04946 18.2922C9.15845 18.4181 9.27532 18.5368 9.39938 18.6478C9.7103 18.9384 10.0347 19.215 10.3614 19.4878C10.6014 19.6884 10.8426 19.891 11.0934 20.0782C11.2317 20.0011 11.3705 19.9251 11.5099 19.8502C11.9716 19.6024 12.4289 19.3529 12.8659 19.0623C12.9071 19.0348 12.9455 19.1012 12.9046 19.1284C12.7659 19.2208 12.6253 19.3104 12.483 19.3973C12.0358 19.6689 11.5663 19.9013 11.11 20.1568C11.1041 20.1604 11.0973 20.1623 11.0903 20.1622C11.0834 20.1622 11.0772 20.1603 11.0713 20.1567ZM16.8741 10.4495L16.1964 11.0278C16.1591 11.0596 16.1047 11.0056 16.1423 10.9736L16.8198 10.3953C16.8565 10.3635 16.9116 10.4178 16.8741 10.4495ZM15.8287 10.8258C15.9871 10.5035 16.1705 10.194 16.3774 9.90041C16.4056 9.86033 16.4719 9.89861 16.4435 9.93905C16.2367 10.2327 16.0532 10.5421 15.8949 10.8645C15.8731 10.9088 15.8071 10.8699 15.8287 10.8258ZM15.8819 14.4011C16.2085 14.3096 16.541 14.241 16.8771 14.1956C16.9251 14.1881 16.9461 14.2619 16.8975 14.2695C16.5614 14.3148 16.2289 14.3835 15.9023 14.4749C15.8925 14.4776 15.882 14.4763 15.8732 14.4713C15.8644 14.4663 15.8579 14.458 15.8552 14.4482C15.8525 14.4384 15.8538 14.428 15.8588 14.4191C15.8638 14.4103 15.8721 14.4038 15.8819 14.4011ZM17.4148 14.3465C16.9123 14.3908 16.415 14.4816 15.9293 14.6177C15.9245 14.6191 15.9194 14.6194 15.9144 14.6188C15.9094 14.6182 15.9046 14.6166 15.9002 14.6141C15.8958 14.6117 15.892 14.6083 15.8889 14.6044C15.8858 14.6004 15.8835 14.5959 15.8822 14.591C15.8809 14.5862 15.8805 14.5811 15.8811 14.5761C15.8817 14.5711 15.8833 14.5663 15.8858 14.5619C15.8883 14.5576 15.8916 14.5537 15.8956 14.5506C15.8995 14.5475 15.904 14.5453 15.9089 14.5439C16.4013 14.4062 16.9054 14.3145 17.4148 14.2698C17.4639 14.2649 17.4634 14.3418 17.4148 14.3465Z" fill="#FFD2D2"/>
<path d="M12.0043 16.0276C11.9708 15.9599 11.9388 15.8914 11.9083 15.8222C11.8581 15.709 11.8103 15.5942 11.7623 15.4807C11.5709 15.0267 11.3869 14.5695 11.2043 14.112C11.1458 14.0999 11.0887 14.0816 11.0341 14.0574C10.9609 14.0247 10.8902 13.9867 10.8226 13.9437C10.7873 13.9221 10.7529 13.8987 10.7171 13.8781C10.7043 13.8708 10.6517 13.8432 10.6535 13.8693C10.6548 13.888 10.7028 13.9173 10.7176 13.9293L10.8179 14.0062C10.8729 14.0485 10.9307 14.0888 10.9831 14.1343C11.0092 14.1526 11.0305 14.177 11.0451 14.2053C11.0597 14.2337 11.0673 14.2651 11.0671 14.297C11.0624 14.3272 11.0491 14.3555 11.0288 14.3784C11.0085 14.4013 10.9821 14.4179 10.9527 14.4264C10.8327 14.4666 10.7116 14.3793 10.6047 14.3356C10.5423 14.3105 10.4797 14.2862 10.4167 14.2627C10.3671 14.244 10.3175 14.2254 10.2678 14.207C10.2606 14.2044 10.2535 14.2012 10.2463 14.1985C10.7143 14.6565 11.1525 15.1455 11.6041 15.6188C11.7379 15.7598 11.8736 15.8988 12.0113 16.0359L12.0131 16.0372C12.0095 16.0347 12.0065 16.0314 12.0043 16.0276Z" fill="black"/>
<path d="M8.78294 11.9562C8.91375 11.8641 9.05516 11.7881 9.20414 11.7299L9.2099 11.7246C9.21602 11.7187 9.22283 11.7136 9.23018 11.7094C9.26804 11.692 9.30725 11.6778 9.34742 11.6668C9.36794 11.6599 9.38882 11.654 9.40958 11.6477C9.25644 11.3114 9.16014 10.952 9.12458 10.5841C9.11978 10.5349 9.19658 10.5354 9.20114 10.5841C9.23332 10.914 9.31601 11.2369 9.4463 11.5416C9.4787 11.5236 9.5123 11.507 9.5447 11.4899L9.81758 11.3443L10.6411 10.9051L11.5932 10.3973L12.3839 9.97561L12.6579 9.82981C12.4582 9.69601 12.256 9.56581 12.057 9.43129C12.0163 9.40381 12.0547 9.33745 12.0957 9.36517C12.313 9.51229 12.5344 9.65317 12.7517 9.80029C12.8103 9.84309 12.8667 9.88849 12.9211 9.93649C13.1549 9.75265 13.4146 9.60444 13.6918 9.49669C13.9677 9.38547 14.2656 9.33936 14.5623 9.36193C14.5326 9.26876 14.4995 9.17669 14.4631 9.08593C14.4168 8.97422 14.3637 8.86542 14.3041 8.76013C14.0537 8.31935 13.6978 7.9476 13.2683 7.67821C12.8062 7.40155 12.3162 7.17449 11.8063 7.00081C11.5543 6.90889 11.301 6.82249 11.0476 6.73585L10.8843 6.67981C10.8723 6.73981 10.8591 6.79981 10.8439 6.85981C10.7914 7.06549 10.7322 7.28917 10.5348 7.40089C10.3722 7.47274 10.1922 7.49563 10.0168 7.46677C9.82948 7.45944 9.64668 7.40726 9.48374 7.31461C9.34437 7.23455 9.2285 7.11926 9.14774 6.98029C9.11326 6.90866 9.09185 6.83145 9.0845 6.75229C9.04598 6.78181 9.00782 6.81229 8.97074 6.84325C8.79735 6.99192 8.63741 7.15559 8.49278 7.33237C8.18874 7.70589 7.93494 8.11763 7.73786 8.55709C7.53056 9.01839 7.38142 9.50367 7.29386 10.0018C7.18227 10.5351 7.19121 11.0866 7.32002 11.616C7.43673 12.072 7.66843 12.4905 7.99298 12.8315C8.06918 12.7161 8.15066 12.6035 8.23622 12.4955C8.39228 12.291 8.57632 12.1094 8.78294 11.9562ZM13.9419 8.61349C14.0248 8.6909 14.0747 8.79733 14.0811 8.91061C14.0843 8.95981 14.0076 8.95957 14.0045 8.91061C13.9984 8.81759 13.9565 8.73053 13.8877 8.66761C13.8511 8.63401 13.9059 8.57989 13.9419 8.61349ZM7.84046 11.9271C7.86362 11.8835 7.92974 11.9223 7.90658 11.9657C7.87829 12.0216 7.87121 12.0858 7.88665 12.1466C7.90209 12.2073 7.93902 12.2603 7.99058 12.2959C8.03162 12.3228 7.99322 12.3892 7.95182 12.362C7.88308 12.3159 7.83374 12.246 7.81321 12.1658C7.79267 12.0856 7.80237 12.0006 7.84046 11.9271Z" fill="#CFF0FA"/>
<path d="M7.67865 12.5719C7.69665 12.5975 7.71381 12.6238 7.73265 12.6487C7.8017 12.7408 7.87764 12.8276 7.95981 12.9082L7.96053 12.9095L7.96449 12.913C7.96612 12.9142 7.96785 12.9153 7.96965 12.9163C7.96438 12.9103 7.96108 12.9029 7.96022 12.8951C7.95936 12.8872 7.96098 12.8792 7.96485 12.8723C7.97373 12.8585 7.98357 12.8453 7.99269 12.8315C7.66818 12.4905 7.43649 12.0721 7.31973 11.6161C7.19104 11.0866 7.18222 10.5351 7.29393 10.0018C7.38149 9.50371 7.53063 9.01843 7.73793 8.55713C7.93503 8.11763 8.18887 7.70584 8.49297 7.33229C8.63758 7.15549 8.79756 6.99185 8.97105 6.84329C9.00801 6.81185 9.04617 6.78173 9.08469 6.75221C9.08098 6.72299 9.07782 6.69371 9.07521 6.66437C8.92593 6.77588 8.78607 6.89946 8.65701 7.03385C8.32152 7.38893 8.03828 7.78995 7.81581 8.22485C7.64697 8.54903 7.50842 8.88811 7.40193 9.23777C7.38633 9.28853 7.37157 9.33965 7.35729 9.39089C7.33771 9.46008 7.31934 9.52961 7.30221 9.59945C7.14905 10.1545 7.10588 10.7342 7.17513 11.3059C7.24055 11.7351 7.39714 12.1454 7.63437 12.5091C7.64853 12.5299 7.66389 12.5509 7.67865 12.5719ZM11.9979 6.99245C11.8178 6.92405 11.6367 6.85821 11.4547 6.79493C11.3282 6.75101 11.2016 6.70753 11.0748 6.66449L10.8993 6.60449C10.8947 6.62981 10.8895 6.65489 10.8842 6.68009L11.0475 6.73613C11.301 6.82277 11.5547 6.90917 11.8063 7.00109C12.3161 7.17477 12.8061 7.40183 13.2683 7.67849C13.6977 7.94788 14.0536 8.31963 14.3041 8.76041C14.3636 8.8657 14.4167 8.9745 14.4631 9.08621C14.5001 9.17657 14.5321 9.26885 14.5622 9.36221C14.2655 9.33958 13.9677 9.3857 13.6917 9.49697C13.4145 9.60475 13.1548 9.75296 12.921 9.93677C12.8667 9.88877 12.8103 9.84337 12.7517 9.80057C12.7923 9.82817 12.7539 9.89441 12.713 9.86681C12.6948 9.85481 12.6762 9.84281 12.6578 9.83009L12.3837 9.97625L11.5931 10.3979L10.641 10.9058L9.81741 11.345L9.54453 11.4905C9.51213 11.5077 9.47853 11.5243 9.44613 11.5421L9.48213 11.6261C9.48393 11.6304 9.48502 11.6349 9.48537 11.6396C9.49325 11.6418 9.5003 11.6463 9.50565 11.6525C9.50565 11.6517 9.50565 11.6507 9.50481 11.65C9.49665 11.6372 9.48909 11.624 9.48081 11.6109C9.57921 11.5585 9.67757 11.506 9.77589 11.4535L10.5666 11.0319L11.5188 10.5241L12.3422 10.0847L12.6151 9.93929L12.6164 9.93857C12.6524 9.91985 12.6945 9.90257 12.7293 9.88037C12.7855 9.92154 12.8394 9.9656 12.891 10.0124C12.8922 10.0133 12.8935 10.0142 12.8949 10.0149C12.8888 10.0077 12.8857 9.9984 12.886 9.98894C12.8864 9.97948 12.8903 9.9705 12.897 9.96377C13.1355 9.77159 13.4025 9.61757 13.6883 9.50717C13.9825 9.38673 14.3019 9.34105 14.6181 9.37421C14.6256 9.37468 14.6328 9.37724 14.639 9.38162C14.6451 9.38599 14.6498 9.39199 14.6527 9.39893C14.6528 9.39749 14.6528 9.39605 14.6527 9.39461C14.6179 9.28373 14.5801 9.17381 14.5361 9.06617C14.5188 9.02441 14.5001 8.98349 14.4804 8.94257C14.4696 8.91941 14.459 8.89613 14.4476 8.87321C14.2564 8.48607 13.9867 8.14299 13.6556 7.86581C13.2242 7.53284 12.744 7.26841 12.2319 7.08185C12.1807 7.06109 12.1286 7.04237 12.077 7.02245L11.9979 6.99245ZM9.40965 11.6477C9.38889 11.6541 9.36801 11.6597 9.34749 11.6668C9.30732 11.6778 9.26811 11.692 9.23025 11.7094C9.2229 11.7136 9.21609 11.7188 9.20997 11.7247L9.20421 11.7299C9.27269 11.7023 9.34233 11.6775 9.41313 11.6558L9.40965 11.6477Z" fill="black"/>
<path d="M11.8625 15.5229C11.9234 15.6669 11.9845 15.8109 12.0528 15.951C12.2919 15.7802 12.5363 15.6171 12.7859 15.4617C13.2577 15.166 13.742 14.8911 14.2259 14.616C14.6928 14.3507 15.1597 14.0851 15.6151 13.8C15.5387 13.6463 15.4669 13.4902 15.4001 13.332C15.2445 12.9646 15.1004 12.5924 14.9681 12.216C14.8826 11.9745 14.8001 11.7313 14.7267 11.4855C14.698 11.4734 14.668 11.4645 14.6373 11.4589C14.6085 11.454 14.582 11.4511 14.5713 11.4838C14.5658 11.5106 14.5644 11.5382 14.567 11.5655V11.7513C14.5752 11.8567 14.5704 11.9628 14.5526 12.0671C14.5464 12.1063 14.527 12.1423 14.4977 12.1691C14.4684 12.196 14.4309 12.2121 14.3912 12.2148C14.345 12.2103 14.3013 12.1921 14.2655 12.1625C14.2298 12.1329 14.2037 12.0933 14.1907 12.0487C14.1469 11.9397 14.1206 11.8231 14.0807 11.7127C14.0615 11.6594 14.041 11.6064 14.0193 11.5537L13.9421 11.5906C13.9383 11.6335 13.9361 11.6767 13.9325 11.719C13.9274 11.7799 13.9231 11.8411 13.9173 11.9021C13.9165 11.9823 13.8878 12.0598 13.8362 12.1212C13.8096 12.1473 13.7737 12.1618 13.7364 12.1617C13.6991 12.1615 13.6634 12.1467 13.6369 12.1204C13.5814 12.0511 13.552 11.9645 13.5537 11.8757C13.5507 11.8437 13.5483 11.8115 13.5464 11.7791C13.1131 11.986 12.6797 12.1925 12.2461 12.3987C11.8755 12.5742 11.5056 12.7539 11.1301 12.9202C11.1355 12.925 11.1411 12.9295 11.1465 12.9345C11.2595 13.0396 11.3597 13.1576 11.4453 13.2861C11.4919 13.3526 11.5323 13.4232 11.5662 13.497C11.5819 13.5268 11.5907 13.5598 11.5918 13.5935C11.5929 13.6272 11.5864 13.6607 11.5727 13.6915C11.5588 13.7203 11.5352 13.7432 11.5061 13.7564C11.477 13.7696 11.4442 13.7721 11.4134 13.7635C11.348 13.7324 11.2905 13.6868 11.2454 13.6301C11.1836 13.5674 11.1165 13.5102 11.0448 13.4591C11.0376 13.4545 11.0303 13.4502 11.0227 13.4463C11.0448 13.5024 11.0677 13.5582 11.0899 13.6143C11.1606 13.6863 11.232 13.7583 11.3029 13.8303C11.3574 13.8858 11.4349 13.9581 11.3989 14.0429C11.3897 14.0643 11.3746 14.0825 11.3552 14.0954C11.3359 14.1083 11.3132 14.1154 11.2899 14.1156C11.3825 14.3471 11.4734 14.5792 11.5675 14.8101C11.664 15.0484 11.7623 15.286 11.8625 15.5229ZM13.2582 12.8457L13.263 12.8445L13.2674 12.8418C13.3042 12.8321 13.3417 12.8253 13.3795 12.8214C13.406 12.8164 13.437 12.8387 13.4267 12.8685L13.2984 13.2377C13.2954 13.2474 13.2886 13.2556 13.2797 13.2604C13.2707 13.2652 13.2602 13.2663 13.2504 13.2635C13.2414 13.2607 13.2338 13.2548 13.2288 13.2468C13.1817 13.1761 13.1562 13.0932 13.1556 13.0083C13.1571 12.9746 13.1674 12.942 13.1853 12.9135C13.2032 12.885 13.2286 12.8617 13.2582 12.8457ZM13.1532 13.4422C13.1925 13.3976 13.2445 13.3661 13.3023 13.352C13.36 13.3379 13.4207 13.3418 13.4761 13.3632C13.7177 13.4542 13.6794 13.9073 13.4261 13.9555C13.3678 13.9671 13.3073 13.9602 13.2531 13.9359C13.1989 13.9115 13.1537 13.8709 13.1237 13.8196C13.0944 13.7597 13.0816 13.6931 13.0868 13.6267C13.092 13.5602 13.1149 13.4968 13.1532 13.4422Z" fill="#FFD35C"/>
<path d="M14.7271 11.4858C14.8 11.7317 14.8831 11.9748 14.9684 12.2164C15.1006 12.5928 15.2447 12.965 15.4004 13.3324C15.4671 13.4906 15.5388 13.6467 15.6154 13.8004C15.1594 14.085 14.6931 14.3506 14.2262 14.6164C13.7422 14.8914 13.2579 15.1663 12.7862 15.462C12.5372 15.6181 12.2929 15.7812 12.0531 15.9514C11.9848 15.811 11.9237 15.6667 11.8628 15.5232C11.7628 15.2867 11.6646 15.0495 11.5682 14.8116C11.4741 14.5807 11.3831 14.3487 11.2906 14.1172C11.2618 14.1194 11.2328 14.1178 11.2045 14.1123C11.3871 14.5699 11.5711 15.027 11.7625 15.481C11.8105 15.5949 11.8585 15.709 11.9085 15.8225C11.9392 15.8916 11.9707 15.9604 12.0045 16.0279C12.0078 16.0333 12.0124 16.0377 12.0179 16.0408C12.0198 16.0419 12.0218 16.0428 12.0238 16.0437C12.0261 16.0445 12.0283 16.0452 12.0307 16.0458C12.0335 16.0463 12.0364 16.0465 12.0393 16.0465H12.044C12.0486 16.0459 12.0531 16.0442 12.0569 16.0416C12.5019 15.7215 12.9689 15.4329 13.4411 15.1557C13.9217 14.8738 14.4091 14.6037 14.8911 14.3244C15.158 14.1699 15.4232 14.0124 15.6843 13.8485C15.6929 13.8432 15.6991 13.8348 15.7017 13.825C15.7042 13.8153 15.703 13.8049 15.6981 13.7961C15.541 13.4794 15.4 13.1549 15.2756 12.8241C15.1313 12.4562 14.9983 12.084 14.8768 11.7081C14.8583 11.6506 14.8408 11.593 14.8231 11.5353C14.7924 11.5164 14.7603 11.4998 14.7271 11.4858ZM14.0115 11.5338C14.0056 11.5161 13.9969 11.4994 13.9856 11.4845L13.9547 11.499C13.9522 11.5075 13.9503 11.5162 13.949 11.5249C13.9453 11.5465 13.9438 11.5689 13.9419 11.5911L14.0193 11.5542C14.0165 11.5475 14.0139 11.5407 14.0115 11.5338ZM13.5464 11.7795C13.5447 11.7519 13.5434 11.7243 13.5422 11.6967L13.2619 11.8309C12.7025 12.0979 12.1433 12.3651 11.5819 12.6268C11.5716 12.6464 11.5588 12.6647 11.5439 12.6811C11.469 12.7501 11.3775 12.7984 11.2783 12.8212C11.2094 12.8432 11.1383 12.8577 11.0662 12.8641C11.0882 12.8824 11.1094 12.9013 11.1305 12.9205C11.5059 12.7542 11.8759 12.5746 12.2465 12.399C12.6801 12.1936 13.1134 11.9871 13.5464 11.7795ZM11.0228 13.4471C11.0008 13.4358 10.9719 13.4261 10.9628 13.4481C10.9521 13.474 10.9906 13.5127 11.006 13.5289C11.0336 13.5581 11.0618 13.5865 11.09 13.6152C11.0678 13.5591 11.0449 13.5033 11.0228 13.4471Z" fill="black"/>
<path d="M13.4762 13.3633C13.4208 13.3419 13.3601 13.3379 13.3024 13.3521C13.2447 13.3662 13.1926 13.3976 13.1533 13.4422C13.1151 13.4968 13.0923 13.5605 13.0871 13.6269C13.0819 13.6933 13.0946 13.7598 13.1238 13.8196C13.1538 13.8709 13.1991 13.9116 13.2533 13.9359C13.3075 13.9603 13.3679 13.9672 13.4262 13.9556C13.6795 13.9073 13.7178 13.4539 13.4762 13.3633ZM9.48384 7.3149C9.64678 7.40754 9.82958 7.45973 10.0169 7.46706C10.1923 7.49592 10.3723 7.47303 10.5349 7.40118C10.7323 7.28946 10.7915 7.06578 10.844 6.8601C10.8592 6.8001 10.872 6.7401 10.8844 6.6801C10.9031 6.59061 10.9189 6.50052 10.9316 6.40998L10.9375 6.36642C10.9152 6.3801 10.893 6.39402 10.8698 6.40638C10.8644 6.40926 10.8587 6.4113 10.8533 6.41406C10.8397 6.51227 10.8224 6.60994 10.8014 6.70686C10.777 6.8252 10.7449 6.94184 10.7054 7.05606C10.6775 7.1677 10.6085 7.26471 10.5122 7.32774C10.4159 7.39077 10.2993 7.41519 10.1858 7.39614C9.99575 7.40382 9.80609 7.3725 9.62856 7.3041C9.47994 7.23895 9.3511 7.13581 9.255 7.00506C9.19751 6.91835 9.16371 6.81811 9.15696 6.7143C9.14101 6.56848 9.13595 6.42167 9.14184 6.2751C9.14268 6.2481 9.14436 6.22086 9.14556 6.19374C9.12728 6.16922 9.11076 6.14343 9.09612 6.11658L9.07032 6.12954C9.05746 6.30407 9.0587 6.47936 9.07404 6.6537C9.07404 6.65718 9.07476 6.6609 9.07512 6.66438C9.07764 6.69318 9.08088 6.72258 9.0846 6.75222C9.09195 6.83137 9.11336 6.90859 9.14784 6.98022C9.22855 7.11932 9.34443 7.23474 9.48384 7.3149ZM13.3796 12.8215C13.3418 12.8253 13.3043 12.8321 13.2676 12.8419L13.2631 12.8445L13.2583 12.8457C13.2285 12.8616 13.2034 12.8849 13.1853 12.9134C13.1673 12.9419 13.1569 12.9746 13.1552 13.0083C13.1559 13.0932 13.1813 13.1762 13.2284 13.2469C13.2324 13.2532 13.2381 13.2582 13.2448 13.2614C13.2515 13.2646 13.259 13.2657 13.2664 13.2648C13.2738 13.2638 13.2807 13.2608 13.2864 13.256C13.2921 13.2512 13.2963 13.2448 13.2985 13.2377L13.4268 12.8685C13.4371 12.8387 13.4062 12.8164 13.3796 12.8215ZM17.1314 15.9259C17.1268 15.9325 17.1198 15.937 17.1118 15.9384C17.1039 15.9398 17.0957 15.938 17.0891 15.9334C17.0879 15.9326 17.0868 15.9317 17.0858 15.9308C17.0785 15.928 17.0725 15.9226 17.0689 15.9156C17.0654 15.9086 17.0646 15.9005 17.0668 15.893C16.6502 15.8013 16.2324 15.7154 15.8135 15.6352C15.9624 15.391 16.1183 15.1503 16.286 14.9186C16.7009 14.9524 17.1124 15.0107 17.5236 15.0733C17.5435 15.0501 17.564 15.0275 17.585 15.0056C17.1473 14.9387 16.709 14.8754 16.2677 14.8402C16.2609 14.8393 16.2539 14.8406 16.248 14.844C16.242 14.8474 16.2373 14.8527 16.2347 14.8591C16.0506 15.1118 15.8808 15.3751 15.7187 15.6427C15.7158 15.6477 15.714 15.6534 15.7136 15.6592C15.7132 15.6651 15.7142 15.6709 15.7164 15.6763C15.7186 15.6818 15.722 15.6866 15.7264 15.6905C15.7308 15.6944 15.736 15.6972 15.7416 15.6988C16.2022 15.7863 16.6612 15.8808 17.1188 15.9823C17.127 15.9843 17.1356 15.9837 17.1434 15.9806C17.1512 15.9774 17.1578 15.9718 17.1622 15.9646L17.2582 15.7888C17.2126 15.8313 17.1703 15.8771 17.1314 15.9259Z" fill="black"/>
<path d="M11.4498 5.78948C11.5113 5.6618 11.5479 5.52358 11.5578 5.3822C11.5622 5.23767 11.5411 5.09349 11.4954 4.95632C11.3957 4.63823 11.2147 4.3517 10.9703 4.12508C10.967 4.12061 10.9627 4.11704 10.9578 4.11469C10.9528 4.11234 10.9473 4.11129 10.9418 4.11164C10.254 4.14524 9.66214 4.56644 9.2695 5.11148C9.16949 5.25158 9.08001 5.39891 9.00178 5.55224C8.93432 5.47168 8.8381 5.42062 8.73358 5.40992C8.66929 5.41912 8.60832 5.44426 8.55623 5.48306C8.50415 5.52186 8.4626 5.57307 8.43538 5.63204C8.40033 5.69375 8.37924 5.76239 8.37361 5.83313C8.36797 5.90388 8.37791 5.975 8.40274 6.04148C8.43304 6.10639 8.48203 6.16079 8.54342 6.19771C8.60482 6.23463 8.67583 6.25239 8.74738 6.24872C8.86264 6.23256 8.97311 6.19193 9.07138 6.12956L9.09718 6.1166C9.11184 6.14347 9.12836 6.1693 9.14662 6.19388C9.31258 6.4082 9.59746 6.5018 9.86086 6.54188C10.1973 6.60313 10.5444 6.55826 10.8542 6.41348C10.8596 6.41072 10.8654 6.40868 10.8708 6.4058C10.8939 6.3938 10.9161 6.37952 10.9385 6.36584C11.1614 6.22757 11.3391 6.02727 11.4498 5.78948ZM11.225 4.55348C11.2861 4.65108 11.3383 4.75398 11.381 4.86092C11.4337 4.98795 11.4671 5.12216 11.48 5.25908C11.4893 5.39025 11.471 5.52191 11.4264 5.6456C11.3357 5.90323 11.1642 6.12467 10.9374 6.27692C10.665 6.44467 10.3448 6.51765 10.0267 6.48452C9.83164 6.4732 9.64024 6.42669 9.46174 6.34724C9.32417 6.28773 9.21179 6.18193 9.1441 6.0482C9.13881 6.03959 9.13041 6.03335 9.12065 6.03078C9.11088 6.02821 9.1005 6.02951 9.09166 6.0344C9.00232 6.08143 8.91005 6.12267 8.81542 6.15788C8.76361 6.17382 8.70841 6.17521 8.65586 6.1619C8.60331 6.14859 8.55543 6.12108 8.51746 6.0824C8.35594 5.90792 8.48146 5.57552 8.68726 5.49656C8.7895 5.45732 8.92174 5.56028 8.97526 5.64128C8.97872 5.64694 8.98358 5.65161 8.98937 5.65486C8.99516 5.6581 9.00168 5.6598 9.00832 5.6598C9.01495 5.6598 9.02148 5.6581 9.02727 5.65486C9.03306 5.65161 9.03791 5.64694 9.04138 5.64128C9.33082 5.06048 9.77794 4.53284 10.4004 4.30124C10.5695 4.23787 10.7471 4.20018 10.9274 4.1894C11.0235 4.27868 11.1092 4.37855 11.1829 4.48712C11.1887 4.48556 11.1942 4.48304 11.1999 4.48148C11.2094 4.4785 11.2196 4.47931 11.2285 4.48375C11.2374 4.48819 11.2442 4.49591 11.2474 4.50527C11.2507 4.51462 11.2502 4.52489 11.246 4.53389C11.2419 4.54289 11.2343 4.54991 11.225 4.55348Z" fill="black"/>
<path d="M8.9377 5.78206C8.84602 5.8225 8.7457 5.83906 8.65354 5.87962C8.60854 5.89942 8.64742 5.96554 8.69218 5.94574C8.78386 5.9053 8.88418 5.88874 8.97634 5.84818C9.0217 5.82838 8.98258 5.7619 8.9377 5.78206ZM9.8593 5.69782C9.90238 5.75782 9.92422 5.84662 10.0086 5.85934C10.1124 5.87506 10.1646 5.77114 10.1916 5.68966C10.2072 5.64274 10.1333 5.62258 10.1178 5.66926C10.1039 5.71102 10.0623 5.82106 9.99922 5.77474C9.96454 5.7493 9.95014 5.69338 9.92542 5.65918C9.89686 5.61958 9.83038 5.65774 9.8593 5.69782ZM11.2197 5.16322C11.2108 5.16511 11.2015 5.16466 11.1928 5.1619C11.1841 5.15914 11.1762 5.15417 11.17 5.14748C11.1638 5.14078 11.1594 5.13259 11.1573 5.1237C11.1552 5.1148 11.1554 5.10552 11.1579 5.09674C11.1723 5.04946 11.0979 5.0293 11.084 5.07634C11.075 5.10983 11.0796 5.14554 11.0969 5.17562C11.1142 5.20571 11.1427 5.2277 11.1762 5.23678C11.1903 5.24063 11.205 5.24205 11.2196 5.24098C11.2385 5.23771 11.2566 5.23075 11.2729 5.22049C11.2891 5.21023 11.3031 5.19687 11.3142 5.18118C11.3253 5.16549 11.3331 5.14778 11.3374 5.12904C11.3416 5.11031 11.3421 5.09093 11.3388 5.07202C11.3381 5.06818 11.3372 5.06418 11.3363 5.06002C11.3253 5.01202 11.2515 5.0323 11.2623 5.0803C11.2665 5.09693 11.2645 5.11453 11.2567 5.12979C11.2488 5.14506 11.2357 5.15694 11.2197 5.16322ZM10.9273 5.4847C10.923 5.58202 10.8852 5.67486 10.8203 5.7475C10.8053 5.76171 10.7873 5.77234 10.7676 5.77858C10.7479 5.78481 10.7271 5.78649 10.7066 5.7835C10.6872 5.7804 10.6692 5.77137 10.6551 5.75764C10.6411 5.74391 10.6316 5.72615 10.628 5.70682C10.6231 5.65822 10.5464 5.65774 10.5513 5.70682C10.5552 5.73459 10.5655 5.76108 10.5814 5.78418C10.5973 5.80727 10.6183 5.82633 10.6429 5.83984C10.6675 5.85335 10.6949 5.86093 10.7229 5.86199C10.7509 5.86304 10.7788 5.85753 10.8043 5.8459C10.9413 5.78878 10.9787 5.6365 11.0011 5.5045C11.0094 5.45674 10.9356 5.4361 10.9273 5.4847ZM9.57526 5.3779C9.64992 5.26501 9.74931 5.17063 9.8659 5.1019C9.87467 5.09677 9.88104 5.08837 9.88362 5.07855C9.88619 5.06873 9.88476 5.05828 9.87964 5.04952C9.87451 5.04075 9.86612 5.03437 9.85629 5.0318C9.84647 5.02922 9.83603 5.03065 9.82726 5.03578C9.69953 5.11155 9.59074 5.21541 9.50914 5.3395C9.48178 5.37994 9.54814 5.41834 9.57526 5.3779ZM11.1997 4.48162C11.1939 4.48318 11.1884 4.4857 11.1827 4.48726C11.0867 4.51364 10.9941 4.55092 10.9067 4.59838C10.8633 4.62238 10.902 4.68814 10.9453 4.6645C11.032 4.61717 11.1242 4.58058 11.2197 4.55554L11.2245 4.55314C11.2338 4.54957 11.2413 4.54254 11.2454 4.53354C11.2496 4.52455 11.2501 4.51428 11.2468 4.50492C11.2436 4.49557 11.2368 4.48785 11.2279 4.48341C11.219 4.47897 11.2092 4.47864 11.1997 4.48162ZM18.9731 15.2018C18.9172 15.166 18.8577 15.1361 18.7957 15.1125C18.7071 15.079 18.6142 15.0582 18.5197 15.0507C18.5029 15.0747 18.4863 15.0987 18.4704 15.1238C18.55 15.127 18.6289 15.1401 18.7053 15.1626C18.8408 15.1979 18.9628 15.2725 19.0559 15.3771C19.1202 15.4836 19.1549 15.6052 19.1564 15.7296C18.9618 15.9044 18.7838 16.0969 18.6247 16.3046C18.6126 16.2308 18.588 16.1596 18.5521 16.094C18.4958 15.9955 18.4074 15.9193 18.3017 15.878C18.1844 15.8309 18.0589 15.808 17.9325 15.8109C17.8198 15.8076 17.7069 15.8116 17.5946 15.8229C17.5289 15.8319 17.4648 15.8506 17.4045 15.8784L17.6139 15.5493C17.5668 15.5709 17.5211 15.5953 17.4768 15.6222L17.4445 15.6731L17.2525 15.9743C17.2272 16.014 17.2809 16.0454 17.3125 16.0207C17.4123 15.9443 17.5328 15.8996 17.6583 15.8927C17.7663 15.8837 17.8748 15.882 17.9831 15.8876C18.0071 15.8891 18.0318 15.8905 18.0551 15.893C18.0697 15.8947 18.0847 15.8967 18.0997 15.8991C18.2268 15.9058 18.3463 15.9622 18.4321 16.0562C18.5179 16.1503 18.5632 16.2744 18.5582 16.4016C18.5584 16.4099 18.5613 16.4179 18.5664 16.4244C18.5715 16.431 18.5786 16.4357 18.5867 16.4378C18.5947 16.44 18.6032 16.4395 18.6109 16.4365C18.6186 16.4334 18.6251 16.428 18.6295 16.4209C18.7761 16.2213 18.9404 16.0352 19.1203 15.8649C19.1426 15.8438 19.1652 15.8229 19.188 15.8023C19.2068 15.7853 19.2308 15.7717 19.2335 15.7446C19.2337 15.6972 19.2282 15.6501 19.217 15.6041C19.2058 15.5073 19.1719 15.4145 19.118 15.3333C19.1168 15.3321 19.1155 15.3309 19.1142 15.3299C19.1136 15.3284 19.1128 15.3269 19.112 15.3255C19.0896 15.2978 19.0645 15.2725 19.037 15.2498C19.0166 15.2326 18.9953 15.2166 18.9731 15.2018Z" fill="black"/>
<path d="M17.9619 11.4185L17.9362 11.4207C17.92 11.5505 17.92 11.6819 17.9362 11.8117C17.9439 11.8768 17.9539 11.9416 17.9645 12.0064C17.9851 12.0061 18.0056 12.0048 18.026 12.0024C18.0749 11.9968 18.074 12.0735 18.026 12.0791C18.0097 12.0808 17.9934 12.0819 17.977 12.0823C18.0206 12.2968 18.0492 12.514 18.0626 12.7324C18.248 12.7296 18.4432 12.7324 18.6326 12.7377C18.6599 12.6297 18.6877 12.5217 18.7147 12.4137C18.7324 12.3428 18.7499 12.2717 18.7671 12.2005L18.6009 12.2117C18.5516 12.2151 18.5519 12.1385 18.6009 12.1351L18.7852 12.1231C18.8233 11.9609 18.8579 11.7978 18.883 11.6332C18.8897 11.589 18.8967 11.5422 18.9021 11.4943L18.857 11.5265C18.8167 11.5551 18.7785 11.4887 18.8183 11.4603L18.9107 11.3946C18.9228 11.3117 18.9174 11.2272 18.8951 11.1464C18.8727 11.0656 18.8339 10.9904 18.7809 10.9254C18.7727 10.9175 18.7636 10.9114 18.755 10.9044L18.7216 10.9779C18.7013 11.0227 18.6353 10.9837 18.6555 10.9392L18.6904 10.8622C18.6279 10.8323 18.5595 10.8168 18.4902 10.8168C18.4209 10.8168 18.3525 10.8323 18.29 10.8622C18.278 10.8678 18.2673 10.8742 18.256 10.8809C18.2633 10.9029 18.2692 10.9252 18.277 10.9469C18.2937 10.9935 18.2197 11.0133 18.2031 10.9673C18.1981 10.9531 18.1943 10.9386 18.1895 10.9243C18.0612 11.0305 17.9759 11.1798 17.9495 11.3443L17.9621 11.3433C18.0105 11.3376 18.0099 11.4138 17.9619 11.4185ZM18.5837 11.6849L18.4373 11.8573C18.4054 11.8949 18.3515 11.8405 18.3832 11.8031L18.5296 11.6308C18.5615 11.5931 18.6154 11.6475 18.5837 11.6849Z" fill="#6DD3A8"/>
<path d="M18.0931 10.9083C18.0489 10.9512 18.0104 10.9996 17.9785 11.0523C17.9239 11.1439 17.8861 11.2445 17.867 11.3494L17.9486 11.3423C17.975 11.1778 18.0603 11.0286 18.1886 10.9223C18.1801 10.8974 18.1725 10.8723 18.1646 10.8471C18.1603 10.8502 18.1557 10.853 18.1515 10.8562C18.131 10.8724 18.1115 10.8898 18.0931 10.9083ZM18.7538 10.9039C18.7625 10.9108 18.7716 10.9169 18.7797 10.9249C18.8327 10.9898 18.8716 11.0651 18.8939 11.1458C18.9163 11.2266 18.9216 11.3111 18.9096 11.3941L18.986 11.3396C18.986 11.3115 18.986 11.2834 18.9839 11.2556C18.9815 11.1135 18.9283 10.9769 18.8339 10.8706C18.8191 10.8563 18.8035 10.8431 18.7869 10.8309L18.7538 10.9039ZM18.9012 11.4938C18.8958 11.5418 18.8892 11.5885 18.8821 11.6326C18.857 11.7973 18.8221 11.9603 18.7843 12.1226L18.8631 12.1173C18.8687 12.0927 18.8751 12.0685 18.8807 12.0439C18.9093 11.9144 18.9398 11.7806 18.9607 11.6458C18.9716 11.576 18.9791 11.5058 18.9831 11.4352L18.9012 11.4938ZM18.2551 10.8801C18.2664 10.8739 18.2772 10.867 18.2891 10.8614C18.3516 10.8315 18.42 10.816 18.4893 10.816C18.5587 10.816 18.6271 10.8315 18.6896 10.8614L18.7213 10.7914C18.6149 10.7404 18.4945 10.7263 18.3792 10.7513C18.3276 10.7623 18.2779 10.7807 18.2317 10.8061C18.2391 10.831 18.2471 10.8556 18.2551 10.8801ZM18.7658 12.2005C18.7486 12.2716 18.7311 12.3426 18.7134 12.4136C18.6864 12.5216 18.6587 12.6296 18.6313 12.7376L18.7097 12.7397C18.7557 12.5584 18.8011 12.377 18.8441 12.1951L18.7658 12.2005ZM18.0617 12.7324C18.0482 12.514 18.0196 12.2968 17.9761 12.0824C17.951 12.0834 17.9258 12.083 17.9007 12.0811L17.9247 12.2221C17.9559 12.3913 17.9759 12.5624 17.9847 12.7342C18.0098 12.7339 18.0354 12.7328 18.0617 12.7324ZM17.9636 12.0064C17.9529 11.9416 17.943 11.8768 17.9353 11.8118C17.9191 11.6819 17.9191 11.5506 17.9353 11.4207L17.8549 11.4277C17.8393 11.6197 17.8502 11.8129 17.8873 12.002C17.9126 12.0052 17.9381 12.0067 17.9636 12.0064ZM18.8283 14.5947C18.516 14.53 18.1908 14.5835 17.9156 14.7448C17.7932 14.8151 17.6818 14.9031 17.585 15.0059C17.564 15.0279 17.5435 15.0505 17.5236 15.0736C17.4328 15.1799 17.3524 15.2947 17.2836 15.4163C17.1982 15.5674 17.1259 15.7256 17.0676 15.889V15.8933C17.0655 15.9009 17.0662 15.909 17.0698 15.916C17.0733 15.923 17.0793 15.9284 17.0867 15.9311C17.0926 15.9366 17.1004 15.9395 17.1085 15.9392C17.1165 15.9389 17.1241 15.9355 17.1296 15.9296C17.1306 15.9285 17.1314 15.9274 17.1323 15.9262C17.1711 15.8776 17.2134 15.8318 17.2589 15.7893C17.3259 15.7262 17.3993 15.6703 17.4779 15.6225C17.5221 15.5956 17.5679 15.5713 17.615 15.5497C17.8218 15.4537 18.05 15.413 18.2772 15.4315C18.2839 15.4316 18.2905 15.4299 18.2963 15.4265C18.3022 15.4232 18.307 15.4184 18.3103 15.4125C18.3573 15.3126 18.4111 15.2162 18.4715 15.1238C18.4874 15.0998 18.504 15.0749 18.5208 15.0507C18.6182 14.9113 18.727 14.7802 18.8461 14.6588C18.8496 14.6551 18.8524 14.6508 18.8543 14.6461C18.8562 14.6414 18.8571 14.6363 18.857 14.6313C18.857 14.6262 18.8559 14.6212 18.8539 14.6165C18.8518 14.6118 18.8489 14.6076 18.8453 14.6041C18.8405 14.5996 18.8347 14.5964 18.8283 14.5947ZM18.2533 15.3536C18.0643 15.3423 17.8749 15.3692 17.6965 15.4329C17.5181 15.4965 17.3545 15.5956 17.2153 15.724C17.3046 15.5113 17.424 15.3125 17.57 15.1339C17.7587 14.9051 18.0165 14.7435 18.3047 14.6734C18.4477 14.6397 18.5959 14.6343 18.741 14.6576C18.5442 14.8636 18.3798 15.0983 18.2533 15.3536Z" fill="black"/>
<path d="M18.6 12.2117L18.7662 12.2005L18.8444 12.1952L19.0038 12.1844C19.0527 12.1811 19.0531 12.1045 19.0038 12.1079L18.8631 12.1173L18.7843 12.1226L18.6 12.1346C18.551 12.1385 18.5507 12.215 18.6 12.2117ZM13.5018 11.1281C13.5275 11.3165 13.541 11.5065 13.5422 11.6967C13.5434 11.7243 13.5447 11.7519 13.5464 11.7795C13.5483 11.8118 13.5506 11.844 13.5537 11.8761C13.552 11.9649 13.5814 12.0515 13.6369 12.1208C13.6633 12.1471 13.6991 12.1619 13.7364 12.1621C13.7737 12.1623 13.8095 12.1477 13.8362 12.1217C13.8878 12.0602 13.9165 11.9828 13.9173 11.9025C13.9231 11.8416 13.9274 11.7804 13.9325 11.7194C13.9361 11.6772 13.9383 11.634 13.9419 11.591C13.9439 11.5688 13.9453 11.5465 13.949 11.5249C13.9503 11.5161 13.9523 11.5075 13.9548 11.499C13.9584 11.4879 13.964 11.4785 13.9739 11.4783C13.9762 11.4785 13.9784 11.4791 13.9805 11.4802C13.9825 11.4812 13.9844 11.4827 13.9859 11.4845C13.9971 11.4994 14.0059 11.516 14.0118 11.5338C14.0145 11.5405 14.0168 11.5475 14.0196 11.5542C14.0412 11.6067 14.0616 11.6597 14.0809 11.7132C14.1209 11.8239 14.1471 11.9405 14.1909 12.0492C14.204 12.0937 14.23 12.1333 14.2658 12.1629C14.3015 12.1925 14.3453 12.2107 14.3915 12.2153C14.4311 12.2125 14.4686 12.1964 14.498 12.1696C14.5273 12.1428 14.5466 12.1068 14.5529 12.0675C14.5706 11.9632 14.5754 11.8572 14.5673 11.7517V11.5659C14.5646 11.5386 14.5661 11.5111 14.5716 11.4842C14.5823 11.4516 14.6088 11.4545 14.6376 11.4594C14.6682 11.465 14.6982 11.4738 14.727 11.4859C14.7602 11.4996 14.7923 11.5159 14.823 11.5345C14.9523 11.6114 15.071 11.7168 15.2244 11.7265C15.2668 11.7326 15.3102 11.7252 15.3482 11.7055C15.3863 11.6857 15.4172 11.6545 15.4367 11.6162C15.4727 11.5109 15.3726 11.4414 15.2985 11.3899C15.2036 11.3182 15.132 11.2199 15.0927 11.1075C15.0547 10.9826 15.0266 10.8549 15.0087 10.7256C14.9513 10.4402 14.8707 10.1604 14.7927 9.88018C14.7483 9.72046 14.7054 9.56026 14.6563 9.40174C14.6563 9.40018 14.6545 9.3997 14.6539 9.39838C14.651 9.39143 14.6463 9.38543 14.6402 9.38106C14.6341 9.37669 14.6268 9.37412 14.6193 9.37366C14.3032 9.3405 13.9837 9.38618 13.6895 9.50662C13.4037 9.61701 13.1368 9.77104 12.8982 9.96322C12.8915 9.96995 12.8876 9.97892 12.8872 9.98838C12.8869 9.99784 12.89 10.0071 12.8961 10.0143L12.8982 10.0175C13.2135 10.3132 13.4251 10.7026 13.5018 11.1281ZM14.9349 10.746C14.953 10.8796 14.9825 11.0115 15.0234 11.1401C15.0696 11.2663 15.1518 11.3761 15.2598 11.4561C15.3126 11.493 15.4278 11.5776 15.3252 11.6313C15.2858 11.6461 15.2435 11.6513 15.2018 11.6464C15.1601 11.6416 15.1201 11.6269 15.0852 11.6035C15.0012 11.5609 14.925 11.5041 14.8427 11.4582C14.7688 11.409 14.6823 11.3822 14.5935 11.381C14.4883 11.3913 14.4909 11.5028 14.4908 11.5832C14.4908 11.7049 14.4925 11.8268 14.4901 11.9485C14.4889 12.0132 14.4806 12.1381 14.3913 12.1389C14.2793 12.1401 14.2496 11.9869 14.2251 11.9058C14.1931 11.7983 14.1565 11.6923 14.1153 11.5878C14.0897 11.5221 14.0553 11.3852 13.9593 11.4017C13.8647 11.4177 13.8708 11.5484 13.8649 11.6195C13.8615 11.732 13.8511 11.8442 13.8336 11.9555C13.8216 12.0103 13.7801 12.1251 13.7029 12.0755C13.6309 12.0295 13.6323 11.8991 13.6268 11.8265C13.6091 11.5913 13.6176 11.3544 13.5788 11.121C13.5035 10.6923 13.2953 10.2982 12.9837 9.99442C13.2085 9.81832 13.4584 9.67677 13.725 9.57442C13.9995 9.46446 14.2962 9.42096 14.5908 9.44746C14.6775 9.72982 14.7547 10.0161 14.8308 10.3016C14.8698 10.4487 14.906 10.5965 14.9361 10.7456L14.9349 10.746Z" fill="black"/>
<path d="M18.6317 12.7376C18.4423 12.7327 18.2477 12.7296 18.0617 12.7324C18.0354 12.7324 18.0102 12.7336 17.9845 12.7342C17.9023 12.7362 17.8219 12.739 17.7465 12.7439C17.7396 13.1776 17.7549 13.6115 17.7921 14.0437C18.3888 14.0064 18.706 14.0756 19.135 14.0118C19.135 13.6046 19.107 13.2086 19.075 12.7511C18.9611 12.7476 18.8375 12.7434 18.7103 12.7398L18.6317 12.7376Z" fill="#F55555"/>
<path d="M18.5288 11.6308C18.48 11.6881 18.4312 11.7456 18.3824 11.8031C18.3508 11.8405 18.4046 11.8949 18.4366 11.8573L18.583 11.6849C18.6146 11.6474 18.5608 11.5931 18.5288 11.6308ZM9.51373 13.892C9.75373 14.0034 9.99741 14.1053 10.2448 14.1978C10.252 14.2006 10.259 14.2037 10.2662 14.2063L10.4152 14.262C10.478 14.286 10.5408 14.31 10.6031 14.3351C10.7105 14.3786 10.8311 14.4659 10.9511 14.4257C10.9805 14.4173 11.0069 14.4006 11.0272 14.3777C11.0475 14.3548 11.0608 14.3265 11.0656 14.2963C11.0657 14.2644 11.0582 14.233 11.0435 14.2046C11.0289 14.1763 11.0076 14.1519 10.9816 14.1336C10.9291 14.0881 10.8713 14.0478 10.8163 14.0056L10.716 13.9286C10.7012 13.9172 10.6532 13.888 10.6519 13.8686C10.6501 13.8425 10.7027 13.8701 10.7155 13.8774C10.7515 13.898 10.7857 13.9214 10.821 13.943C10.8887 13.986 10.9594 14.024 11.0326 14.0567C11.0872 14.0809 11.1442 14.0992 11.2027 14.1113C11.2311 14.1168 11.2601 14.1185 11.2889 14.1162C11.3121 14.1159 11.3348 14.1089 11.3542 14.096C11.3735 14.0831 11.3887 14.0648 11.3978 14.0435C11.4338 13.9586 11.356 13.8864 11.3018 13.8308C11.2309 13.7588 11.1595 13.6868 11.0888 13.6148C11.0608 13.5862 11.0326 13.5577 11.0048 13.5287C10.9895 13.5125 10.951 13.4736 10.9616 13.4477C10.9706 13.4257 10.9996 13.4357 11.0216 13.4467C11.0292 13.4507 11.0365 13.4549 11.0437 13.4596C11.1154 13.5107 11.1825 13.5679 11.2444 13.6306C11.2895 13.6873 11.3469 13.7329 11.4124 13.764C11.4431 13.7725 11.4759 13.77 11.505 13.7569C11.5341 13.7437 11.5577 13.7207 11.5716 13.692C11.5853 13.6612 11.5918 13.6277 11.5907 13.594C11.5896 13.5603 11.5808 13.5273 11.5651 13.4975C11.5312 13.4237 11.4908 13.3531 11.4443 13.2865C11.3587 13.1581 11.2584 13.0401 11.1455 12.9349C11.1401 12.93 11.1344 12.9254 11.129 12.9206C11.1079 12.9014 11.0867 12.8825 11.0647 12.8644C11.1367 12.8579 11.2078 12.8435 11.2766 12.8214C11.3759 12.7986 11.4675 12.7503 11.5424 12.6814C11.5573 12.6649 11.5701 12.6466 11.5804 12.627C11.5968 12.5981 11.606 12.5656 11.6072 12.5323C11.6085 12.4991 11.6016 12.466 11.5873 12.436C11.5658 12.4003 11.5336 12.3723 11.4952 12.3561C11.4568 12.3399 11.4143 12.3363 11.3737 12.3458C11.2717 12.3598 11.1778 12.4069 11.0737 12.4133C10.9503 12.4149 10.8272 12.3995 10.708 12.3677C10.4818 12.3259 10.2621 12.2545 10.0546 12.1553C9.83312 12.0379 9.64515 11.8662 9.50832 11.6562L9.50449 11.6519C9.49916 11.6457 9.4921 11.6412 9.48421 11.639C9.48769 11.6771 9.43332 11.7042 9.41484 11.6641L9.41124 11.656C9.34044 11.6776 9.2708 11.7023 9.20232 11.7301C9.05337 11.7884 8.91196 11.8644 8.78113 11.9564C8.57438 12.1096 8.39022 12.2911 8.23404 12.4956C8.14819 12.6041 8.06704 12.7162 7.9908 12.8316C7.98168 12.8454 7.97184 12.8586 7.96296 12.8724C7.95911 12.8793 7.95749 12.8872 7.95833 12.8951C7.95917 12.903 7.96242 12.9104 7.96764 12.9163C7.96836 12.917 7.96824 12.9182 7.96896 12.9188C8.43019 13.3215 8.95137 13.6499 9.51373 13.892ZM9.46177 11.72C9.56866 11.878 9.70303 12.0156 9.85849 12.1261C10.0321 12.2406 10.2236 12.3254 10.425 12.377C10.5266 12.4057 10.6296 12.4291 10.7329 12.4508C10.8447 12.479 10.9597 12.4921 11.0749 12.4897C11.1691 12.4759 11.2622 12.4549 11.3532 12.427C11.4358 12.4091 11.5403 12.4253 11.5312 12.5339C11.5213 12.6497 11.3921 12.701 11.298 12.7338C11.1918 12.775 11.0782 12.7936 10.9644 12.7883C10.9573 12.7858 10.9495 12.7862 10.9427 12.7895C10.9343 12.7922 10.9274 12.7981 10.9232 12.8059C10.9191 12.8137 10.9182 12.8228 10.9206 12.8312V12.8344C10.921 12.8361 10.9215 12.8379 10.9223 12.8395C10.9246 12.8475 10.9294 12.8545 10.936 12.8594C11.058 12.951 11.1688 13.0566 11.266 13.1742C11.3149 13.2335 11.3601 13.2957 11.4013 13.3607C11.4458 13.4225 11.4816 13.4901 11.5076 13.5617C11.5289 13.6348 11.485 13.7335 11.4007 13.6729C11.3383 13.6282 11.2867 13.5643 11.229 13.5134C11.1637 13.4557 10.989 13.2758 10.9025 13.3987C10.8491 13.474 10.9222 13.5547 10.9739 13.6068L11.1388 13.7748C11.1841 13.821 11.2296 13.867 11.2747 13.9133C11.2997 13.9388 11.3605 14.0004 11.3123 14.0308C11.283 14.0424 11.2507 14.044 11.2204 14.0353C11.1802 14.0282 11.1408 14.0175 11.1026 14.0033C11.0312 13.9755 10.9626 13.9411 10.8976 13.9004C10.8396 13.8587 10.7779 13.8225 10.7131 13.7924C10.6905 13.7805 10.6641 13.7778 10.6395 13.7848C10.6149 13.7919 10.594 13.8081 10.5811 13.8302C10.556 13.8865 10.6018 13.9358 10.6429 13.968C10.6944 14.0081 10.7464 14.0474 10.7982 14.0872C10.8558 14.1258 10.9098 14.1696 10.9594 14.2182C10.9712 14.2286 10.9799 14.242 10.9847 14.257C10.9894 14.2721 10.99 14.2881 10.9862 14.3034C10.9781 14.3192 10.966 14.3326 10.9511 14.3423C10.9362 14.352 10.919 14.3576 10.9013 14.3586C10.8331 14.3554 10.7669 14.3345 10.7093 14.2979C10.6102 14.2534 10.5078 14.2157 10.406 14.1779C10.172 14.09 9.93936 14.0002 9.71076 13.8988C9.1622 13.6702 8.64712 13.3683 8.17956 13.0015C8.13454 12.9641 8.09053 12.9255 8.04756 12.8857C8.21687 12.6153 8.42201 12.3691 8.6574 12.1537C8.89046 11.9516 9.16481 11.8036 9.46177 11.72ZM18.9097 11.394L18.8173 11.4596C18.7775 11.4881 18.8156 11.5544 18.856 11.5259L18.9011 11.4937L18.9834 11.4352L19.1542 11.3136C19.194 11.2853 19.1558 11.2188 19.1155 11.2475L18.9862 11.3395L18.9097 11.394ZM18.6895 10.8618L18.6545 10.9388C18.6343 10.9834 18.7003 11.0228 18.7206 10.9775L18.754 10.904L18.7871 10.8311L18.8471 10.7002C18.8674 10.6555 18.8014 10.6162 18.781 10.6614L18.7218 10.7918L18.6895 10.8618ZM18.1885 10.9235C18.1933 10.9378 18.197 10.9523 18.2021 10.9664C18.2186 11.0124 18.2927 10.9926 18.276 10.946C18.2682 10.9243 18.2623 10.902 18.255 10.88C18.247 10.856 18.239 10.831 18.2316 10.8062C18.205 10.7196 18.1826 10.6317 18.1644 10.543C18.1549 10.495 18.081 10.5151 18.0906 10.5634C18.1103 10.6595 18.135 10.7546 18.1646 10.8482C18.1724 10.8738 18.18 10.8985 18.1885 10.9235ZM17.6425 11.4458L17.855 11.4276L17.9354 11.4206L17.9611 11.4185C18.0098 11.4143 18.0103 11.3376 17.9611 11.3418L17.9485 11.3429L17.8669 11.35L17.6425 11.3693C17.5938 11.3735 17.5933 11.4498 17.6425 11.4458ZM7.65204 14.1937C7.6511 14.1868 7.64812 14.1804 7.64347 14.1753C7.63882 14.1702 7.63274 14.1665 7.626 14.1649C7.48351 14.1282 7.33876 14.1009 7.19268 14.0831C7.0956 14.0696 6.99816 14.0591 6.9006 14.05C6.87771 14.0751 6.85288 14.0984 6.82632 14.1197C6.77668 14.1599 6.72099 14.192 6.66132 14.2148C6.50454 14.2748 6.33197 14.2794 6.1722 14.2279C6.10538 14.2023 6.04338 14.1655 5.98884 14.1192C5.9633 14.0981 5.93925 14.0752 5.91684 14.0508C5.75358 14.0677 5.59143 14.094 5.4312 14.1296C5.3112 14.1565 5.19288 14.1896 5.07372 14.2205C5.06658 14.2226 5.06022 14.2268 5.05539 14.2325C5.05057 14.2382 5.04749 14.2452 5.04652 14.2526C5.04556 14.26 5.04676 14.2675 5.04996 14.2742C5.05317 14.281 5.05825 14.2866 5.0646 14.2906C5.2067 14.3598 5.35394 14.4179 5.505 14.4644C5.66578 14.5088 5.83019 14.5388 5.99628 14.5541C6.35581 14.5892 6.71874 14.5563 7.06608 14.4571C7.26205 14.4 7.45259 14.3256 7.63548 14.235C7.64314 14.2317 7.64917 14.2255 7.65227 14.2178C7.65537 14.21 7.65529 14.2014 7.65204 14.1937ZM17.976 12.0823C17.9923 12.0823 18.0086 12.081 18.025 12.0791C18.073 12.0734 18.0739 11.9968 18.025 12.0024C18.0046 12.0048 17.9841 12.0061 17.9635 12.0064C17.9086 12.0065 17.8538 11.9994 17.8007 11.9854C17.791 11.9829 17.7807 11.9844 17.7721 11.9895C17.7635 11.9945 17.7572 12.0027 17.7546 12.0124C17.7519 12.022 17.7531 12.0323 17.758 12.041C17.7628 12.0498 17.7708 12.0563 17.7804 12.0592C17.8196 12.0702 17.8598 12.0776 17.9004 12.081C17.9256 12.0829 17.9508 12.0834 17.976 12.0823ZM4.40544 14.9178C4.40376 14.8686 4.3272 14.8684 4.32888 14.9178C4.35048 15.5794 4.38888 16.2402 4.41732 16.9014C4.4262 17.1043 4.43396 17.3072 4.4406 17.5102C4.44216 17.5594 4.51872 17.5595 4.51716 17.5102C4.49556 16.8486 4.45716 16.1878 4.42872 15.5264C4.41984 15.3237 4.41208 15.1208 4.40544 14.9178Z" fill="black"/>
<path d="M5.67749 13.0791C5.67775 13.1992 5.69152 13.3188 5.71853 13.4358C5.74312 13.5547 5.78033 13.6706 5.82953 13.7816C5.86674 13.8758 5.92502 13.9602 5.9999 14.0283C6.07479 14.0965 6.16428 14.1466 6.26153 14.1748C6.34744 14.1948 6.43662 14.1961 6.52309 14.1787C6.60956 14.1614 6.6913 14.1257 6.76283 14.0741C6.83436 14.0225 6.89401 13.9562 6.93778 13.8796C6.98154 13.803 7.00841 13.718 7.01657 13.6302C7.05903 13.4355 7.07837 13.2364 7.07417 13.0372C6.61745 13.1544 6.14041 13.1687 5.67749 13.0791Z" fill="#B26EE6"/>
<path d="M7.15148 12.99C7.15147 12.9828 7.1492 12.9758 7.145 12.97C7.14213 12.9641 7.13756 12.9592 7.13189 12.956C7.12623 12.9527 7.11972 12.9513 7.1132 12.9517C7.07 12.9483 7.02668 12.9455 6.98336 12.9427C6.93424 12.9396 6.88508 12.9369 6.83588 12.9347C6.43459 12.9131 6.03214 12.933 5.63492 12.994H5.62916C5.62122 12.9948 5.61391 12.9987 5.60883 13.0048C5.60375 13.011 5.60131 13.0189 5.60204 13.0269C5.6016 13.0282 5.60128 13.0296 5.60108 13.0309C5.59624 13.2088 5.6189 13.3863 5.66828 13.5573C5.6754 13.5824 5.683 13.6073 5.69108 13.6319C5.70572 13.6768 5.72156 13.7211 5.73908 13.7639C5.78128 13.8687 5.84128 13.9655 5.91644 14.0499C5.93885 14.0743 5.9629 14.0971 5.98844 14.1183C6.043 14.1646 6.10505 14.2014 6.17192 14.227C6.33165 14.2785 6.50418 14.2739 6.66092 14.2139C6.72059 14.1911 6.77627 14.1589 6.82592 14.1187C6.85248 14.0975 6.87731 14.0742 6.9002 14.049C6.97522 13.9644 7.03054 13.8642 7.0622 13.7556C7.131 13.5065 7.16111 13.2483 7.15148 12.99ZM7.01708 13.6301C7.00893 13.7179 6.98206 13.803 6.93828 13.8796C6.89451 13.9562 6.83484 14.0225 6.7633 14.0741C6.69176 14.1257 6.61 14.1614 6.52352 14.1787C6.43704 14.1961 6.34784 14.1948 6.26192 14.1748C6.16468 14.1466 6.07518 14.0964 6.0003 14.0283C5.92541 13.9601 5.86713 13.8757 5.82992 13.7815C5.78073 13.6705 5.74351 13.5546 5.71892 13.4357C5.69191 13.3187 5.67815 13.1991 5.67788 13.0791C6.14092 13.1687 6.61809 13.1544 7.07492 13.0372C7.07904 13.2364 7.05963 13.4354 7.01708 13.6301ZM5.13896 13.9281C5.19439 13.9698 5.26323 13.9898 5.3324 13.9841C5.38952 13.9769 5.44347 13.9538 5.48815 13.9175C5.53283 13.8812 5.56647 13.8331 5.58524 13.7787C5.60288 13.7326 5.52884 13.7127 5.51144 13.7583C5.49516 13.8048 5.46401 13.8446 5.42279 13.8717C5.38157 13.8987 5.3326 13.9114 5.28344 13.9078C5.26007 13.9045 5.23742 13.8973 5.21648 13.8864C5.19125 13.8733 5.16825 13.8563 5.14832 13.836C5.11409 13.8009 5.08666 13.7598 5.06744 13.7147C5.03842 13.6677 5.02865 13.6113 5.04016 13.5572C5.05167 13.5032 5.08358 13.4557 5.12924 13.4245C5.24096 13.3624 5.3666 13.4373 5.46428 13.4928C5.47305 13.4979 5.4835 13.4994 5.49332 13.4968C5.50314 13.4942 5.51154 13.4878 5.51666 13.4791C5.52179 13.4703 5.52322 13.4599 5.52064 13.45C5.51806 13.4402 5.51169 13.4318 5.50292 13.4267C5.40349 13.352 5.27922 13.3182 5.15564 13.3323C5.10666 13.3445 5.06236 13.3709 5.02823 13.4082C4.9941 13.4454 4.97164 13.4918 4.96364 13.5417C4.95821 13.602 4.96561 13.6628 4.98537 13.72C5.00512 13.7773 5.03677 13.8297 5.07824 13.8738C5.09654 13.894 5.11689 13.9121 5.13896 13.9281ZM9.41852 15.141C9.39125 15.0122 9.31506 14.899 9.206 14.8253L8.98448 14.6308C8.91488 14.5698 8.84708 14.5039 8.77244 14.4491C8.66691 14.3716 8.54044 14.3276 8.40956 14.3231C8.34395 14.3244 8.27955 14.341 8.22149 14.3716C8.16343 14.4021 8.11333 14.4459 8.07517 14.4993C8.03702 14.5527 8.01187 14.6142 8.00174 14.6791C7.9916 14.7439 7.99676 14.8102 8.0168 14.8727C8.07089 14.9963 8.1581 15.1026 8.2688 15.1798C8.37164 15.2656 8.4626 15.3634 8.56352 15.4511C8.65215 15.5372 8.76539 15.5936 8.88752 15.6125C8.9507 15.6167 9.01407 15.6081 9.07385 15.5873C9.13364 15.5665 9.18863 15.5338 9.23552 15.4913C9.28984 15.4499 9.33439 15.3971 9.36601 15.3365C9.39763 15.276 9.41556 15.2092 9.41852 15.141ZM8.42744 15.2163C8.33637 15.1427 8.24952 15.064 8.16728 14.9807C8.12272 14.9318 8.0925 14.8715 8.07995 14.8066C8.0674 14.7416 8.07299 14.6744 8.09612 14.6124C8.12177 14.5501 8.16516 14.4968 8.22088 14.459C8.27661 14.4211 8.34222 14.4005 8.40956 14.3997C8.65796 14.4034 8.83316 14.5996 9.0062 14.7516C9.11111 14.8306 9.20679 14.9212 9.29144 15.0216C9.31083 15.0454 9.32511 15.0729 9.33337 15.1025C9.34163 15.132 9.3437 15.163 9.33944 15.1933C9.32448 15.2544 9.29575 15.3113 9.25544 15.3595C9.18839 15.4489 9.09101 15.5107 8.9816 15.5333C8.92666 15.54 8.87093 15.5353 8.81785 15.5196C8.76478 15.5039 8.71547 15.4775 8.67296 15.4421C8.58689 15.3716 8.50491 15.2962 8.42744 15.2163Z" fill="black"/>
<path d="M9.15441 15.3378L8.94345 15.1232C8.90877 15.0881 8.85465 15.1422 8.88933 15.1773L9.10017 15.3919C9.13485 15.4274 9.18897 15.3738 9.15441 15.3378Z" fill="black"/>
<path d="M12.8411 18.4551C12.7055 18.3467 12.573 18.2347 12.4437 18.1191C11.934 17.6649 11.4597 17.1727 10.9577 16.7108L9.12109 17.6562C9.26689 17.7723 9.40657 17.8962 9.54433 18.0216C9.87697 18.3245 10.2003 18.6374 10.5239 18.9497C10.6522 19.0733 10.7801 19.1972 10.9098 19.3193C10.9525 19.3595 10.9954 19.3995 11.0392 19.4384C11.0536 19.4511 11.068 19.4637 11.0829 19.476L11.0889 19.4808C11.2191 19.4124 11.3486 19.3427 11.4774 19.2719C11.9416 19.0159 12.3961 18.7437 12.8411 18.4551ZM10.4281 17.8842C10.3872 17.912 10.3489 17.8455 10.3895 17.8181L10.7068 17.6021C10.7477 17.5743 10.786 17.6407 10.7454 17.6682L10.4281 17.8842ZM10.6455 18.1081C10.6073 18.1386 10.5527 18.0841 10.5913 18.054L11.0643 17.6771C11.1024 17.6467 11.1569 17.7011 11.1184 17.7313L10.6455 18.1081ZM11.0262 18.5684C10.9853 18.5963 10.947 18.5299 10.9876 18.5023L11.6214 18.0703C11.6623 18.0425 11.7006 18.1088 11.6601 18.1364L11.0262 18.5684ZM11.2597 18.6662L11.8733 18.2357C11.9137 18.2072 11.952 18.2737 11.9119 18.3018L11.2984 18.7323C11.2579 18.7608 11.2198 18.6943 11.2597 18.6662Z" fill="#ACEAC7"/>
<path d="M9.02499 17.6756C9.34479 17.9242 9.63819 18.2089 9.93159 18.4874C10.2305 18.7712 10.5244 19.06 10.8238 19.3434C10.8743 19.3914 10.925 19.4394 10.9769 19.4853C11.0046 19.5124 11.0347 19.5369 11.0668 19.5586C11.072 19.5621 11.078 19.564 11.0842 19.5642C11.0905 19.5644 11.0966 19.5628 11.102 19.5596C11.1032 19.5596 11.1042 19.5596 11.1054 19.5586C11.5906 19.304 12.0661 19.032 12.532 18.7426C12.664 18.6606 12.7951 18.5771 12.9252 18.4923C12.9303 18.4893 12.9345 18.4853 12.9377 18.4804C12.9409 18.4755 12.943 18.47 12.9438 18.4642C12.9445 18.4584 12.9439 18.4526 12.9421 18.447C12.9402 18.4415 12.9371 18.4365 12.933 18.4323C12.3898 18.0039 11.9034 17.5083 11.406 17.0289C11.2694 16.8967 11.1311 16.7663 10.9912 16.6376C10.9851 16.6318 10.9773 16.6281 10.969 16.627C10.9607 16.626 10.9522 16.6276 10.9449 16.6316L9.03279 17.6156C9.02783 17.6186 9.0236 17.6227 9.02044 17.6276C9.01727 17.6324 9.01523 17.638 9.01448 17.6437C9.01373 17.6495 9.01429 17.6553 9.01611 17.6609C9.01793 17.6664 9.02096 17.6714 9.02499 17.6756ZM11.089 19.4806L11.083 19.4758C11.0681 19.4638 11.0537 19.451 11.0393 19.4383C10.9956 19.3992 10.9525 19.3595 10.91 19.3191C10.7802 19.1971 10.6523 19.0731 10.524 18.9495C10.2 18.6375 9.87711 18.3243 9.54447 18.0214C9.40671 17.8962 9.26703 17.7722 9.12123 17.656L10.9578 16.7107C11.4603 17.1726 11.9342 17.6648 12.4438 18.119C12.5732 18.2344 12.7057 18.3464 12.8412 18.455C12.3963 18.743 11.9417 19.0152 11.4776 19.2716C11.3487 19.3427 11.2193 19.4124 11.089 19.4806Z" fill="black"/>
<path d="M12.867 18.7156C12.423 19.0208 11.9588 19.2938 11.4907 19.5605C11.3589 19.6356 11.2271 19.7108 11.0954 19.7863C10.5581 19.3319 10.0268 18.8702 9.52102 18.3806C9.37158 18.2361 9.2243 18.0894 9.07918 17.9404C9.04462 17.9051 8.9905 17.9594 9.02494 17.9947C9.52366 18.5056 10.0491 18.9885 10.5894 19.4549C10.7468 19.5909 10.9051 19.7259 11.0641 19.8599C11.0702 19.8657 11.078 19.8694 11.0864 19.8704C11.0947 19.8715 11.1032 19.8699 11.1105 19.8659C11.5773 19.5974 12.0495 19.3379 12.5037 19.0479C12.6393 18.9615 12.7732 18.8728 12.9056 18.7817C12.9457 18.754 12.9077 18.6875 12.867 18.7156Z" fill="black"/>
<path d="M12.9041 19.1282C12.945 19.101 12.9066 19.0346 12.8655 19.0621C12.4289 19.3528 11.9716 19.6021 11.5095 19.85C11.37 19.9249 11.2312 20.0009 11.0929 20.078C10.8417 19.8908 10.6009 19.6883 10.3609 19.4875C10.0342 19.2149 9.70983 18.9383 9.39891 18.6475C9.27485 18.5365 9.15798 18.4178 9.04899 18.292C9.01743 18.2539 8.96355 18.3084 8.99475 18.3461C9.09001 18.4566 9.19188 18.5612 9.29979 18.6594C9.44624 18.7972 9.59539 18.9321 9.74715 19.064C10.0647 19.342 10.3878 19.6134 10.7165 19.8782C10.8327 19.9734 10.9508 20.0662 11.0709 20.1564C11.0767 20.1599 11.0834 20.1617 11.0902 20.1617C11.097 20.1617 11.1037 20.1599 11.1095 20.1564C11.5655 19.9009 12.0353 19.6685 12.4825 19.3969C12.6251 19.3106 12.7656 19.221 12.9041 19.1282Z" fill="black"/>
<path d="M11.8731 18.2356L11.2596 18.6662C11.2196 18.6943 11.2578 18.7607 11.2982 18.7323L11.9118 18.3017C11.9519 18.2737 11.9137 18.2072 11.8731 18.2356ZM11.6213 18.0703L10.9874 18.5023C10.9469 18.5299 10.9851 18.5962 11.0261 18.5684L11.6599 18.1364C11.7005 18.1088 11.6617 18.0424 11.6213 18.0703ZM11.0641 17.677L10.5912 18.0539C10.5525 18.0847 10.6071 18.1385 10.6453 18.1081L11.1182 17.7313C11.1567 17.7005 11.1023 17.6467 11.0641 17.677ZM10.7066 17.6025L10.3893 17.8185C10.3488 17.846 10.3871 17.9125 10.428 17.8846L10.7453 17.6686C10.7857 17.6411 10.7475 17.5748 10.7066 17.6025ZM13.0573 15.8602L12.8904 15.6781C12.8831 15.6711 12.8734 15.6673 12.8633 15.6673C12.8532 15.6673 12.8435 15.6711 12.8361 15.6781L12.6569 15.8236C12.6552 15.8253 12.6537 15.8272 12.6523 15.8291C12.6514 15.8301 12.6506 15.8312 12.6498 15.8323C12.6483 15.8343 12.647 15.8366 12.6461 15.839C12.6449 15.8418 12.6443 15.8449 12.6441 15.848V15.8504C12.6443 15.8545 12.6453 15.8586 12.6471 15.8624C12.648 15.8649 12.6491 15.8674 12.6506 15.8696C12.7042 15.9382 12.7721 15.9943 12.8497 16.0339C12.8824 16.0555 12.9199 16.069 12.9589 16.0732C12.9979 16.0774 13.0374 16.0721 13.074 16.0579C13.1683 16.0058 13.1107 15.9183 13.0573 15.8602ZM15.5864 19.552C15.5774 19.5125 15.5688 19.4731 15.5592 19.4337C15.4997 19.1746 15.4164 18.9215 15.3103 18.6777C15.2559 18.5577 15.1903 18.4437 15.1262 18.3286C15.0782 18.2417 15.0276 18.1561 14.9733 18.0729C14.9619 18.0554 14.9515 18.0369 14.9396 18.0201C14.9371 18.0164 14.9341 18.0128 14.9316 18.0091C14.787 17.8127 14.6322 17.6241 14.4679 17.4439C14.1091 17.0296 13.7353 16.6289 13.3465 16.2417C13.2951 16.1906 13.2435 16.1397 13.1917 16.0891C13.1565 16.0546 13.1023 16.1087 13.1376 16.1432C13.5317 16.5286 13.9113 16.928 14.2766 17.3413C14.4397 17.5258 14.5995 17.7133 14.7559 17.9036C14.7956 17.9516 14.8327 18.0021 14.868 18.0533C14.8824 18.0742 14.8953 18.0961 14.9091 18.1174C14.9953 18.2505 15.0722 18.3895 15.1491 18.5288C15.2758 18.7668 15.3734 19.0192 15.4398 19.2805C15.4646 19.3706 15.4867 19.4614 15.5076 19.5525C15.5135 19.5779 15.5196 19.6033 15.525 19.6287C15.5509 19.7472 15.5739 19.8661 15.594 19.9856C15.5969 20.0029 15.6002 20.0201 15.603 20.0373C15.6044 20.0462 15.6053 20.0551 15.6067 20.0638C15.624 20.1716 15.6392 20.2796 15.6523 20.3878C15.6555 20.4136 15.6589 20.4395 15.6619 20.4655C15.7065 20.8515 15.7291 21.2402 15.7383 21.6285C15.7509 22.1565 15.7383 22.6845 15.7202 23.2125C15.7179 23.2772 15.7155 23.3419 15.713 23.4064C15.7112 23.4557 15.7878 23.4556 15.7897 23.4064C15.8097 22.8763 15.8257 22.3457 15.8184 21.8152C15.814 21.3668 15.7872 20.9189 15.738 20.4731C15.735 20.4472 15.7317 20.4214 15.7286 20.3955C15.7208 20.332 15.7146 20.2684 15.7056 20.2051C15.6972 20.1456 15.6881 20.0863 15.6785 20.0271C15.6743 20.0017 15.6697 19.9763 15.6654 19.9509C15.6468 19.8429 15.6264 19.7341 15.6032 19.6269C15.5983 19.6022 15.5921 19.5771 15.5864 19.552ZM16.9584 15.6059C16.995 15.4865 17.0544 15.3752 17.1335 15.2785C17.1644 15.2407 17.1105 15.1861 17.0793 15.2243C16.9915 15.3309 16.9253 15.4537 16.8845 15.5857C16.8697 15.6328 16.9439 15.653 16.9584 15.6059ZM16.709 15.481C16.7484 15.3886 16.8057 15.3048 16.8777 15.2348C16.913 15.2001 16.8589 15.146 16.8236 15.1805C16.7427 15.2604 16.6786 15.3557 16.6351 15.4607C16.6161 15.5059 16.6897 15.5259 16.709 15.481ZM17.4147 14.2699C16.9054 14.3145 16.4013 14.4062 15.9089 14.5439C15.904 14.5453 15.8995 14.5476 15.8955 14.5506C15.8916 14.5537 15.8882 14.5576 15.8858 14.562C15.8833 14.5663 15.8817 14.5711 15.8811 14.5761C15.8805 14.5811 15.8808 14.5862 15.8822 14.591C15.8835 14.5959 15.8858 14.6004 15.8889 14.6044C15.892 14.6083 15.8958 14.6117 15.9002 14.6141C15.9046 14.6166 15.9094 14.6182 15.9144 14.6188C15.9194 14.6194 15.9244 14.6191 15.9293 14.6177C16.415 14.4816 16.9123 14.3908 17.4147 14.3465C17.4633 14.341 17.4638 14.2643 17.4147 14.2699ZM15.9023 14.4739C16.2288 14.3824 16.5613 14.3138 16.8974 14.2684C16.946 14.2609 16.9254 14.1871 16.877 14.1945C16.5409 14.2399 16.2084 14.3086 15.8819 14.4001C15.877 14.4014 15.8725 14.4037 15.8685 14.4068C15.8646 14.4099 15.8612 14.4137 15.8588 14.4181C15.8563 14.4224 15.8547 14.4273 15.8541 14.4323C15.8535 14.4372 15.8538 14.4423 15.8552 14.4472C15.8565 14.452 15.8588 14.4565 15.8619 14.4605C15.865 14.4645 15.8688 14.4678 15.8732 14.4703C15.8776 14.4727 15.8824 14.4743 15.8874 14.475C15.8924 14.4756 15.8974 14.4752 15.9023 14.4739Z" fill="black"/>
<path d="M16.6424 2.57236C16.7776 2.82751 16.866 3.10481 16.9034 3.39112C16.9798 3.93687 16.9538 4.49206 16.8267 5.02828C16.7406 5.40895 16.5944 5.7735 16.3938 6.10828C16.2082 6.39398 15.9835 6.65218 15.7261 6.87532C15.3516 7.22008 14.915 7.52968 14.4108 7.64332C14.291 7.67018 14.1689 7.68486 14.0462 7.68712C14.0361 7.68712 14.0263 7.69116 14.0191 7.69833C14.012 7.70551 14.0079 7.71525 14.0079 7.7254C14.0079 7.73556 14.012 7.74529 14.0191 7.75247C14.0263 7.75965 14.0361 7.76368 14.0462 7.76368C14.5728 7.75348 15.0535 7.51372 15.4634 7.19764C15.6713 7.03481 15.8672 6.85719 16.0496 6.66616C16.1536 6.56183 16.2499 6.45006 16.3376 6.33172C16.5439 6.03919 16.7033 5.71632 16.8102 5.37472C16.969 4.8697 17.0388 4.34091 17.0166 3.81196C17.0104 3.51472 16.9643 3.21966 16.8793 2.93476C16.7929 2.66749 16.6592 2.4179 16.4846 2.19784C16.4189 2.11397 16.3491 2.03328 16.2757 1.95604C16.2584 1.97536 16.2409 1.9942 16.2236 2.01352C16.3863 2.18133 16.527 2.36911 16.6424 2.57236ZM10.0751 3.02224C10.2746 2.59324 10.5536 2.20596 10.8974 1.88092C11.2411 1.55403 11.6419 1.29305 12.0799 1.111C12.5266 0.926145 13.0057 0.832312 13.4892 0.835003C13.9827 0.839476 14.4707 0.938418 14.927 1.12648C15.3851 1.31346 15.8017 1.58928 16.1527 1.93804C16.1586 1.94404 16.1647 1.95004 16.1701 1.95652C16.1874 1.9372 16.2051 1.91824 16.2224 1.89904C15.9541 1.6287 15.6464 1.40048 15.3098 1.22212C14.8629 0.984632 14.3748 0.834512 13.8717 0.779803C13.3767 0.725617 12.8758 0.771818 12.3991 0.915643C11.9373 1.0576 11.5058 1.28367 11.1263 1.58248C10.7431 1.88166 10.4197 2.25028 10.1729 2.66908C10.1131 2.77116 10.0584 2.87596 10.0088 2.98348C9.98829 3.028 10.0538 3.067 10.0751 3.02224Z" fill="#6DD3A8"/>
<path d="M15.4448 2.78353C15.0042 3.29785 14.5738 3.82065 14.1538 4.35193C13.9272 4.63841 13.7038 4.92729 13.4836 5.21857C13.0428 4.80323 12.6518 4.33802 12.3186 3.83233C12.2912 3.79165 12.2248 3.82993 12.2525 3.87097C12.5966 4.39476 13.0023 4.87539 13.4609 5.30257C13.4646 5.3061 13.469 5.30887 13.4738 5.31071C13.4785 5.31255 13.4836 5.31343 13.4888 5.3133C13.4939 5.31316 13.499 5.31202 13.5036 5.30993C13.5083 5.30784 13.5125 5.30485 13.5161 5.30113C13.5179 5.29917 13.5196 5.29704 13.521 5.29477C13.929 4.75501 14.3474 4.22341 14.7763 3.69997C15.2022 3.17997 15.6382 2.66889 16.0843 2.16673C16.1302 2.11501 16.1777 2.06461 16.2238 2.01301C16.241 1.99369 16.2586 1.97485 16.2758 1.95553C16.4659 1.74267 16.6577 1.53134 16.8511 1.32157C16.8846 1.28557 16.8305 1.23121 16.7969 1.26745C16.6034 1.47617 16.412 1.68669 16.2226 1.89901C16.2053 1.91833 16.1875 1.93717 16.1702 1.95649C15.9257 2.22937 15.6839 2.50505 15.4448 2.78353Z" fill="#6DD3A8"/>
<path d="M4.74 14.9688C4.73676 14.9199 4.66008 14.9195 4.66344 14.9688C4.70808 15.635 4.75944 16.3008 4.78728 16.968C4.79472 17.1488 4.80008 17.3295 4.80336 17.5103C4.80336 17.5205 4.80739 17.5302 4.81457 17.5374C4.82175 17.5446 4.83148 17.5486 4.84164 17.5486C4.85179 17.5486 4.86153 17.5446 4.86871 17.5374C4.87588 17.5302 4.87992 17.5205 4.87992 17.5103C4.86792 16.861 4.82556 16.2129 4.78092 15.5652C4.76716 15.3664 4.75352 15.1676 4.74 14.9688ZM10.7359 21.2402C10.7342 21.191 10.6576 21.1907 10.6592 21.2402C10.6798 21.8429 10.6727 22.4464 10.6961 23.0492C10.7022 23.2065 10.7108 23.3638 10.7232 23.5208C10.727 23.5695 10.8036 23.57 10.7998 23.5208C10.7542 22.9412 10.7585 22.359 10.7489 21.7782C10.746 21.5989 10.7417 21.4195 10.7359 21.2402ZM11.1522 21.2403C11.1522 21.2301 11.1482 21.2204 11.141 21.2132C11.1338 21.206 11.1241 21.202 11.1139 21.202C11.1038 21.202 11.094 21.206 11.0868 21.2132C11.0797 21.2204 11.0756 21.2301 11.0756 21.2403C11.0756 21.8422 11.1143 22.4434 11.117 23.0453C11.1181 23.2039 11.1155 23.3624 11.109 23.5209C11.107 23.5702 11.1835 23.5701 11.1857 23.5209C11.2109 22.9288 11.1754 22.3356 11.1598 21.7438C11.1551 21.576 11.1526 21.4081 11.1522 21.2403ZM10.2649 21.2399C10.263 21.1908 10.1864 21.1906 10.1884 21.2399C10.2124 21.8435 10.2287 22.4472 10.2492 23.051C10.2545 23.2075 10.2602 23.3642 10.2662 23.5209C10.2683 23.5701 10.3448 23.5703 10.3429 23.5209C10.3189 22.9174 10.3026 22.3136 10.2821 21.7098C10.2766 21.5532 10.2709 21.3966 10.2649 21.2399ZM21.3946 14.7851C21.3946 14.5636 21.3938 14.3418 21.3854 14.1204C21.3836 14.0714 21.3071 14.0711 21.3089 14.1204C21.3248 14.5452 21.3184 14.971 21.3133 15.3959C21.3076 15.8792 21.2984 16.3624 21.2977 16.8456C21.2977 17.0673 21.2986 17.2889 21.3068 17.5103C21.3088 17.5594 21.3853 17.5596 21.3835 17.5103C21.3674 17.0855 21.374 16.6598 21.379 16.2348C21.3847 15.7516 21.3937 15.2684 21.3946 14.7851ZM21.0115 14.1204C21.011 14.1106 21.0067 14.1014 20.9996 14.0947C20.9924 14.0879 20.983 14.0842 20.9732 14.0842C20.9634 14.0842 20.9539 14.0879 20.9468 14.0947C20.9397 14.1014 20.9354 14.1106 20.9348 14.1204C20.9449 14.5404 20.9449 14.9604 20.9455 15.3796C20.9462 15.8818 20.9449 16.384 20.9414 16.8864C20.9401 17.0944 20.9379 17.3024 20.9348 17.5104C20.9354 17.5202 20.9397 17.5294 20.9468 17.5362C20.9539 17.5429 20.9634 17.5467 20.9732 17.5467C20.983 17.5467 20.9924 17.5429 20.9996 17.5362C21.0067 17.5294 21.011 17.5202 21.0115 17.5104C21.0181 17.0904 21.0198 16.6704 21.0212 16.2513C21.0229 15.749 21.0224 15.2467 21.0197 14.7444C21.0187 14.5364 21.016 14.3284 21.0115 14.1204ZM10.1754 13.6938H10.3668C10.3766 13.6933 10.3858 13.689 10.3926 13.6819C10.3993 13.6747 10.4031 13.6653 10.4031 13.6555C10.4031 13.6457 10.3993 13.6362 10.3926 13.6291C10.3858 13.622 10.3766 13.6177 10.3668 13.6172H10.1754C10.1656 13.6177 10.1564 13.622 10.1496 13.6291C10.1429 13.6362 10.1391 13.6457 10.1391 13.6555C10.1391 13.6653 10.1429 13.6747 10.1496 13.6819C10.1564 13.689 10.1656 13.6933 10.1754 13.6938ZM10.472 13.1624C10.5256 13.1898 10.5836 13.2076 10.6434 13.2148C10.6922 13.221 10.6914 13.1444 10.6434 13.1382C10.5973 13.132 10.5526 13.1178 10.5114 13.0962C10.467 13.0737 10.4282 13.1398 10.472 13.1624ZM13.9777 10.9114C13.9681 10.8634 13.8943 10.8836 13.9039 10.9318C13.9176 11.0002 13.936 11.0676 13.9591 11.1334C13.9752 11.1796 14.0492 11.1597 14.0329 11.113C14.0099 11.0472 13.9914 10.9798 13.9777 10.9114ZM14.572 11.1456L14.5393 10.9223C14.5321 10.8743 14.4583 10.8944 14.4654 10.9427L14.4982 11.166C14.5057 11.2145 14.579 11.1939 14.572 11.1456ZM9.12444 10.5842C9.15999 10.952 9.2563 11.3114 9.40944 11.6477L9.41292 11.6558L9.41652 11.6639C9.435 11.704 9.48936 11.6769 9.48588 11.6388C9.4856 11.6342 9.4845 11.6296 9.48264 11.6253C9.46992 11.5976 9.45864 11.5696 9.44664 11.5413C9.31634 11.2366 9.23366 10.9136 9.20148 10.5838C9.19632 10.5354 9.11964 10.535 9.12444 10.5842ZM12.0956 9.36483C12.0547 9.33711 12.0163 9.40347 12.057 9.43095C12.256 9.56583 12.4582 9.69567 12.6577 9.82983C12.6761 9.84183 12.6947 9.85383 12.7129 9.86655C12.7538 9.89415 12.7922 9.82791 12.7516 9.80031C12.5344 9.65283 12.313 9.51195 12.0956 9.36483ZM7.99056 12.296C7.93899 12.2604 7.90207 12.2073 7.88663 12.1466C7.87118 12.0859 7.87826 12.0216 7.90656 11.9657C7.92972 11.9223 7.8636 11.8835 7.84044 11.9271C7.80236 12.0006 7.79267 12.0856 7.81323 12.1658C7.83379 12.2461 7.88316 12.3159 7.95192 12.3621C7.9932 12.3892 8.0316 12.3228 7.99056 12.296ZM14.004 8.91063C14.0071 8.95959 14.0838 8.95983 14.0806 8.91063C14.0743 8.79741 14.0245 8.69098 13.9417 8.61351C13.9057 8.57991 13.8514 8.63403 13.8876 8.66763C13.9563 8.73061 13.998 8.81766 14.004 8.91063ZM15.8948 10.8639C16.0532 10.5415 16.2367 10.2321 16.4435 9.93843C16.4719 9.89799 16.4056 9.85971 16.3774 9.89979C16.1705 10.1934 15.9871 10.5028 15.8287 10.8252C15.8071 10.8693 15.8737 10.9082 15.8948 10.8639ZM16.1958 11.0278L16.8734 10.4495C16.911 10.4174 16.8565 10.3635 16.8192 10.3953L16.1417 10.9736C16.1041 11.0058 16.1585 11.0596 16.1958 11.0278ZM15.5958 9.91083C15.592 10.164 15.5728 10.4167 15.5384 10.6676C15.5318 10.7156 15.6056 10.7366 15.6124 10.6878C15.6481 10.4303 15.6682 10.1708 15.6724 9.91083C15.6724 9.90068 15.6683 9.89094 15.6611 9.88376C15.654 9.87658 15.6442 9.87255 15.6341 9.87255C15.6239 9.87255 15.6142 9.87658 15.607 9.88376C15.5998 9.89094 15.5958 9.90068 15.5958 9.91083ZM11.9809 6.27303C11.9279 5.82159 11.8811 5.36871 11.8069 4.92015C11.7785 4.72567 11.7358 4.53355 11.6791 4.34535C11.6495 4.23162 11.5997 4.12414 11.532 4.02807C11.4904 3.97587 11.4395 3.93184 11.3819 3.89823C11.3481 3.87877 11.3127 3.86223 11.2762 3.84879C11.2553 3.84112 11.2342 3.83424 11.2129 3.82815C11.194 3.8218 11.1766 3.81144 11.162 3.79779C10.8847 3.58186 10.5541 3.44502 10.2053 3.40179C9.85481 3.35539 9.49834 3.39239 9.16488 3.50979C9.03897 3.55444 8.91693 3.6093 8.79996 3.67383C8.70683 3.56694 8.61997 3.45475 8.5398 3.33783C8.51232 3.29727 8.44596 3.33555 8.47368 3.37647C8.55374 3.49356 8.64032 3.60605 8.733 3.71343C8.71836 3.72207 8.70348 3.73011 8.68896 3.73899C8.6524 3.72575 8.61519 3.71438 8.57748 3.70491C8.47323 3.69404 8.37588 3.64769 8.30172 3.57363C8.27304 3.53415 8.20656 3.57231 8.2356 3.61227C8.30462 3.69368 8.40038 3.74784 8.50572 3.76503C8.5392 3.77367 8.574 3.78171 8.6082 3.79131C8.48813 3.8713 8.37436 3.96036 8.26788 4.05771C7.70088 4.57659 7.36284 5.29059 7.19724 6.03243C7.10835 6.44155 7.05896 6.85827 7.04976 7.27683C7.03886 7.59126 7.06114 7.90596 7.11624 8.21571C7.1892 8.60871 7.27164 9.00027 7.35624 9.39087C7.37052 9.33963 7.38528 9.28851 7.40088 9.23775C7.50754 8.88795 7.64629 8.54875 7.81536 8.22447C8.03783 7.78957 8.32107 7.38855 8.65656 7.03347C8.78566 6.89919 8.92557 6.77574 9.07488 6.66435C9.07488 6.66087 9.07404 6.65715 9.0738 6.65367C9.05846 6.47934 9.05722 6.30405 9.07008 6.12951C8.97181 6.19188 8.86134 6.23251 8.74608 6.24867C8.67453 6.25234 8.60352 6.23458 8.54212 6.19766C8.48073 6.16074 8.43174 6.10635 8.40144 6.04143C8.37661 5.97495 8.36666 5.90383 8.3723 5.83309C8.37794 5.76234 8.39903 5.6937 8.43408 5.63199C8.46132 5.57304 8.50287 5.52183 8.55495 5.48304C8.60703 5.44424 8.66799 5.41909 8.73228 5.40987C8.8368 5.42058 8.93302 5.47164 9.00048 5.55219C9.07894 5.39884 9.16866 5.25151 9.26892 5.11143C9.66156 4.56639 10.2529 4.14519 10.9412 4.11159C10.9469 4.11107 10.9526 4.11204 10.9577 4.1144C10.9629 4.11676 10.9673 4.12042 10.9706 4.12503C11.2151 4.35163 11.3961 4.63812 11.4958 4.95615C11.5415 5.09337 11.5626 5.23759 11.5582 5.38215C11.5483 5.52353 11.5117 5.66175 11.4502 5.78943C11.3393 6.02753 11.1612 6.22802 10.9379 6.36627L10.932 6.40983C10.9228 6.47492 10.9121 6.53978 10.8998 6.60435L11.0753 6.66435C11.202 6.70763 11.3286 6.75111 11.4552 6.79479C11.6371 6.85807 11.8182 6.92391 11.9984 6.99231C12.0248 7.00223 12.0511 7.01231 12.0773 7.02255C12.0362 6.77379 12.0097 6.52167 11.9809 6.27303ZM5.10408 10.0907C5.39382 10.2498 5.70273 10.3711 6.02328 10.4517C6.03287 10.4538 6.0429 10.4521 6.0513 10.447C6.0597 10.4419 6.06584 10.4338 6.06845 10.4244C6.07107 10.4149 6.06995 10.4048 6.06535 10.3961C6.06074 10.3875 6.05298 10.3809 6.04368 10.3778C5.72946 10.2991 5.42666 10.1803 5.14272 10.0245C5.0994 10.0008 5.06076 10.067 5.10408 10.0907ZM5.01576 10.7789H5.84556C5.85571 10.7789 5.86545 10.7749 5.87263 10.7677C5.8798 10.7605 5.88384 10.7508 5.88384 10.7406C5.88384 10.7305 5.8798 10.7207 5.87263 10.7136C5.86545 10.7064 5.85571 10.7024 5.84556 10.7024H5.01576C5.0056 10.7024 4.99587 10.7064 4.98869 10.7136C4.98151 10.7207 4.97748 10.7305 4.97748 10.7406C4.97748 10.7508 4.98151 10.7605 4.98869 10.7677C4.99587 10.7749 5.0056 10.7789 5.01576 10.7789ZM5.53896 9.37503C5.71431 9.64596 5.90373 9.90751 6.10644 10.1586C6.1374 10.197 6.19128 10.1426 6.16056 10.1045C5.96219 9.85833 5.77678 9.60198 5.60508 9.33651C5.57844 9.29511 5.51208 9.33339 5.53896 9.37503Z" fill="black"/>
</g>
<defs>
<clipPath id="clip0_19_211">
<rect width="24" height="24" fill="white" transform="translate(0.861816 0.157837)"/>
</clipPath>
</defs>
</svg>
