<svg width="25" height="25" viewBox="0 0 25 25" fill="none" xmlns="http://www.w3.org/2000/svg">
<g clip-path="url(#clip0_80_68)">
<path d="M19.2269 14.074C19.3231 14.0689 19.416 14.0372 19.4953 13.9824C19.5745 13.9276 19.637 13.8519 19.6757 13.7637C19.7087 13.6515 19.5899 13.6119 19.5502 13.7373C19.517 13.8059 19.4669 13.865 19.4046 13.9089C19.3422 13.9528 19.2697 13.9801 19.1939 13.9882C19.1675 13.9948 19.1147 14.0761 19.2269 14.074Z" fill="#191919"/>
<path d="M19.4248 13.1233C19.3859 12.9779 19.1871 13.1101 19.306 13.2487C19.339 13.2883 19.4652 13.2749 19.4248 13.1233Z" fill="#191919"/>
<path d="M19.1411 12.5098C19.0486 12.5358 19.0487 12.6418 19.1674 12.6418C19.3001 12.632 19.4333 12.6525 19.5569 12.7018C19.5654 12.7046 19.5746 12.7045 19.583 12.7014C19.5915 12.6983 19.5986 12.6924 19.6032 12.6846C19.6078 12.6769 19.6096 12.6679 19.6084 12.659C19.6071 12.6501 19.6029 12.6419 19.5964 12.6358C19.534 12.5832 19.4611 12.5447 19.3825 12.5229C19.3039 12.5012 19.2216 12.4967 19.1411 12.5098Z" fill="#191919"/>
<path d="M18.7847 12.8389C18.6965 12.789 18.5926 12.7749 18.4943 12.7993C18.4343 12.8191 18.4415 12.8851 18.5009 12.8917C18.5784 12.8944 18.6547 12.9123 18.7253 12.9445C18.8043 12.978 18.8238 12.8728 18.7847 12.8389Z" fill="#191919"/>
<path d="M18.8904 13.2951C18.8717 13.4419 18.8695 13.5902 18.8838 13.7375C18.9104 13.9091 19.2996 13.7837 19.2404 13.6913C19.2074 13.6385 19.0754 13.7513 18.9894 13.7111C18.9665 13.5737 18.9577 13.4343 18.9632 13.2951C18.9632 13.2855 18.9593 13.2763 18.9525 13.2694C18.9457 13.2626 18.9364 13.2588 18.9268 13.2588C18.9172 13.2588 18.9079 13.2626 18.9011 13.2694C18.8943 13.2763 18.8904 13.2855 18.8904 13.2951Z" fill="#191919"/>
<path d="M18.7582 13.3414C18.8569 13.2814 18.7649 13.0774 18.6791 13.1434C18.613 13.183 18.639 13.4135 18.7582 13.3414Z" fill="#191919"/>
<path d="M18.0917 13.8757C18.1841 14.1793 18.4085 14.5753 18.6659 14.7601C18.7847 14.8459 18.8441 14.7601 18.7259 14.6479C18.4721 14.4341 18.2806 14.1559 18.1715 13.8426C18.1671 13.832 18.1587 13.8236 18.1481 13.8192C18.1375 13.8148 18.1256 13.8148 18.115 13.8192C18.1044 13.8236 18.096 13.832 18.0917 13.8426C18.0873 13.8532 18.0873 13.8651 18.0917 13.8757Z" fill="#191919"/>
<path d="M20.2369 14.1926C20.2692 14.1653 20.2435 14.1134 20.2039 14.1326C19.8343 14.291 19.5769 14.8652 19.7551 15.2745C19.7815 15.3273 19.8541 15.3075 19.8409 15.248C19.7419 14.7404 19.8723 14.5 20.2369 14.1926Z" fill="#191919"/>
<path d="M18.0325 14.3182C18.0843 14.4832 18.1689 14.636 18.2812 14.7675C18.3934 14.8991 18.5311 15.0066 18.6859 15.0838C18.7717 15.1234 18.8575 15.0574 18.7255 14.9716C18.4539 14.8159 18.2389 14.5778 18.1117 14.2918C18.0787 14.239 18.0179 14.2591 18.0325 14.3182Z" fill="#191919"/>
<path d="M18.316 13.8627C18.4645 14.1697 18.7137 14.4167 19.0222 14.5623C19.4512 14.7537 19.5371 14.4567 19.9067 14.2125C19.9463 14.1861 19.9264 14.1333 19.8802 14.1465C19.5502 14.2257 19.5172 14.6613 19.0552 14.4369C18.7857 14.2871 18.5586 14.0714 18.3952 13.8099C18.3875 13.8011 18.3769 13.7954 18.3654 13.7939C18.3538 13.7923 18.3421 13.7951 18.3324 13.8015C18.3227 13.808 18.3157 13.8177 18.3127 13.829C18.3097 13.8403 18.3108 13.8522 18.316 13.8627Z" fill="#191919"/>
<path d="M18.89 15.5991C18.9232 15.6518 19.009 15.6057 18.9824 15.5529C18.857 15.2162 18.3554 15.1436 18.1772 14.8466C18.1442 14.7938 18.0848 14.8466 18.1052 14.8994C18.2894 15.2487 18.6662 15.2417 18.89 15.5991Z" fill="#191919"/>
<path d="M18.2697 12.833C18.2939 13.1566 18.3582 13.4758 18.4611 13.7835C18.4743 13.8297 18.5601 13.8099 18.5469 13.7571C18.4077 13.3112 18.3518 12.8434 18.3819 12.3771C18.4286 12.3941 18.4783 12.4012 18.5279 12.3979C18.5775 12.3947 18.6258 12.3811 18.6699 12.3582C18.714 12.3352 18.7528 12.3033 18.7839 12.2645C18.815 12.2258 18.8376 12.181 18.8505 12.1329C19.0288 12.3969 19.5568 12.3705 19.7218 12.1329C19.6756 12.4959 20.098 13.1361 20.1838 13.0173C20.2234 12.9573 20.263 12.8919 20.3356 12.8721C20.6062 12.7863 20.6524 13.3011 20.4874 13.3737C20.4154 13.4067 20.2696 13.3137 20.3554 13.5453C20.4693 13.8477 20.5663 14.1562 20.6458 14.4693C20.659 14.5287 20.7316 14.5023 20.7316 14.4429C20.6735 14.1228 20.5851 13.809 20.4676 13.5056C20.529 13.4978 20.5859 13.4694 20.629 13.425C20.6722 13.3807 20.699 13.323 20.7052 13.2614C20.7824 13.2334 20.8513 13.1864 20.9058 13.1249C20.9602 13.0634 20.9983 12.9892 21.0167 12.9091C21.0351 12.8291 21.0331 12.7457 21.011 12.6666C20.9889 12.5875 20.9473 12.5152 20.8901 12.4562C21.2465 12.0998 21.1805 11.5123 20.6326 11.5189C20.6666 11.4108 20.6671 11.295 20.634 11.1866C20.6009 11.0782 20.5358 10.9824 20.4473 10.9117C20.3587 10.841 20.2508 10.7988 20.1378 10.7905C20.0248 10.7823 19.912 10.8084 19.8141 10.8655C19.6161 10.3309 18.8043 10.4893 18.7845 10.9645C18.2697 10.5421 17.603 11.2021 17.999 11.7103C17.5503 11.7175 17.5107 12.7868 18.2697 12.833Z" fill="#191919"/>
<path d="M19.1743 15.9683C19.2138 16.0125 19.2659 16.0436 19.3236 16.0574C19.3813 16.0713 19.4418 16.0671 19.4971 16.0456C19.5524 16.0241 19.5997 15.9861 19.6329 15.9369C19.666 15.8877 19.6833 15.8296 19.6825 15.7703C19.7917 15.7276 19.8976 15.6768 19.9993 15.6185C19.9845 15.5288 19.9508 15.4433 19.9003 15.3677C19.7975 15.3943 19.698 15.4319 19.6033 15.4799C19.5651 15.4326 19.5129 15.3987 19.4542 15.3831C19.3955 15.3674 19.3333 15.3709 19.2767 15.393C19.2201 15.415 19.172 15.4545 19.1393 15.5057C19.1066 15.557 19.0911 15.6172 19.095 15.6779C19.029 15.7175 18.9564 15.7637 18.93 15.7835C18.9267 15.8747 18.9519 15.9646 19.002 16.0409C19.0554 16.0211 19.1209 15.9952 19.1743 15.9683ZM19.2336 15.6779C19.2545 15.4469 19.5576 15.4733 19.5307 15.7637C19.5109 16.0013 19.2086 15.9552 19.2336 15.6779Z" fill="#191919"/>
<path d="M17.7288 18.1991C17.709 17.8691 17.6958 17.0902 17.7816 16.7998C17.7948 16.747 17.8608 16.7338 17.8536 16.846C17.8314 17.2947 17.8358 17.7443 17.8668 18.1925C18.3652 18.1764 18.8641 18.2007 19.3586 18.2651C19.1472 17.7107 18.8502 15.988 18.8172 15.7636C18.7842 15.5392 18.3354 15.3873 18.0972 15.1562C17.5428 15.3542 16.7705 15.9748 16.1699 16.8196C16.3909 17.3012 16.5719 17.8001 16.7111 18.3113C17.048 18.255 17.3878 18.2176 17.7288 18.1991Z" fill="#191919"/>
<path d="M20.8376 14.5887C20.567 14.8725 20.336 15.0111 19.9268 15.0177C20.0126 15.6057 20.5275 16.4633 20.9763 17.0904C21.0464 16.9412 21.0974 16.7837 21.128 16.6217C21.1413 16.5293 21.2 16.5623 21.2 16.6151C21.1892 16.8233 21.1446 17.0284 21.068 17.2224C21.6093 17.9616 22.316 18.6744 22.58 19.5721C22.877 19.1959 24.0387 17.1361 23.2335 15.7703C22.7584 14.9451 21.7221 14.5227 20.8376 14.5887Z" fill="#191919"/>
<path d="M21.8076 20.5553C22.2763 20.5619 22.494 20.5619 22.89 20.5619C23.0947 20.0537 23.3059 19.0571 23.3785 18.2319C22.956 19.5986 22.3158 20.2454 21.8076 20.5553Z" fill="#191919"/>
<path d="M20.0058 20.146C19.2607 20.2165 18.5232 20.3512 17.8013 20.5486C18.2303 20.542 19.7748 20.5288 20.316 20.542C20.1759 20.4434 20.068 20.3056 20.0058 20.146Z" fill="#191919"/>
<path d="M19.9006 19.9811C19.9799 19.9691 19.9666 19.8491 19.8874 19.8623C17.978 20.1303 17.6609 20.359 16.8445 20.4299C16.7323 20.4365 16.6405 20.5553 16.7917 20.5553C17.2802 20.5553 18.0854 20.3045 18.6134 20.2055C19.075 20.1131 19.4387 20.0525 19.9006 19.9811Z" fill="#191919"/>
<path d="M16.9497 18.3973C16.6591 18.4554 16.7319 18.5491 16.8375 18.5227C17.59 18.3643 18.6064 18.3973 19.3589 18.5227C19.4315 18.5359 19.4645 18.4237 19.3919 18.4105C18.646 18.2851 17.6949 18.2486 16.9497 18.3973Z" fill="#191919"/>
<path d="M21.5965 18.2255C21.6293 18.2523 21.6955 18.2123 21.6685 18.1655C21.0448 17.4234 20.4903 16.6259 20.0118 15.7828C19.9854 15.7366 19.9062 15.7828 19.926 15.829C20.1774 16.3311 21.1642 17.8731 21.5965 18.2255Z" fill="#191919"/>
<path d="M22.4151 19.6249C22.4415 19.5589 22.3551 19.5061 22.3227 19.5649C22.1247 19.9147 21.8871 20.2645 21.5043 20.4361C21.1149 20.6143 20.6858 20.5615 20.402 20.2249C19.7882 19.4989 19.3394 17.1889 19.1743 16.1393C19.1611 16.0733 19.0687 16.0997 19.0819 16.1657C19.2205 17.1689 19.6699 19.5319 20.3228 20.3041C20.8228 20.9001 21.8781 20.7527 22.4151 19.6249Z" fill="#191919"/>
<path d="M12.5736 16.9911C12.6198 16.965 12.5868 16.9119 12.534 16.9191C12.2964 16.9653 12.138 17.0313 12.0653 17.269C11.992 17.4856 11.9738 17.7169 12.0125 17.9422C12.0257 18.0022 12.1115 17.9884 12.1181 17.929C12.1247 17.6716 12.0851 17.6188 12.1709 17.335C12.2435 17.0704 12.3628 17.1111 12.5736 16.9911Z" fill="#191919"/>
<path d="M12.6596 15.9815C12.6524 16.1246 12.6568 16.2681 12.6728 16.4105C12.6794 16.4633 12.7718 16.4567 12.7784 16.4105C12.7814 16.2672 12.7748 16.1239 12.7586 15.9815C12.7519 15.9352 12.6607 15.9352 12.6596 15.9815Z" fill="#191919"/>
<path d="M13.1611 15.9287C13.3374 15.8327 13.6171 15.6449 13.7353 15.4138C13.7683 15.3478 13.7619 15.328 13.7155 15.2686C13.6572 15.2026 13.5882 15.1468 13.5115 15.1036C13.4325 15.064 13.4257 15.0904 13.3665 15.13C12.9769 15.4006 12.3825 15.3478 11.9736 15.1366C11.9406 15.1168 11.8482 15.1696 11.934 15.2158C12.4423 15.4733 12.99 15.5195 13.4587 15.1894C13.5343 15.2373 13.6031 15.295 13.6635 15.361C13.5071 15.5831 13.2955 15.7606 13.0495 15.8759C12.9571 15.7637 12.8647 15.6581 12.7723 15.5459C12.633 15.3912 12.5759 15.6696 12.3498 15.8957C12.1211 15.7827 11.9025 15.6502 11.6964 15.4997C11.7624 15.4336 11.8218 15.3677 11.8878 15.3016C11.9274 15.2686 11.8746 15.2026 11.8278 15.2296C11.7582 15.28 11.6941 15.3375 11.6364 15.4012C11.6128 15.4284 11.6009 15.4639 11.6033 15.4999C11.6058 15.5359 11.6225 15.5694 11.6496 15.5932C11.7552 15.6922 12.2898 16.0354 12.3757 15.9958C12.5209 15.9238 12.6001 15.7318 12.6991 15.613C12.7915 15.7054 12.9169 15.8902 12.9895 15.9628C13.0357 16.0145 13.1145 15.9541 13.1611 15.9287Z" fill="#191919"/>
<path d="M13.8606 13.275C13.8845 13.1734 13.8934 13.0689 13.8869 12.9648C13.8737 12.8526 13.7682 12.846 13.7747 12.9714C13.7879 13.1364 13.7286 13.3278 13.7484 13.3674C13.7946 13.4797 13.9596 13.2954 14.0387 13.4137C14.1509 13.5985 13.9067 13.9483 13.7549 13.8559C13.7154 13.8295 13.6829 13.8493 13.6559 13.9351C13.6155 14.0506 13.5624 14.1613 13.4975 14.2651C13.1411 14.7865 12.4217 14.9185 12.0257 14.4691C11.8861 14.2883 11.7952 14.0746 11.7617 13.8487C11.7606 13.8338 11.7557 13.8195 11.7475 13.8071C11.7392 13.7947 11.7279 13.7846 11.7145 13.778C11.7012 13.7713 11.6864 13.7682 11.6715 13.7691C11.6566 13.7699 11.6422 13.7746 11.6297 13.7827C11.4911 13.8883 11.3657 13.7299 11.3525 13.5319C11.3327 13.2612 11.4977 13.2414 11.6165 13.3338C11.6239 13.3397 11.633 13.3433 11.6425 13.3438C11.652 13.3444 11.6614 13.3419 11.6694 13.3368C11.6775 13.3317 11.6837 13.3242 11.6872 13.3153C11.6907 13.3065 11.6914 13.2968 11.6891 13.2876C11.6825 13.2276 11.6495 12.8916 11.6495 12.819C11.6429 12.753 11.5637 12.7794 11.5637 12.8388C11.5703 12.9576 11.5769 13.083 11.5901 13.1952C11.5537 13.1775 11.5135 13.169 11.4731 13.1704C11.4326 13.1717 11.3931 13.183 11.358 13.2031C11.3229 13.2232 11.2932 13.2515 11.2716 13.2857C11.2499 13.3199 11.2369 13.3588 11.2337 13.3992C11.1809 13.7557 11.4317 14.0329 11.6627 13.9009C11.7287 14.1913 11.8409 14.4883 12.0852 14.6665C12.0719 14.7853 12.0654 14.9041 12.0522 15.0229C12.0456 15.1285 12.1182 15.1417 12.1446 15.0889C12.1624 14.9686 12.1735 14.8474 12.1776 14.7259C12.3394 14.8102 12.5207 14.8497 12.7029 14.8404C12.8851 14.8311 13.0614 14.7734 13.2138 14.6731C13.2204 14.7919 13.2138 14.9173 13.227 15.0361C13.2271 15.0436 13.2288 15.051 13.232 15.0578C13.2352 15.0646 13.2398 15.0707 13.2454 15.0756C13.2511 15.0805 13.2578 15.0842 13.2649 15.0864C13.2721 15.0886 13.2797 15.0892 13.2871 15.0883C13.2946 15.0873 13.3018 15.0849 13.3082 15.081C13.3146 15.0771 13.3202 15.0719 13.3245 15.0657C13.3287 15.0595 13.3317 15.0525 13.3331 15.0452C13.3345 15.0378 13.3343 15.0302 13.3326 15.0229C13.3128 14.8249 13.326 14.6995 13.3194 14.6005C13.5192 14.442 13.6646 14.2251 13.7353 13.9801C13.7753 13.9896 13.8169 13.9898 13.857 13.9806C13.897 13.9715 13.9344 13.9532 13.9663 13.9273C14.2764 13.7173 14.2499 13.1562 13.8606 13.275Z" fill="#191919"/>
<path d="M12.2175 12.6944C12.1507 12.6931 12.0844 12.706 12.023 12.7322C11.9615 12.7583 11.9063 12.7972 11.861 12.8462C11.8214 12.8858 11.8478 12.9716 11.927 12.932C12.0123 12.8708 12.1128 12.8343 12.2175 12.8264C12.3363 12.8132 12.317 12.7015 12.2175 12.6944Z" fill="#191919"/>
<path d="M13.8211 16.8328C13.8025 16.6724 13.7422 16.5196 13.646 16.3899C13.5499 16.2602 13.4213 16.158 13.2733 16.0936C13.2013 16.0672 13.1941 16.1398 13.2469 16.1656C13.5835 16.3438 13.7155 16.687 13.7288 17.0501C13.7419 17.3471 13.6033 17.8091 13.9531 17.9741C14.0131 18.0005 14.0588 17.9021 13.9993 17.8751C13.7023 17.7371 13.8909 17.2821 13.8211 16.8328Z" fill="#191919"/>
<path d="M12.3032 16.2059C12.3355 16.1657 12.2966 16.1135 12.2504 16.1459C11.994 16.3654 11.8061 16.6541 11.7092 16.9775C11.663 17.1492 11.6762 17.3274 11.6366 17.4924C11.5904 17.6838 11.4254 17.7564 11.2736 17.862C11.2208 17.895 11.267 17.9874 11.3264 17.961C11.4744 17.9005 11.6008 17.7971 11.6894 17.664C11.828 17.4264 11.6894 17.1294 11.9732 16.6343C12.0723 16.4834 12.1827 16.3402 12.3032 16.2059Z" fill="#191919"/>
<path d="M11.9071 17.6381C11.9298 17.4341 11.9137 17.2221 12.0259 17.0373C12.0764 16.961 12.1426 16.8962 12.22 16.8473C12.2973 16.7984 12.3842 16.7664 12.4748 16.7535C12.554 16.7403 12.5468 16.6611 12.4748 16.6611C12.3702 16.6646 12.2678 16.6927 12.1761 16.7432C12.0843 16.7936 12.0058 16.865 11.9468 16.9515C11.833 17.1588 11.789 17.3972 11.8214 17.6315C11.8213 17.6777 11.9012 17.6909 11.9071 17.6381Z" fill="#191919"/>
<path d="M12.7126 17.5792C12.6886 17.7511 12.7258 20.3051 12.7324 20.4437C12.7324 20.5163 12.8512 20.5097 12.8512 20.4371C12.8512 19.7051 12.8182 18.3844 12.805 17.5858C12.7979 17.5458 12.7194 17.526 12.7126 17.5792Z" fill="#191919"/>
<path d="M13.4185 18.7929C13.3428 18.7644 13.2754 18.7175 13.2224 18.6564C13.1694 18.5953 13.1324 18.522 13.1149 18.4431C13.0423 18.0933 13.4053 17.7567 13.2205 17.3937C13.1881 17.3258 13.1346 17.2703 13.0678 17.2356C13.0011 17.201 12.9249 17.1891 12.8508 17.2017C12.8411 17.2017 12.8319 17.2055 12.8251 17.2123C12.8183 17.2191 12.8145 17.2283 12.8145 17.238C12.8145 17.2476 12.8183 17.2568 12.8251 17.2636C12.8319 17.2704 12.8411 17.2743 12.8508 17.2743C12.8936 17.2759 12.9356 17.2862 12.9743 17.3045C13.0131 17.3228 13.0477 17.3488 13.0761 17.3809C13.1045 17.413 13.1261 17.4505 13.1395 17.4912C13.153 17.5319 13.1581 17.5749 13.1545 17.6176C13.1545 17.809 13.0489 17.9872 13.0093 18.172C12.969 18.3173 12.9846 18.4724 13.053 18.6068C13.1214 18.7412 13.2377 18.8451 13.3789 18.898C13.4515 18.9315 13.4908 18.8202 13.4185 18.7929Z" fill="#191919"/>
<path d="M11.2204 18.0207C11.2134 17.9679 11.2204 17.7897 11.128 17.8167C11.047 17.8317 10.9675 17.8538 10.8904 17.8827C10.7848 17.9289 10.732 18.0477 10.8772 18.0081C10.9432 17.9883 11.0158 17.9685 11.0812 17.9481C11.1148 18.3759 11.2862 18.7811 11.5696 19.1033C11.1829 19.4336 10.765 19.7254 10.3216 19.9745C10.1962 20.0471 10.2292 20.1593 10.3348 20.0999C10.8145 19.8495 11.2603 19.539 11.6615 19.1759C11.6813 19.1561 11.7077 19.1297 11.6813 19.0901C11.4448 18.7203 11.2769 18.4501 11.2204 18.0207Z" fill="#191919"/>
<path d="M16.8377 19.4926C16.7646 18.7996 16.2701 17.4465 15.9929 16.8457C15.5704 15.9415 14.9038 15.6115 13.9666 15.4068C13.9543 15.4042 13.9415 15.4065 13.9309 15.4133C13.9204 15.4201 13.913 15.4309 13.9103 15.4431C13.9077 15.4554 13.91 15.4682 13.9168 15.4788C13.9237 15.4893 13.9344 15.4967 13.9466 15.4993C14.7586 15.7831 15.3592 15.8887 15.8015 16.7269C16.1183 17.3277 16.8179 19.1692 16.7189 19.8754C16.6397 20.4232 16.3493 20.3968 15.9665 20.4232C15.28 20.4694 14.1052 19.552 13.6166 19.1032C13.9466 18.8721 14.158 18.3441 14.2174 17.9745C14.7428 18.1187 15.2501 18.3224 15.7294 18.5817C15.7955 18.6147 15.8483 18.5289 15.7823 18.4959C15.4771 18.3247 15.1593 18.1768 14.8318 18.0537C14.8033 17.8962 14.7351 17.7485 14.6338 17.6247C14.581 17.5785 14.5546 17.6379 14.5744 17.6709C14.6388 17.7754 14.6877 17.8888 14.7196 18.0075C14.5632 17.9476 14.402 17.9012 14.2378 17.8689C14.1124 17.8491 14.1124 17.8689 14.0926 17.9745C13.8746 19.024 13.3796 18.9975 13.5182 19.1494C14.0068 19.6972 15.1816 20.5222 15.9473 20.5354C16.6661 20.5548 16.9164 20.2385 16.8377 19.4926Z" fill="#191919"/>
<path d="M13.4844 17.3941C13.4762 17.2976 13.4401 17.2057 13.3804 17.1294C13.3207 17.0532 13.2401 16.9961 13.1484 16.965C13.0354 16.9431 12.9202 16.9342 12.8052 16.9386C12.7523 16.9386 12.7523 17.0046 12.7986 17.0179C12.99 17.0707 13.1484 16.998 13.287 17.1961C13.4388 17.4073 13.353 17.6119 13.3794 17.7373C13.383 17.7472 13.3894 17.7558 13.3978 17.7621C13.4062 17.7684 13.4163 17.7721 13.4268 17.7728C13.4372 17.7735 13.4477 17.7712 13.4569 17.766C13.466 17.7609 13.4735 17.7532 13.4784 17.7439C13.5007 17.6285 13.5027 17.5102 13.4844 17.3941Z" fill="#191919"/>
<path d="M12.6332 17.163C12.5572 17.1872 12.4871 17.2274 12.4279 17.2809C12.3687 17.3344 12.3216 17.4 12.2899 17.4732C12.0127 18.054 12.7718 18.483 11.6761 18.8857C11.6627 18.8898 11.6513 18.8988 11.6444 18.911C11.6374 18.9232 11.6354 18.9376 11.6388 18.9512C11.6422 18.9648 11.6508 18.9765 11.6626 18.984C11.6745 18.9915 11.6888 18.9941 11.7025 18.9913C11.8773 18.9502 12.04 18.8688 12.1777 18.7536C12.7916 18.2388 11.9137 17.7438 12.6662 17.2356C12.7058 17.2026 12.6862 17.1505 12.6332 17.163Z" fill="#191919"/>
<path d="M12.0589 13.2816C12.1439 13.3553 12.2509 13.1232 12.1383 13.0638C12.0391 13.011 11.9989 13.2295 12.0589 13.2816Z" fill="#191919"/>
<path d="M13.392 16.9251C13.5621 17.0855 13.5504 17.3211 13.557 17.5391C13.557 17.5919 13.6362 17.5853 13.6494 17.5391C13.6824 17.3015 13.656 17.0175 13.4712 16.8393C13.2732 16.6545 12.9696 16.6281 12.7188 16.6677C12.7131 16.668 12.7075 16.6695 12.7024 16.672C12.6973 16.6746 12.6928 16.6783 12.6892 16.6827C12.6856 16.6871 12.683 16.6923 12.6815 16.6978C12.6801 16.7034 12.6798 16.7091 12.6807 16.7148C12.6817 16.7204 12.6838 16.7258 12.687 16.7306C12.6901 16.7353 12.6943 16.7394 12.6991 16.7424C12.704 16.7454 12.7094 16.7474 12.7151 16.7482C12.7208 16.749 12.7265 16.7486 12.732 16.7469C12.9564 16.7469 13.212 16.7555 13.392 16.9251Z" fill="#191919"/>
<path d="M11.1349 13.1167C11.1942 13.1696 11.2603 13.0771 11.2075 13.0243C10.8247 12.6415 10.8247 12.0606 11.0887 11.6118C11.8477 10.3049 14.1052 10.569 14.5738 11.9154C14.655 12.1306 14.6635 12.3666 14.5979 12.5871C14.5324 12.8076 14.3964 13.0006 14.2108 13.1365C14.1712 13.1695 14.2042 13.2421 14.257 13.2157C14.785 12.9517 14.8774 12.2587 14.6596 11.7637C14.0128 10.2918 11.4979 10.2126 10.8841 11.7637C10.6993 12.2191 10.7581 12.7807 11.1349 13.1167Z" fill="#191919"/>
<path d="M11.3394 12.7209C11.7415 12.7658 12.2371 12.4833 12.4351 12.1401C12.4412 12.1304 12.4433 12.1189 12.4411 12.1077C12.4389 12.0965 12.4326 12.0866 12.4234 12.0799C12.4142 12.0732 12.4028 12.0702 12.3915 12.0716C12.3802 12.073 12.3699 12.0786 12.3625 12.0873C12.0655 12.4503 11.7948 12.5691 11.3394 12.6219C11.3277 12.6238 11.317 12.6298 11.3093 12.6389C11.3016 12.648 11.2974 12.6595 11.2974 12.6714C11.2974 12.6833 11.3016 12.6948 11.3093 12.7039C11.317 12.7129 11.3277 12.719 11.3394 12.7209Z" fill="#191919"/>
<path d="M12.6067 13.7372C12.6531 13.7043 12.6529 13.658 12.6067 13.6382C12.5737 13.625 12.3955 13.6712 12.3823 13.6382C12.3559 13.5722 12.4549 13.2883 12.4747 13.1497C12.4879 13.0507 12.4417 13.0507 12.3955 13.1299C12.3493 13.2091 12.2035 13.6118 12.27 13.7306C12.3361 13.8296 12.541 13.7836 12.6067 13.7372Z" fill="#191919"/>
<path d="M9.9336 16.5026C10.3356 15.9411 10.7785 15.7106 11.4385 15.506C11.5045 15.4862 11.4847 15.3806 11.4187 15.4004C10.6597 15.6248 10.2702 15.836 9.8082 16.4762C9.7422 16.5554 9.86748 16.5949 9.9336 16.5026Z" fill="#191919"/>
<path d="M14.0328 12.7804C14.0424 12.7775 14.0508 12.7714 14.0564 12.7631C14.0621 12.7548 14.0648 12.7448 14.064 12.7348C14.0633 12.7248 14.0591 12.7153 14.0522 12.708C14.0453 12.7007 14.0361 12.696 14.0262 12.6946C13.6169 12.688 13.1219 12.6286 12.8117 12.3316C12.5213 12.0544 12.3761 11.5725 12.3557 11.1831C12.3491 11.1171 12.2501 11.1111 12.2567 11.1765C12.2633 11.5857 12.4487 12.1204 12.7451 12.4042C13.0415 12.688 13.6291 12.8423 14.0328 12.7804Z" fill="#191919"/>
<path d="M12.4286 14.1134C12.6426 14.2271 12.9104 14.1596 12.983 13.955C12.9962 13.9088 12.9434 13.8692 12.9104 13.9088C12.7184 14.1332 12.554 14.0408 12.4544 14.0474C12.4022 14.0408 12.3895 14.0927 12.4286 14.1134Z" fill="#191919"/>
<path d="M13.2798 12.9979C13.2299 12.8539 12.9498 12.6943 12.8178 12.7405C12.765 12.7603 12.7452 12.8659 12.8178 12.8791C12.9645 12.8982 13.1023 12.9602 13.2138 13.0573C13.2468 13.0837 13.2983 13.0512 13.2798 12.9979Z" fill="#191919"/>
<path d="M12.8576 13.3278C12.9833 13.3029 12.9764 13.0704 12.8774 13.0968C12.7849 13.1166 12.7521 13.3488 12.8576 13.3278Z" fill="#191919"/>
<path d="M16.5011 9.15645C16.5672 9.13701 16.6331 9.11685 16.6991 9.09645C16.6595 9.26145 16.6133 9.42645 16.5737 9.59145C16.5077 9.82905 16.6001 9.84885 16.6529 9.76305C16.8179 9.50565 16.9895 9.24165 17.1677 8.99085C17.412 8.64105 17.4713 8.67405 17.0225 8.68725C17.1017 8.53533 17.1809 8.38353 17.2535 8.23125C17.3261 8.07897 16.8377 8.25105 16.7915 8.29065C16.7822 8.29657 16.7754 8.30572 16.7725 8.31632C16.7696 8.32692 16.7707 8.33823 16.7756 8.34807C16.7805 8.35791 16.7889 8.36558 16.7992 8.3696C16.8094 8.37362 16.8208 8.37371 16.8311 8.36985C16.8839 8.35665 16.9961 8.30385 17.1215 8.27745L16.9037 8.71317C16.8905 8.74617 16.9037 8.78577 16.9433 8.78577C17.0291 8.78577 17.1215 8.77917 17.2073 8.77917C17.0423 9.01677 16.8773 9.26097 16.7123 9.49857L16.8509 9.02337C16.8544 9.01387 16.8552 9.0036 16.8532 8.99368C16.8513 8.98375 16.8467 8.97454 16.8399 8.96705C16.8331 8.95957 16.8243 8.95409 16.8146 8.95122C16.8049 8.94835 16.7946 8.94819 16.7849 8.95077C16.7189 8.97057 16.6463 8.99697 16.5809 9.01677C16.6205 8.82537 16.6733 8.63397 16.7195 8.43585C16.7327 8.38305 16.6535 8.36985 16.6337 8.41605C16.5569 8.6315 16.4951 8.85204 16.4489 9.07605C16.4285 9.11685 16.455 9.16989 16.5011 9.15645Z" fill="#191919"/>
<path d="M8.52771 14.1472C8.56083 14.1736 8.61363 14.1472 8.59383 14.1076C8.54751 13.9756 8.50791 13.8436 8.60703 13.705C8.64759 13.6506 8.70222 13.6083 8.76502 13.5827C8.82782 13.5571 8.89642 13.5491 8.96343 13.5596C8.97426 13.5596 8.98479 13.556 8.99342 13.5495C9.00205 13.5429 9.00833 13.5338 9.01131 13.5233C9.01428 13.5129 9.0138 13.5018 9.00992 13.4917C9.00605 13.4816 8.999 13.473 8.98983 13.4672C8.80503 13.3814 8.44191 13.5398 8.44191 13.8898C8.43675 13.9363 8.44176 13.9834 8.45657 14.0279C8.47138 14.0723 8.49565 14.113 8.52771 14.1472Z" fill="#191919"/>
<path d="M8.27671 14.9251C8.27738 14.9396 8.28358 14.9532 8.29402 14.9632C8.30447 14.9731 8.31836 14.9787 8.33281 14.9787C8.34725 14.9787 8.36114 14.9731 8.37159 14.9632C8.38204 14.9532 8.38824 14.9396 8.38891 14.9251C8.40317 14.8036 8.39421 14.6804 8.36251 14.5621C8.29651 14.3311 8.07871 14.2453 8.08531 14.0143C8.09191 13.8757 8.11831 13.7371 8.12491 13.6051C8.12477 13.5944 8.1206 13.584 8.11322 13.5761C8.10584 13.5683 8.09578 13.5635 8.08502 13.5626C8.07427 13.5618 8.06359 13.565 8.05509 13.5717C8.0466 13.5783 8.04089 13.5879 8.03911 13.5985C8.01271 13.7305 7.98631 13.8625 7.97311 13.9945C7.94671 14.2849 8.14471 14.3641 8.22391 14.5489C8.2772 14.6667 8.29553 14.7973 8.27671 14.9251Z" fill="#191919"/>
<path d="M8.34951 12.4633L8.44851 13.4335C8.45511 13.4731 8.52771 13.4731 8.53431 13.4269C8.56731 13.1827 8.48151 12.7009 8.42871 12.4429C8.42211 12.4039 8.34291 12.4171 8.34951 12.4633Z" fill="#191919"/>
<path d="M9.01626 14.2452C9.04194 14.2984 9.10866 14.2584 9.09546 14.2122C9.07566 14.1 9.02946 13.968 9.24726 13.968C9.42546 13.968 9.45126 14.1264 9.44526 14.2716C9.43206 14.5422 9.20106 14.7732 9.20106 15.0174C9.2013 15.0312 9.20653 15.0445 9.21579 15.0547C9.22504 15.0649 9.23769 15.0715 9.25139 15.0731C9.26509 15.0747 9.27892 15.0713 9.29029 15.0635C9.30167 15.0557 9.30983 15.044 9.31326 15.0306C9.37926 14.76 9.40566 14.7864 9.49806 14.562C9.57789 14.3948 9.58972 14.2032 9.53106 14.0274C9.39906 13.7304 8.80626 13.8122 9.01626 14.2452Z" fill="#191919"/>
<path d="M8.71926 13.9023C8.70651 14.0001 8.72499 14.0994 8.77206 14.1861C8.77742 14.1939 8.78536 14.1995 8.79448 14.202C8.8036 14.2046 8.81332 14.2038 8.82192 14.1998C8.83053 14.1959 8.83746 14.189 8.84151 14.1805C8.84556 14.1719 8.84646 14.1622 8.84406 14.1531C8.81766 14.0145 8.79126 13.8495 8.92326 13.7769C8.98135 13.7413 9.04742 13.7209 9.11544 13.7174C9.18345 13.714 9.25125 13.7276 9.31266 13.7571C9.35886 13.7835 9.39846 13.7109 9.36546 13.6779C9.25386 13.5393 8.75886 13.5921 8.71926 13.9023Z" fill="#191919"/>
<path d="M5.73573 12.7934C5.69613 12.8 5.65653 12.8066 5.62353 12.8132C5.56413 12.6284 5.38593 12.437 5.16813 12.5162C4.93713 12.602 4.93041 12.8528 4.94373 12.965C4.75173 12.9848 4.55421 13.0112 4.36281 13.031C4.35196 13.0335 4.34238 13.0399 4.33578 13.0489C4.32917 13.0578 4.32599 13.0689 4.32678 13.08C4.32757 13.0911 4.3323 13.1016 4.34011 13.1095C4.34792 13.1175 4.3583 13.1224 4.36941 13.1234C4.56741 13.1102 4.76541 13.097 4.96353 13.0904C5.07969 13.6843 5.75061 13.5231 5.65653 12.932C5.68953 12.9254 5.72253 12.9254 5.74893 12.9188C5.82225 13.4324 6.41937 13.4482 6.36273 12.8396C6.41553 12.8396 6.52773 12.8132 6.47493 12.734C6.44853 12.6944 6.38913 12.7208 6.34953 12.7274C6.24393 12.2918 5.75553 12.3446 5.73573 12.7934ZM5.04933 13.0178C5.02953 12.866 5.06253 12.7076 5.16153 12.6482C5.32653 12.5426 5.49153 12.7076 5.54433 12.9188C5.65353 13.4241 5.11341 13.5311 5.04933 13.0178ZM6.12513 13.1894C5.88273 13.2734 5.71989 12.7227 5.93373 12.5624C6.21777 12.34 6.40401 13.0923 6.12513 13.1894Z" fill="#191919"/>
<path d="M5.74888 13.5391C5.59708 13.5523 5.61028 13.6183 5.70928 13.6315C5.77528 13.6381 5.88088 13.6249 5.91328 13.5655C5.96608 13.4731 5.89348 13.3212 5.80108 13.2354C5.73508 13.1694 5.70208 13.2288 5.72908 13.2618C5.78884 13.3542 5.93368 13.5061 5.74888 13.5391Z" fill="#191919"/>
<path d="M6.23084 13.361C6.2246 13.295 6.15884 13.295 6.15884 13.361C6.17204 13.8099 6.12584 14.5293 5.48564 14.5821C5.23472 14.6019 4.96412 14.4831 4.74632 14.3577C4.70672 14.3313 4.65392 14.3973 4.70012 14.4303C4.91819 14.5873 5.17756 14.6768 5.44604 14.6877C5.45924 14.7933 5.48564 14.9055 5.49884 15.0111C5.53184 15.2157 5.61104 15.1167 5.59784 15.0507C5.58464 14.9253 5.56484 14.7999 5.54504 14.6811C6.16484 14.5821 6.27968 13.8757 6.23084 13.361Z" fill="#191919"/>
<path d="M5.32626 14.1331C5.36279 14.1505 5.40258 14.16 5.44305 14.1611C5.48352 14.1621 5.52374 14.1546 5.56111 14.139C5.59848 14.1234 5.63214 14.1002 5.65991 14.0707C5.68767 14.0412 5.70892 14.0063 5.72226 13.9681C5.76846 13.8691 5.74206 13.8493 5.65626 13.8493C5.57282 13.8555 5.48904 13.8427 5.41127 13.8119C5.3335 13.781 5.26376 13.7328 5.20734 13.6711C5.09862 13.5803 5.07198 14.0362 5.32626 14.1331ZM5.64306 13.9483C5.53746 14.1523 5.22054 14.0539 5.21406 13.8163C5.33924 13.905 5.48961 13.9513 5.64306 13.9483Z" fill="#191919"/>
<path d="M5.30683 12.9978C5.29303 13.0373 5.31331 13.143 5.37943 13.1298C5.43223 13.1232 5.43223 13.0506 5.41243 13.0044C5.38603 12.9384 5.33215 12.9249 5.30683 12.9978Z" fill="#191919"/>
<path d="M6.03938 12.8793C6.02522 12.9253 6.04598 13.0443 6.11138 13.0179C6.14438 13.0047 6.15759 12.9717 6.15099 12.9123C6.13839 12.8393 6.0641 12.7997 6.03938 12.8793Z" fill="#191919"/>
<path d="M4.8906 12.6083C4.99062 12.4931 5.12901 12.4181 5.28012 12.3971C5.29579 12.394 5.30979 12.3853 5.3196 12.3726C5.3294 12.36 5.33435 12.3443 5.33355 12.3283C5.33276 12.3123 5.32626 12.2972 5.31525 12.2856C5.30423 12.274 5.28943 12.2667 5.27352 12.2651C5.19715 12.2658 5.12179 12.2826 5.05238 12.3144C4.98297 12.3463 4.92109 12.3925 4.8708 12.4499C4.7256 12.6083 4.84992 12.6535 4.8906 12.6083Z" fill="#191919"/>
<path d="M3.13481 12.5226C3.12398 12.7274 3.1716 12.9311 3.27211 13.1099C3.37263 13.2887 3.52191 13.4352 3.70253 13.5324C3.73553 13.7238 3.86093 13.9483 4.09853 13.9483C4.16951 14.3011 4.21582 14.6583 4.23713 15.0175C4.23667 15.0238 4.23753 15.0302 4.23964 15.0362C4.24176 15.0422 4.24509 15.0477 4.24942 15.0524C4.25376 15.057 4.259 15.0608 4.26484 15.0633C4.27067 15.0658 4.27697 15.0672 4.28333 15.0672C4.28969 15.0672 4.29599 15.0658 4.30182 15.0633C4.30766 15.0608 4.31291 15.057 4.31724 15.0524C4.32158 15.0477 4.32491 15.0422 4.32702 15.0362C4.32913 15.0302 4.32999 15.0238 4.32953 15.0175C4.3227 14.6738 4.28515 14.3315 4.21733 13.9945C4.20413 13.9351 4.20413 13.8162 4.13813 13.8228C4.00613 13.836 3.87413 13.7238 3.83453 13.5126C3.78833 13.2882 3.91373 13.1034 4.09193 13.1886C4.11833 13.2018 4.13813 13.182 4.15133 13.1688C4.40873 12.918 4.73213 12.456 4.73213 11.9477C5.07533 12.0996 5.90045 12.159 6.27665 12.0335C6.25025 11.5319 5.76845 10.7597 4.69913 10.8653C3.50453 10.9847 3.14657 11.8955 3.13481 12.5226Z" fill="#191919"/>
<path d="M5.88106 12.3182C5.96495 12.2926 6.05456 12.2926 6.13846 12.3182C6.20446 12.338 6.19786 12.272 6.14506 12.2258C6.09979 12.2019 6.05021 12.1872 5.99922 12.1827C5.94822 12.1781 5.89683 12.1838 5.84806 12.1994C5.74906 12.2456 5.78302 12.3601 5.88106 12.3182Z" fill="#191919"/>
<path d="M3.35945 11.4138C3.43393 11.2499 3.56528 11.1186 3.72917 11.0442C3.59057 10.0145 2.15165 9.89566 1.70885 10.919C1.26605 11.9424 2.15777 12.431 2.34257 12.8067C2.52077 13.1829 2.62637 13.7639 2.50757 13.9947C2.38877 14.2191 2.53397 14.2323 2.69897 13.9227C2.83097 13.6719 3.06857 12.9387 2.87717 12.332C2.67305 11.7042 3.18125 11.3676 3.35945 11.4138Z" fill="#191919"/>
<path d="M10.1644 16.6609C9.32619 16.6482 7.94007 16.6147 7.18107 16.6807C6.58695 16.7335 6.44175 16.9183 6.30315 17.4333C6.10515 18.1857 5.78835 19.4464 5.68275 20.1658C4.88519 20.154 4.08758 20.1848 3.29331 20.2582C2.99631 20.2978 2.97651 20.5156 3.06891 20.608C3.11511 20.6542 3.17451 20.5882 3.14091 20.542C3.13437 20.5303 3.13021 20.5174 3.12866 20.5041C3.12711 20.4908 3.12821 20.4773 3.13189 20.4645C3.13557 20.4516 3.14176 20.4395 3.15011 20.4291C3.15845 20.4186 3.16878 20.4099 3.18051 20.4034C3.34551 20.2912 5.34555 20.2714 5.62935 20.2714C5.73495 20.2714 5.76795 20.2582 5.79435 20.146C5.99235 19.2154 6.25035 18.1461 6.48735 17.2683C6.55935 16.9843 6.77775 16.8325 7.12767 16.8061C8.01207 16.7335 9.25959 16.7731 10.1968 16.7863C10.5269 16.7929 10.7248 16.9249 10.6985 17.2947C10.6655 17.7897 10.2298 19.3078 10.0714 19.8688C10.0212 20.0888 9.94358 20.3017 9.84039 20.5024C9.80079 20.5684 9.89979 20.6411 9.93939 20.5744C10.058 20.3264 10.153 20.0679 10.2232 19.8022C10.4344 19.063 10.7315 17.9937 10.8239 17.3403C10.8647 16.8919 10.6133 16.6678 10.1644 16.6609Z" fill="#191919"/>
<path d="M8.36253 18.2451C8.33577 18.2844 8.38233 18.3441 8.42853 18.3111C8.47491 18.2733 8.53262 18.2521 8.59245 18.2509C8.65228 18.2497 8.71078 18.2685 8.75865 18.3045C8.84445 18.3837 8.86425 18.5487 8.70585 18.8325C8.50773 19.1956 8.23713 19.2484 8.11785 19.1032C7.97265 18.925 8.11125 18.5619 8.24985 18.4167C8.28285 18.3771 8.22345 18.3177 8.18985 18.3507C7.89945 18.6147 7.84665 19.0042 8.01165 19.1824C8.27565 19.4728 8.65857 19.2352 8.80365 18.925C8.88945 18.7401 9.02145 18.4893 8.90265 18.2979C8.87809 18.2497 8.84181 18.2085 8.79714 18.178C8.75247 18.1476 8.70085 18.1289 8.64704 18.1236C8.59323 18.1183 8.53897 18.1267 8.48925 18.1479C8.43952 18.1692 8.39594 18.2026 8.36253 18.2451Z" fill="#191919"/>
<path d="M9.15481 10.1335C9.30733 10.0356 9.10861 9.77702 8.95081 9.93542C8.81821 10.0609 9.03001 10.2136 9.15481 10.1335Z" fill="#191919"/>
<path d="M7.54411 10.2454C7.71619 10.3101 7.84771 10.12 7.74211 10.021C7.59691 9.8824 7.34671 10.1712 7.54411 10.2454Z" fill="#191919"/>
<path d="M8.27661 10.206C8.50773 10.278 8.59341 9.98156 8.36901 9.92876C8.22381 9.89576 8.08533 10.1462 8.27661 10.206Z" fill="#191919"/>
<path d="M17.042 11.3806C17.0097 11.3143 16.9299 11.3344 16.9364 11.3938C16.9629 11.5978 17.372 11.6314 17.4909 11.407C17.702 10.9978 17.0349 10.879 16.9497 11.143C16.9167 11.242 17.0024 11.2354 17.0487 11.1628C17.108 11.0638 17.4974 11.1028 17.3919 11.341C17.3457 11.4598 17.0961 11.4922 17.042 11.3806Z" fill="#38A1FF"/>
<path d="M15.9133 10.0015C15.9067 10.3645 16.2895 10.4965 16.5799 10.5559C17.6427 10.7737 18.1245 10.2061 17.9925 9.81001C17.9918 9.80468 17.9899 9.79957 17.987 9.79501C17.9842 9.79045 17.9804 9.78656 17.9759 9.78359C17.9714 9.78063 17.9664 9.77865 17.9611 9.77781C17.9557 9.77696 17.9503 9.77726 17.9451 9.77868C17.9399 9.78011 17.9351 9.78263 17.931 9.78607C17.9269 9.78952 17.9235 9.7938 17.9212 9.79865C17.9188 9.80349 17.9176 9.80878 17.9174 9.81415C17.9173 9.81953 17.9184 9.82487 17.9205 9.82981C17.9601 10.3117 17.3989 10.4898 17.0095 10.4965C16.7059 10.5031 15.8677 10.3447 16.0459 9.88261C16.0789 9.80341 16.0195 9.75721 15.9739 9.80341C15.7033 10.0873 15.294 10.0081 15.096 9.66481C14.8848 9.29521 14.997 8.77381 15.459 8.83321C15.4731 8.83402 15.4869 8.82965 15.4979 8.82093C15.5089 8.81221 15.5164 8.79975 15.5188 8.78591C15.5213 8.77208 15.5185 8.75782 15.5112 8.74586C15.5038 8.7339 15.4923 8.72505 15.4788 8.72101C15.0894 8.56261 15.0228 7.95529 15.492 7.67149C15.9409 7.40089 16.3171 7.55269 16.6207 7.90909C16.6735 7.97509 16.7395 7.96189 16.7461 7.82989C16.7791 7.48669 17.2147 7.28869 17.5251 7.36789C17.6074 7.39458 17.6836 7.43738 17.7492 7.49381C17.8148 7.55024 17.8685 7.61917 17.9072 7.69657C17.9459 7.77397 17.9688 7.8583 17.9746 7.94465C17.9804 8.03099 17.9689 8.11762 17.9409 8.19949C17.9211 8.25949 17.9805 8.27881 18.0267 8.26561C18.4359 8.15989 18.8715 8.60881 18.9111 8.99821C18.9771 9.63181 18.4095 9.65161 18.0663 9.57901C18.0003 9.56581 18.0135 9.63901 18.0663 9.65821C18.5613 9.82321 19.0761 9.59221 19.0167 8.99821C18.9771 8.56261 18.5217 8.08729 18.0597 8.15989C18.0918 8.01554 18.0822 7.86503 18.0319 7.72594C17.9817 7.58686 17.8928 7.46496 17.7759 7.37449C17.3533 7.06429 16.7263 7.33489 16.6405 7.76389C16.507 7.59824 16.3198 7.48447 16.1113 7.44228C15.9027 7.4001 15.686 7.43215 15.4986 7.53289C15.0498 7.76389 14.8386 8.36461 15.2611 8.70781C14.9508 8.78041 14.8122 9.09061 14.8518 9.40741C14.9496 9.97513 15.5238 10.2721 15.9133 10.0015Z" fill="#38A1FF"/>
<path d="M23.0689 20.7801C17.4296 20.7221 8.12686 20.6121 1.0369 20.9319C0.990697 20.9319 0.997297 21.0771 1.0435 21.0771C7.86106 20.9046 14.0927 20.7722 23.0755 20.9715C23.1345 20.9715 23.1278 20.7807 23.0689 20.7801Z" fill="#38A1FF"/>
<path d="M7.77539 16.5232C8.10539 16.5232 8.75231 16.5232 9.19451 16.5166C9.29118 16.0659 9.35931 15.6095 9.39851 15.1503C9.04871 15.1965 8.38859 15.1635 8.09819 15.0513C8.0298 15.5497 7.92186 16.0419 7.77539 16.5232Z" fill="#38A1FF"/>
<path d="M2.88491 20.555C2.86608 20.4735 2.8754 20.3881 2.91136 20.3126C2.94731 20.2371 3.00778 20.176 3.08291 20.1392C3.26111 20.0534 5.08955 20.0402 5.51891 20.0204C5.53871 19.9148 5.59811 19.631 5.68391 19.2614C4.60346 19.0446 3.50536 18.9275 2.40347 18.9116C2.30447 18.9116 2.34407 18.8191 2.40347 18.8191C2.56187 18.8125 2.72027 18.8125 2.87867 18.8125C3.00074 18.3298 3.18258 17.8642 3.41999 17.4265C3.44639 17.3803 3.50579 17.4067 3.48599 17.4529C3.28148 17.8923 3.11795 18.3496 2.99747 18.8191C3.91047 18.854 4.81953 18.9577 5.71691 19.1294C5.86211 18.5023 6.06011 17.6971 6.24491 17.1559C6.40331 16.674 6.65411 16.5552 6.99083 16.5354C7.15583 16.5288 7.36703 16.5222 7.65083 16.5288C7.67723 16.4496 7.70363 16.3704 7.73003 16.2714C7.40663 15.7434 6.71351 15.2747 5.76971 15.2021C5.44631 15.585 4.54199 15.5454 4.04699 15.0767C3.75659 15.1097 2.79899 15.3209 2.22527 15.9678C1.41995 16.8918 0.324353 19.0106 0.852353 20.126C1.11539 20.6941 2.58731 20.5884 2.88491 20.555Z" fill="#38A1FF"/>
<path d="M11.9798 5.09718C12.0001 4.93218 11.8874 4.09386 11.8016 4.01466C11.7966 4.00937 11.7903 4.00541 11.7833 4.00314C11.7764 4.00088 11.769 4.00038 11.7618 4.00169C11.7546 4.003 11.7478 4.00607 11.7421 4.01064C11.7364 4.01521 11.7319 4.02113 11.729 4.02786C11.7026 4.08726 11.861 4.99146 11.8808 5.09718C11.8834 5.1084 11.8897 5.11843 11.8987 5.12561C11.9077 5.13279 11.9188 5.1367 11.9303 5.1367C11.9418 5.1367 11.953 5.13279 11.962 5.12561C11.971 5.11843 11.9773 5.1084 11.9798 5.09718Z" fill="#38A1FF"/>
<path d="M12.9105 8.46354C12.9154 8.45357 12.9176 8.44251 12.917 8.43143C12.9163 8.42035 12.9128 8.40964 12.9067 8.40033C12.9007 8.39102 12.8923 8.38344 12.8825 8.37832C12.8726 8.37321 12.8616 8.37073 12.8505 8.37114C12.7383 8.37114 12.5865 8.58906 12.032 8.50974C11.972 8.50314 11.933 8.58906 11.9924 8.61546C12.3429 8.74722 12.857 8.58882 12.9105 8.46354Z" fill="#38A1FF"/>
<path d="M13.5837 7.30159C13.8217 7.43978 14.0713 7.55683 14.3296 7.65139C14.341 7.65314 14.3526 7.65125 14.3628 7.64597C14.373 7.6407 14.3813 7.63232 14.3865 7.62204C14.3916 7.61176 14.3933 7.60012 14.3914 7.58878C14.3895 7.57745 14.3841 7.56702 14.3758 7.55899C14.1389 7.42075 13.8891 7.30582 13.6299 7.21578C13.6186 7.20966 13.6052 7.2083 13.5928 7.21202C13.5805 7.21573 13.5701 7.22421 13.5639 7.23559C13.5578 7.24696 13.5564 7.26031 13.5602 7.27269C13.5639 7.28506 13.5724 7.29546 13.5837 7.30159Z" fill="#38A1FF"/>
<path d="M12.323 8.76065C12.3094 8.75778 12.2953 8.76005 12.2834 8.76704C12.2714 8.77402 12.2625 8.78522 12.2584 8.79843C12.2543 8.81164 12.2552 8.82591 12.2611 8.83845C12.2669 8.851 12.2772 8.86091 12.29 8.86625C12.455 8.95865 12.746 8.85305 12.6332 8.75405C12.5809 8.70785 12.5009 8.79521 12.323 8.76065Z" fill="#38A1FF"/>
<path d="M13.4382 5.75074C13.5367 5.70994 14.0653 5.09074 14.1511 4.97194C14.1841 4.92574 14.1115 4.87954 14.0719 4.91254C13.8533 5.12348 13.6461 5.346 13.4514 5.57914C13.326 5.71774 13.3917 5.76994 13.4382 5.75074Z" fill="#38A1FF"/>
<path d="M11.775 7.8363C11.7804 7.8481 11.7897 7.85765 11.8013 7.86329C11.813 7.86893 11.8263 7.8703 11.8388 7.86716C11.8514 7.86402 11.8625 7.85656 11.8701 7.8461C11.8777 7.83564 11.8815 7.82283 11.8806 7.8099C11.8344 7.5195 11.5704 7.3539 11.4246 7.1169C11.121 6.62178 11.5236 6.05418 12.0384 5.92218C12.4609 5.80998 12.9361 5.96178 13.0483 6.46998C13.1473 6.9057 12.9493 7.2225 12.8107 7.6185C12.7843 7.7043 12.8707 7.7307 12.9097 7.6515C13.0879 7.3155 13.2595 6.9123 13.2067 6.52938C13.1143 5.91558 12.5995 5.64498 12.0252 5.78358C11.5236 5.90898 11.0946 6.34458 11.1804 6.8925C11.2536 7.3413 11.647 7.46526 11.775 7.8363Z" fill="#38A1FF"/>
<path d="M11.9209 8.33818C12.0728 8.39219 12.235 8.41075 12.3951 8.39245C12.5553 8.37415 12.7091 8.31946 12.8449 8.23258C12.9043 8.18638 12.8779 8.08738 12.7921 8.12038C12.4423 8.24578 12.3037 8.27878 11.9604 8.23258C11.9005 8.22598 11.8609 8.31238 11.9209 8.33818Z" fill="#38A1FF"/>
<path d="M10.1052 7.85629C10.0593 7.91629 10.1052 7.99489 10.2372 7.90249C10.4206 7.78838 10.5949 7.6604 10.7587 7.51969C10.7675 7.51202 10.7732 7.50143 10.7747 7.48988C10.7763 7.47833 10.7736 7.46661 10.7671 7.45692C10.7606 7.44723 10.7509 7.44022 10.7396 7.43719C10.7284 7.43417 10.7164 7.43534 10.7059 7.44049C10.4938 7.56109 10.2928 7.70023 10.1052 7.85629Z" fill="#38A1FF"/>
<path d="M10.6006 6.094C10.6115 6.09685 10.623 6.09577 10.6332 6.09095C10.6434 6.08614 10.6515 6.0779 10.6563 6.06767C10.661 6.05744 10.662 6.04588 10.659 6.03501C10.6561 6.02414 10.6494 6.01465 10.6402 6.0082C10.3762 5.83702 10.1004 5.68464 9.81504 5.5522C9.80318 5.54848 9.79038 5.54911 9.77894 5.55397C9.76749 5.55883 9.75815 5.56761 9.75259 5.57873C9.74703 5.58985 9.74562 5.60258 9.74859 5.61465C9.75157 5.62673 9.75875 5.63734 9.76884 5.6446C10.0351 5.81388 10.313 5.96406 10.6006 6.094Z" fill="#38A1FF"/>
<path d="M11.9207 8.08699C12.1398 8.15575 12.693 8.04739 12.8118 7.95499C12.891 7.88899 12.8184 7.79659 12.7194 7.83619C12.4731 7.92972 12.2103 7.97237 11.9471 7.96159C11.8277 7.95499 11.8085 8.05219 11.9207 8.08699Z" fill="#38A1FF"/>
<path d="M12.4548 7.70424C12.4464 7.35641 12.4774 7.00876 12.5472 6.66792C12.5489 6.65692 12.5463 6.6457 12.5401 6.63651C12.5338 6.62732 12.5243 6.62082 12.5135 6.61832C12.5027 6.61582 12.4913 6.6175 12.4816 6.62302C12.472 6.62855 12.4648 6.63751 12.4614 6.64812C12.3746 6.99295 12.3434 7.34944 12.369 7.70412C12.3687 7.70994 12.3696 7.71577 12.3716 7.72124C12.3736 7.72672 12.3767 7.73173 12.3807 7.73597C12.3847 7.7402 12.3896 7.74358 12.3949 7.74589C12.4003 7.7482 12.406 7.7494 12.4119 7.74941C12.4177 7.74941 12.4235 7.74823 12.4288 7.74594C12.4342 7.74364 12.439 7.74028 12.4431 7.73605C12.4471 7.73183 12.4502 7.72683 12.4522 7.72136C12.4542 7.71589 12.4551 7.71006 12.4548 7.70424Z" fill="#38A1FF"/>
<path d="M12.2964 6.60896C12.1219 6.65555 11.9423 6.67974 11.7617 6.68096C11.7517 6.68104 11.742 6.68379 11.7334 6.68893C11.7249 6.69407 11.7179 6.70141 11.7132 6.71018C11.7085 6.71895 11.7062 6.72884 11.7066 6.73879C11.707 6.74875 11.7101 6.75841 11.7155 6.76676C11.8508 7.07265 11.9698 7.38549 12.072 7.70397C12.0918 7.76397 12.1512 7.75016 12.138 7.69076C12.0763 7.37918 11.9788 7.07577 11.8475 6.78657C12.0117 6.77881 12.174 6.7477 12.3294 6.69417C12.3395 6.68895 12.3472 6.68021 12.3512 6.66962C12.3552 6.65903 12.3552 6.64734 12.3511 6.63678C12.347 6.62623 12.3392 6.61755 12.3291 6.61242C12.319 6.60729 12.3074 6.60606 12.2964 6.60896Z" fill="#38A1FF"/>
<path d="M7.51094 11.2093C7.52724 11.525 7.47756 11.8407 7.36506 12.1361C7.25255 12.4316 7.07971 12.7004 6.85754 12.9253C6.73214 13.0507 6.83774 13.0771 6.96314 13.0309C7.55714 12.7999 8.09114 12.1201 8.24354 11.5128C8.26994 11.4072 8.17754 11.4138 8.16434 11.4798C8.08332 11.7783 7.94195 12.0571 7.74898 12.299C7.556 12.5408 7.3155 12.7405 7.04234 12.8857C7.44639 12.431 7.65732 11.8367 7.63034 11.229C7.62374 11.13 7.61054 11.1234 7.49174 11.1036C6.47522 10.9452 6.09902 9.48645 7.70294 8.89905C9.13526 8.37753 10.2376 9.34785 9.98666 10.3248C9.80186 11.0574 9.02306 11.1696 8.38274 11.1696C8.29694 11.1696 8.30354 11.2752 8.38934 11.2752C9.04934 11.2884 9.80186 11.196 10.0461 10.536C10.5741 9.13005 9.09566 8.36397 7.84814 8.71425C5.82782 9.29517 6.33602 11.1631 7.51094 11.2093Z" fill="#38A1FF"/>
</g>
<defs>
<clipPath id="clip0_80_68">
<rect width="24" height="24" fill="white" transform="translate(0.112793 0.539062)"/>
</clipPath>
</defs>
</svg>
