<svg width="25" height="25" viewBox="0 0 25 25" fill="none" xmlns="http://www.w3.org/2000/svg">
<g clip-path="url(#clip0_13_73)">
<path d="M6.73797 8.37616C6.77493 8.3548 6.80013 8.31964 6.83517 8.29828C6.87843 8.27855 6.92703 8.27378 6.97329 8.28472C7.04337 8.2894 7.06089 8.17192 6.99081 8.16208C6.92326 8.14808 6.85291 8.16063 6.79437 8.19712C6.74388 8.23211 6.70734 8.28378 6.69117 8.34304C6.68984 8.34902 6.69031 8.35526 6.69251 8.36098C6.69471 8.3667 6.69856 8.37163 6.70356 8.37517C6.70856 8.37871 6.71449 8.38069 6.72061 8.38087C6.72674 8.38105 6.73278 8.37941 6.73797 8.37616Z" fill="#191919"/>
<path d="M8.05324 8.03951C8.11363 8.05238 8.17012 8.07935 8.21809 8.11823C8.26606 8.15711 8.30415 8.20678 8.32925 8.26319C8.33792 8.27688 8.35116 8.28706 8.36663 8.2919C8.38209 8.29675 8.39877 8.29596 8.41371 8.28967C8.42865 8.28338 8.44087 8.272 8.44821 8.25756C8.45555 8.24311 8.45753 8.22653 8.4538 8.21076C8.4016 8.02824 8.14757 7.85556 8.03549 7.97724C8.02013 7.99668 8.02576 8.03555 8.05324 8.03951Z" fill="#191919"/>
<path d="M8.34512 8.88197C8.22848 8.72429 7.90028 8.62853 7.7984 8.85473C7.79048 8.87225 7.80428 8.89973 7.82564 8.89169C7.88989 8.85957 7.96007 8.84102 8.0318 8.83721C7.96592 8.96921 8.1518 9.09173 8.27696 8.96561C8.32172 8.97737 8.37824 8.92673 8.34512 8.88197Z" fill="#191919"/>
<path d="M7.16416 8.7945C7.04752 8.63682 6.71944 8.54094 6.61744 8.76726C6.60964 8.78466 6.62344 8.81214 6.64468 8.80422C6.70892 8.77197 6.77917 8.75342 6.85096 8.74974C6.78496 8.88174 6.97024 9.00414 7.09612 8.87814C7.14088 8.88978 7.19788 8.83914 7.16416 8.7945Z" fill="#191919"/>
<path d="M7.73034 9.61934C7.59642 9.57194 7.43466 9.66218 7.29066 9.70886C7.39086 9.04322 7.58154 8.7791 7.61946 8.59598C7.62594 8.5649 7.5849 8.53406 7.56114 8.56286C7.35846 8.8091 7.21098 9.4373 7.16034 9.77486C7.1397 9.9119 7.3515 9.82682 7.48518 9.78074C7.56666 9.75254 7.65234 9.7469 7.73226 9.72074C7.74292 9.71708 7.75214 9.71013 7.75861 9.70089C7.76507 9.69166 7.76843 9.68061 7.76822 9.66934C7.76801 9.65807 7.76423 9.64716 7.75742 9.63817C7.75061 9.62919 7.74113 9.6226 7.73034 9.61934Z" fill="#191919"/>
<path d="M6.82358 9.84506C6.80434 9.93922 6.81081 10.0368 6.84231 10.1276C6.87381 10.2184 6.92919 10.2991 7.00262 10.3611C7.03194 10.3834 7.06641 10.3979 7.10285 10.4033C7.13928 10.4087 7.17649 10.4048 7.21103 10.392C7.24556 10.3792 7.2763 10.3579 7.30039 10.33C7.32448 10.3022 7.34114 10.2687 7.34882 10.2327C7.34886 10.2253 7.3472 10.2181 7.34399 10.2115C7.34078 10.2049 7.3361 10.1991 7.3303 10.1946C7.3245 10.1901 7.31775 10.1869 7.31056 10.1854C7.30337 10.184 7.29593 10.1841 7.28882 10.186C7.25707 10.2011 7.22855 10.2223 7.20482 10.2483C7.12466 10.314 7.05579 10.2555 7.01019 10.1821C6.95446 10.0769 6.91946 9.96193 6.9071 9.8435C6.9039 9.83491 6.89811 9.82753 6.89053 9.82237C6.88295 9.81721 6.87396 9.81453 6.86479 9.8147C6.85563 9.81488 6.84674 9.81789 6.83936 9.82332C6.83198 9.82876 6.82647 9.83635 6.82358 9.84506Z" fill="#191919"/>
<path d="M4.06687 16.9289C4.05883 17.2822 4.0731 17.6357 4.10959 17.9873C4.13683 18.3395 4.42867 21.5439 4.44823 21.7365C4.45183 21.9377 4.48058 22.1377 4.53379 22.3318C4.55503 22.3883 4.65847 22.4077 4.66999 22.3318C4.68236 22.1588 4.67321 21.985 4.64275 21.8143C4.43059 19.7404 4.26475 17.476 4.17391 16.9173C4.16311 16.8514 4.06975 16.8685 4.06687 16.9289Z" fill="#191919"/>
<path d="M13.2498 16.6273C13.2009 17.8566 13.2949 19.3914 13.0709 21.2695C12.9617 22.1844 12.8834 22.2929 12.8937 22.5731C12.8963 22.6392 12.9951 22.6782 13.028 22.6101C13.3206 22.0023 13.5063 18.6515 13.3393 16.6293C13.3387 16.6179 13.3339 16.6072 13.3258 16.5993C13.3176 16.5913 13.3068 16.5868 13.2954 16.5866C13.2841 16.5863 13.273 16.5904 13.2646 16.598C13.2561 16.6055 13.2508 16.616 13.2498 16.6273Z" fill="#191919"/>
<path d="M14.3802 15.2051C14.538 15.3357 14.7136 15.4431 14.9016 15.5242C14.9658 15.5458 15.0085 15.4582 14.9658 15.4152C14.7006 15.1479 13.3521 14.5313 12.0514 12.5494C11.8192 12.1954 11.6056 11.8277 11.3857 11.4677C11.3805 11.4589 11.372 11.4524 11.362 11.4498C11.3521 11.4472 11.3415 11.4485 11.3325 11.4536C11.3236 11.4587 11.317 11.4672 11.3142 11.4771C11.3114 11.487 11.3126 11.4976 11.3176 11.5066C11.9867 12.9928 13.0449 14.2706 14.3802 15.2051Z" fill="#191919"/>
<path d="M18.6801 15.032C18.415 14.098 17.7221 13.4156 16.9466 12.8452C15.5273 11.8012 13.1738 10.5266 12.5165 10.2945C12.5073 10.2906 12.4971 10.2901 12.4875 10.2929C12.4779 10.2958 12.4696 10.3018 12.464 10.3101C12.3256 10.2888 12.3635 10.6874 11.3667 11.3901C11.3393 11.4094 11.3547 11.4621 11.392 11.4484C11.8785 11.2632 12.2597 10.8628 12.52 10.4193C13.156 10.8062 13.7013 11.0007 15.1427 11.8648C15.844 12.2848 16.9682 13.0029 17.5547 13.5731C17.8888 13.8879 18.1624 14.2611 18.3622 14.6743C18.5525 15.083 18.6752 15.5925 18.5587 16.0381C18.3525 16.8267 17.2815 17.4212 16.51 17.7074C15.745 17.9912 15.13 18.0554 13.6791 18.3048C13.6227 18.3145 13.6363 18.4079 13.6928 18.4059C14.1659 18.3981 14.6374 18.3473 15.1013 18.2541C15.9814 18.1017 16.82 17.8722 17.5917 17.3845C17.9928 17.1491 18.3328 16.8226 18.584 16.4312C18.8329 16.0055 18.8105 15.4912 18.6801 15.032Z" fill="#191919"/>
<path d="M12.314 10.3821C12.25 10.3193 12.1528 10.3135 11.9872 10.1602C11.6173 9.81809 11.5144 9.28961 11.386 8.89949C11.1546 8.19641 10.7068 7.54709 10.4657 7.33325C10.409 7.28297 10.3046 7.35053 10.3548 7.41893C10.5638 7.66133 10.7501 7.92243 10.9112 8.19893C11.3513 8.98409 11.332 9.53333 11.6622 10.0045C11.791 10.1879 12.0863 10.4725 12.2862 10.4462C12.316 10.4425 12.3396 10.4074 12.314 10.3821Z" fill="#191919"/>
<path d="M12.2712 3.94214C12.2587 3.89985 12.2345 3.86197 12.2013 3.83288C12.1682 3.80379 12.1275 3.78467 12.0839 3.77774C12.0404 3.77081 11.9957 3.77636 11.9552 3.79373C11.9146 3.81109 11.8799 3.83958 11.8548 3.8759C11.8453 3.82629 11.8205 3.78092 11.7838 3.74617C11.7472 3.71142 11.7006 3.68903 11.6505 3.68217C11.6005 3.67531 11.5495 3.68431 11.5049 3.70791C11.4602 3.73151 11.4241 3.76853 11.4016 3.81374C11.2564 4.11758 11.5447 4.50722 11.6896 4.75538C11.6922 4.75956 11.6957 4.7631 11.6998 4.76573C11.7039 4.76836 11.7086 4.77001 11.7135 4.77057C11.7184 4.77112 11.7233 4.77056 11.728 4.76893C11.7326 4.7673 11.7368 4.76463 11.7402 4.76114C12.0817 4.38062 12.3417 4.17734 12.2712 3.94214Z" fill="#38A1FF"/>
<path d="M11.3392 3.41492C11.1801 3.50822 11.0527 3.64705 10.9732 3.81351C10.8938 3.97996 10.8661 4.1664 10.8937 4.34876C10.9217 4.52788 11.0026 4.69453 11.126 4.82732C11.2494 4.96011 11.4097 5.05297 11.5863 5.09396C12.4213 5.30072 12.9927 4.29836 12.6097 3.60368C12.3709 3.1706 11.7952 3.0836 11.5337 3.29624C11.4812 3.33896 11.5475 3.41516 11.6038 3.38576C11.7515 3.31868 11.9181 3.3055 12.0745 3.34852C12.2309 3.39154 12.3673 3.48802 12.4599 3.6212C12.5477 3.76375 12.5955 3.92734 12.5983 4.09475C12.601 4.26217 12.5585 4.42723 12.4754 4.57256C12.0926 5.25476 11.1865 5.01944 11.0257 4.40744C10.9863 4.23269 10.9981 4.05029 11.0599 3.88212C11.1216 3.71396 11.2306 3.56719 11.3737 3.45944C11.3993 3.44 11.3662 3.40088 11.3392 3.41492Z" fill="#191919"/>
<path d="M21.5752 11.5594C21.4311 11.4816 21.2633 11.4602 21.1043 11.4994C20.8792 11.5422 20.9416 11.5906 20.8903 11.5189C20.7848 11.3637 20.7265 11.1813 20.7223 10.9936C20.716 10.5976 20.9043 10.5076 20.9208 10.301C20.9531 9.8978 20.269 9.86696 19.9753 10.529C19.8785 10.747 19.809 11.0899 19.95 11.3032C19.9558 11.3127 19.9645 11.3199 19.9748 11.3241C19.985 11.3282 19.9963 11.3288 20.007 11.326C20.0177 11.3232 20.0272 11.317 20.0341 11.3084C20.041 11.2997 20.0449 11.2891 20.0453 11.278C20.0453 11.0769 19.9542 10.8331 20.1601 10.4881C20.4101 10.0693 20.8675 10.0603 20.7789 10.348C20.7388 10.478 20.6554 10.589 20.6229 10.7254C20.5866 10.8828 20.5861 11.0463 20.6215 11.2039C20.6568 11.3615 20.727 11.5091 20.8269 11.636C20.7873 11.6925 20.7789 11.747 20.7821 12.2041C20.7843 12.5544 20.7408 12.8647 21.0701 12.887C21.2238 12.8932 21.3777 12.8782 21.5273 12.8422C21.7258 12.7597 21.6611 12.5671 21.6732 11.9862C21.6773 11.845 21.7241 11.6424 21.5752 11.5594Z" fill="#191919"/>
<path d="M20.6004 12.8879C20.3454 12.9819 20.0857 13.0624 19.8222 13.1292C19.6952 13.1618 19.5666 13.1877 19.4369 13.207C19.3505 13.2278 19.2596 13.2175 19.1801 13.1778C19.1201 13.1386 19.0686 13.0426 19.1451 12.9911C19.2011 12.9533 19.1879 12.8471 19.1081 12.8529C19.0401 12.8583 18.9426 12.8529 18.9041 12.7848C18.8969 12.774 18.8921 12.7617 18.89 12.7489C18.888 12.736 18.8888 12.7229 18.8923 12.7103C18.8958 12.6978 18.902 12.6862 18.9104 12.6762C18.9188 12.6663 18.9293 12.6583 18.9411 12.6528C18.9587 12.6471 18.9738 12.6354 18.9836 12.6197C18.9934 12.604 18.9974 12.5854 18.9949 12.567C18.9923 12.5487 18.9834 12.5318 18.9697 12.5194C18.9559 12.507 18.9382 12.4999 18.9197 12.4992C18.8754 12.493 18.8339 12.4739 18.8005 12.4442C18.767 12.4145 18.7431 12.3756 18.7317 12.3324C18.7202 12.2892 18.7218 12.2435 18.7362 12.2012C18.7506 12.1589 18.7772 12.1217 18.8127 12.0945C18.8231 12.0835 18.8302 12.0698 18.833 12.0549C18.8359 12.04 18.8343 12.0247 18.8285 12.0107C18.8227 11.9967 18.813 11.9847 18.8005 11.9761C18.788 11.9675 18.7733 11.9628 18.7582 11.9625C18.6045 11.9625 18.6078 11.7771 18.6823 11.6881C18.8514 11.4862 19.3083 11.5495 19.8343 11.4799C19.8791 11.4739 19.8772 11.3981 19.8343 11.3904C19.6332 11.3619 19.4294 11.3574 19.2273 11.3769C19.0376 11.3707 18.8494 11.4108 18.6786 11.4935C18.4038 11.6641 18.4249 11.9703 18.6222 12.0831C18.5966 12.1271 18.5802 12.1758 18.5737 12.2263C18.5673 12.2768 18.5711 12.328 18.5849 12.377C18.5987 12.426 18.6222 12.4718 18.654 12.5115C18.6858 12.5513 18.7253 12.5842 18.7701 12.6084C18.7489 12.6466 18.7377 12.6894 18.7373 12.733C18.7369 12.7766 18.7475 12.8196 18.768 12.858C18.7885 12.8965 18.8183 12.9293 18.8547 12.9533C18.8911 12.9773 18.9329 12.9918 18.9763 12.9955C18.9628 13.0425 18.9626 13.0922 18.9756 13.1393C18.9887 13.1863 19.0145 13.2288 19.0503 13.2621C19.1913 13.3974 19.4004 13.363 19.5736 13.3302C19.8173 13.284 20.4448 13.1404 20.6495 12.9994C20.6616 12.9913 20.6706 12.9792 20.6747 12.9653C20.6788 12.9513 20.6778 12.9363 20.6719 12.923C20.6661 12.9096 20.6557 12.8988 20.6426 12.8924C20.6295 12.886 20.6146 12.8844 20.6004 12.8879Z" fill="#191919"/>
<path d="M7.79064 14.0514C8.08812 13.2234 8.34684 13.1125 8.38596 12.9424C8.39184 12.9171 8.36832 12.8856 8.33928 12.8957C8.1282 12.969 7.81224 13.6337 7.70112 13.9269C7.15008 13.4429 6.88968 12.5829 6.7284 12.2809C6.70128 12.2302 6.63492 12.2673 6.64272 12.3179C6.68736 12.4982 6.7547 12.672 6.84312 12.8353C7.04712 13.2973 7.28376 13.761 7.68756 14.0787C7.69521 14.0863 7.70471 14.0917 7.71512 14.0945C7.72553 14.0973 7.73649 14.0973 7.7469 14.0946C7.75732 14.0918 7.76684 14.0864 7.77451 14.0788C7.78219 14.0713 7.78775 14.0618 7.79064 14.0514Z" fill="#191919"/>
<path d="M9.95413 12.172C9.95662 12.5072 9.91277 12.8411 9.82381 13.1642C9.74615 13.4485 9.62469 13.7189 9.46381 13.9658C9.35029 13.6147 9.08077 13.0863 8.78485 12.8647C8.75149 12.8397 8.70721 12.8878 8.72845 12.9211C8.83645 13.0898 9.17809 13.4037 9.38845 14.1098C9.39173 14.1204 9.39801 14.1299 9.40654 14.1371C9.41507 14.1443 9.42549 14.1489 9.43655 14.1504C9.44762 14.1518 9.45886 14.15 9.46895 14.1453C9.47904 14.1405 9.48754 14.1329 9.49345 14.1235C9.95521 13.4995 10.1449 12.6051 10.0694 12.1545C10.0578 12.0883 9.95857 12.1114 9.95413 12.172Z" fill="#191919"/>
<path d="M9.45012 20.1235C9.16032 17.0063 9.01104 16.549 8.94036 14.2479C8.962 14.2497 8.98373 14.2454 9.00302 14.2355C9.02232 14.2255 9.03837 14.2102 9.04932 14.1915C9.11076 14.1111 9.1722 14.0224 9.22632 13.9347C9.26352 13.8747 9.17052 13.7969 9.12516 13.8568C8.90916 14.1421 8.97912 14.1186 8.8878 14.0922C8.71884 14.0424 8.53778 14.0535 8.37612 14.1234C8.30185 13.9582 8.19381 13.8104 8.05896 13.6895C8.05277 13.686 8.04567 13.6844 8.03857 13.6849C8.03147 13.6854 8.02468 13.6881 8.01907 13.6924C8.01346 13.6968 8.00927 13.7028 8.00704 13.7095C8.0048 13.7163 8.00462 13.7235 8.00652 13.7304C8.04792 13.8504 8.11452 13.8952 8.29836 14.2324C8.30382 14.2418 8.31181 14.2496 8.32144 14.2547C8.33107 14.2599 8.34194 14.2622 8.35284 14.2615C8.20692 15.388 8.09988 16.5203 7.98696 17.6488C7.6236 21.283 7.58952 21.2283 7.74192 21.4368C8.02299 21.7854 8.2742 22.157 8.49288 22.5478C8.50014 22.5596 8.5103 22.5693 8.52239 22.576C8.53448 22.5828 8.5481 22.5863 8.56194 22.5863C8.57579 22.5863 8.5894 22.5828 8.60149 22.576C8.61358 22.5693 8.62374 22.5596 8.631 22.5478C8.78592 22.2808 9.255 21.4849 9.33336 21.3532C9.59052 20.9228 9.5316 20.9998 9.45012 20.1235ZM9.27504 21.1508C9.1932 21.2928 8.71464 22.0906 8.559 22.3474C8.04384 21.4481 7.80456 21.3833 7.80612 21.1587C7.80612 21.0659 8.39064 15.1416 8.46756 14.2149C8.56918 14.1795 8.67919 14.1761 8.7828 14.2051C8.85768 16.3117 8.97144 16.6876 9.3528 20.6917C9.38014 20.8492 9.35269 21.0112 9.27504 21.1508Z" fill="#38A1FF"/>
<path d="M11.6294 12.3315C11.5432 12.2287 11.3723 12.186 11.2518 12.1389C10.8861 11.9958 10.2971 11.7814 9.93664 11.8629C9.90376 11.7316 9.58252 11.3176 9.24988 11.3469C9.23747 11.3484 9.22588 11.3539 9.21676 11.3625C9.09784 10.8569 9.1654 10.516 9.18172 10.0905C9.18376 10.0379 9.11536 10.0378 9.09772 10.0785C8.89204 10.5677 9.07228 11.6718 9.27088 11.8314C9.07302 12.1354 8.82957 12.4071 8.54909 12.637C8.20349 12.3828 7.8472 12.0997 7.61308 11.742C7.68866 11.5919 7.70461 11.4188 7.65772 11.2575C8.18344 11.1384 8.69224 10.5982 8.866 10.1019C8.88712 10.0419 8.79568 10.0044 8.76292 10.059C8.48464 10.5229 8.14432 11.0353 7.57996 11.1369L7.60324 11.133C7.63149 11.0557 7.63625 10.9717 7.61692 10.8917C7.60756 10.8237 7.5118 10.8139 7.49824 10.8723L7.48072 10.8781C7.47298 10.8738 7.46427 10.8716 7.4554 10.8716C7.44654 10.8716 7.43782 10.8738 7.43008 10.8781C7.41783 10.8729 7.40427 10.8715 7.3912 10.8742C7.38606 10.8681 7.37947 10.8634 7.37204 10.8604C7.36461 10.8575 7.35656 10.8565 7.34864 10.8575C7.34072 10.8585 7.33316 10.8614 7.32666 10.866C7.32016 10.8707 7.31492 10.8769 7.3114 10.884C7.3114 10.8859 7.30948 10.8859 7.30948 10.8879C7.30136 10.8822 7.29191 10.8787 7.28205 10.8776C7.27218 10.8766 7.26221 10.8781 7.25308 10.882C7.25059 10.8763 7.24683 10.8713 7.24209 10.8673C7.23735 10.8633 7.23176 10.8605 7.22574 10.859C7.21973 10.8575 7.21346 10.8574 7.2074 10.8587C7.20134 10.86 7.19567 10.8627 7.1908 10.8665C7.18888 10.8568 7.18696 10.849 7.18504 10.8393C7.18252 10.8304 7.17716 10.8226 7.16979 10.817C7.16241 10.8114 7.15343 10.8084 7.14419 10.8084C7.13494 10.8084 7.12596 10.8114 7.11858 10.817C7.11121 10.8226 7.10585 10.8304 7.10332 10.8393C7.10116 10.8469 7.10524 10.8393 7.10332 10.8256C7.0936 10.7867 7.02736 10.7711 6.9982 10.7848C6.99436 10.7692 6.9982 10.7945 6.99436 10.7789C6.99311 10.7737 6.99012 10.769 6.98589 10.7657C6.98165 10.7623 6.97642 10.7605 6.97102 10.7605C6.96563 10.7605 6.9604 10.7623 6.95616 10.7657C6.95193 10.769 6.94894 10.7737 6.94768 10.7789C6.93023 10.8455 6.92692 10.915 6.93796 10.9829C6.39316 10.5861 6.46588 9.73574 6.49048 9.13658C6.52468 8.3009 6.59932 7.93934 6.58192 7.76498C6.58133 7.75698 6.57802 7.74942 6.57253 7.74356C6.56705 7.7377 6.55972 7.73389 6.55177 7.73277C6.54382 7.73165 6.53573 7.73328 6.52884 7.73739C6.52195 7.74151 6.51667 7.74786 6.51389 7.75538C6.44582 7.97081 6.40912 8.1949 6.40492 8.42078C6.382 8.6465 6.3682 8.8721 6.35824 9.09782C6.33928 9.52394 6.30964 9.97382 6.42244 10.3917C6.56524 10.9213 6.96376 11.338 7.52368 11.2807C7.53468 11.3703 7.53062 11.461 7.51168 11.5492C7.45168 11.5045 7.32352 11.584 7.26664 11.6134C7.06141 11.7176 6.87524 11.8558 6.71596 12.022C6.71205 12.0267 6.70878 12.032 6.70624 12.0376C6.35135 12.0978 6.00116 12.183 5.65828 12.2926C4.35892 12.699 3.54628 13.1886 2.7574 14.3743C1.27924 16.597 0.684045 19.7142 0.681885 22.3085C0.682583 22.3243 0.689343 22.3392 0.700755 22.3501C0.712167 22.361 0.727351 22.3671 0.743145 22.3671C0.758938 22.3671 0.774123 22.361 0.785535 22.3501C0.796947 22.3392 0.803706 22.3243 0.804405 22.3085C0.900405 20.5608 1.10128 18.8197 1.64692 17.1485C2.12968 15.6696 3.03005 13.7844 4.37656 13.0122C5.29768 12.4842 6.44176 12.2589 6.74056 12.1362C6.75286 12.1436 6.76748 12.1461 6.78152 12.1432C6.79557 12.1403 6.80801 12.1322 6.8164 12.1206C6.99112 11.9166 7.37632 11.7043 7.44484 11.6615C7.47773 11.7643 7.53076 11.8596 7.60084 11.9417C7.861 12.2674 8.17041 12.5506 8.51788 12.7809C8.53115 12.7888 8.54672 12.7919 8.562 12.7897C8.57729 12.7875 8.59136 12.7802 8.60189 12.7689C8.88761 12.5397 9.34876 12.0655 9.47932 11.7609C9.50608 11.6983 9.42916 11.6169 9.3742 11.6811C9.36076 11.6968 9.349 11.7142 9.33724 11.7297C9.32068 11.6715 9.28288 11.6097 9.23608 11.434C9.36725 11.4652 9.48882 11.528 9.5902 11.6169C9.8434 11.8595 9.7942 11.934 9.87232 11.934C9.88627 11.9346 9.89998 11.9303 9.9112 11.922C9.95224 11.9631 10.2239 11.9255 10.7848 12.1049C11.3666 12.2911 11.4293 12.4005 11.602 12.3929C11.6093 12.3933 11.6165 12.3915 11.6227 12.3877C11.6289 12.3839 11.6339 12.3783 11.6368 12.3716C11.6398 12.3649 11.6407 12.3575 11.6393 12.3504C11.638 12.3432 11.6345 12.3366 11.6294 12.3315Z" fill="#191919"/>
<path d="M10.5514 8.41543C10.4673 8.22302 10.3656 8.03873 10.2478 7.86487C10.1786 8.10139 10.1747 8.05255 10.1878 8.07691C10.259 8.21263 10.3335 8.34547 10.3979 8.48551C10.4561 8.61199 10.4939 8.79655 10.5963 8.89351C10.605 8.9016 10.6159 8.90703 10.6276 8.90917C10.6393 8.91131 10.6514 8.91007 10.6625 8.90558C10.6735 8.9011 10.683 8.89356 10.6899 8.88386C10.6968 8.87415 10.7008 8.86268 10.7014 8.85079C10.7162 8.70895 10.6093 8.53975 10.5514 8.41543Z" fill="#191919"/>
<path d="M18.4875 7.49871C18.5997 4.83303 16.0668 4.07871 14.5419 5.04135C14.0302 5.36439 13.5693 5.77503 13.3161 6.33735C12.8128 7.45503 13.1248 8.72535 13.927 9.64491C14.2984 10.0662 14.8033 10.3471 15.357 10.4406C15.8396 10.5461 16.3434 10.4901 16.7909 10.281C17.3027 10.0601 17.9703 9.63663 18.184 9.15651C18.191 9.14339 18.1927 9.12807 18.1887 9.11375C18.1846 9.09943 18.1752 9.08722 18.1624 9.07968C18.1496 9.07214 18.1343 9.06986 18.1199 9.07331C18.1054 9.07676 18.0928 9.08568 18.0848 9.09819C17.6816 9.68895 16.6511 10.3582 15.7773 10.3278C15.261 10.3182 14.7608 10.1467 14.3472 9.83751C13.536 9.18819 13.0065 7.91895 13.32 6.77319C13.48 6.21973 13.822 5.73645 14.2908 5.40159C14.5257 5.21481 14.7849 5.06098 15.0614 4.94439C15.4051 4.82215 15.7707 4.77369 16.1344 4.80218C16.4982 4.83068 16.8518 4.93547 17.1723 5.10975C18.0351 5.58087 18.3688 6.51891 18.4116 7.50471C18.4138 7.51362 18.4191 7.52147 18.4265 7.52685C18.4339 7.53222 18.443 7.53478 18.4521 7.53406C18.4613 7.53334 18.4698 7.52938 18.4763 7.5229C18.4828 7.51642 18.4868 7.50785 18.4875 7.49871Z" fill="#191919"/>
<path d="M19.355 8.64462C19.1607 8.36442 18.7926 7.87758 18.497 7.7127C18.4621 7.69314 18.4353 7.73754 18.4581 7.76718C18.6452 8.01054 18.8541 8.15478 19.1936 8.6349C19.1394 8.6481 18.4082 8.83386 18.3317 8.8587C18.2717 8.87814 18.2791 8.9925 18.3473 8.98314C18.5599 8.95386 18.8895 8.83842 19.3161 8.74194C19.3258 8.73908 19.3347 8.73407 19.3422 8.72727C19.3496 8.72048 19.3554 8.71208 19.3592 8.70271C19.3629 8.69335 19.3645 8.68325 19.3638 8.67319C19.3631 8.66313 19.3601 8.65336 19.355 8.64462Z" fill="#191919"/>
<path d="M14.0438 6.00644C14.0474 6.07064 14.0651 6.13292 14.0632 6.19712C14.0563 6.26483 14.0413 6.33147 14.0186 6.3956C14.0145 6.41101 14.0161 6.42737 14.0231 6.44167C14.0302 6.45596 14.0422 6.46723 14.0569 6.47339C14.0716 6.47955 14.088 6.48018 14.1031 6.47517C14.1182 6.47015 14.131 6.45984 14.1392 6.44612C14.1838 6.37497 14.2061 6.29203 14.203 6.20808C14.1999 6.12413 14.1716 6.04304 14.1219 5.97536C14.1156 5.9689 14.1076 5.96444 14.0988 5.96256C14.09 5.96067 14.0808 5.96144 14.0724 5.96477C14.0641 5.9681 14.0569 5.97384 14.0518 5.98125C14.0467 5.98867 14.0439 5.99744 14.0438 6.00644Z" fill="#191919"/>
<path d="M14.3298 6.10945C14.3288 6.1667 14.3248 6.22386 14.3178 6.28069C14.3061 6.3304 14.3015 6.3815 14.3042 6.43249C14.3063 6.44017 14.3104 6.44716 14.316 6.45275C14.3217 6.45834 14.3288 6.46233 14.3365 6.4643C14.3442 6.46628 14.3523 6.46617 14.3599 6.464C14.3676 6.46183 14.3745 6.45766 14.3801 6.45193C14.4113 6.39898 14.4305 6.33979 14.4362 6.27857C14.4419 6.21736 14.4341 6.15564 14.4132 6.09781C14.4098 6.08857 14.4033 6.08077 14.3949 6.07571C14.3864 6.07065 14.3765 6.06863 14.3668 6.06999C14.357 6.07135 14.348 6.07601 14.3413 6.08319C14.3346 6.09037 14.3305 6.09964 14.3298 6.10945Z" fill="#191919"/>
<path d="M14.5708 7.18538C15.1277 7.31294 16.1932 7.34294 16.7655 7.34294C16.8728 7.3563 16.9816 7.34971 17.0865 7.3235C17.0979 7.31999 17.108 7.3129 17.1151 7.30328C17.1222 7.29366 17.126 7.28201 17.126 7.27004C17.126 7.25807 17.1222 7.24642 17.1151 7.2368C17.108 7.22718 17.0979 7.22009 17.0865 7.21658C16.9935 7.19463 16.8973 7.18935 16.8025 7.20098C15.5373 7.20098 15.2564 7.1057 14.5805 7.0979C14.5702 7.0988 14.5605 7.10325 14.5531 7.1105C14.5457 7.11775 14.541 7.12734 14.5398 7.13766C14.5387 7.14797 14.5411 7.15836 14.5468 7.16706C14.5524 7.17576 14.5609 7.18224 14.5708 7.18538Z" fill="#191919"/>
<path d="M14.6331 7.75353C15.1971 7.81965 15.9081 7.86237 16.7966 7.91697C16.8859 7.93385 16.9783 7.92357 17.0617 7.88745C17.0661 7.88489 17.0698 7.88121 17.0724 7.87677C17.0749 7.87234 17.0763 7.86731 17.0763 7.86219C17.0763 7.85707 17.0749 7.85203 17.0724 7.8476C17.0698 7.84317 17.0661 7.83948 17.0617 7.83693C16.9825 7.77549 16.9838 7.78965 15.8787 7.72017C15.4644 7.69413 15.0499 7.67457 14.6336 7.66761C14.5747 7.66701 14.5786 7.74717 14.6331 7.75353Z" fill="#191919"/>
<path d="M14.6079 8.51809C14.9648 8.54293 15.3507 8.54341 16.2325 8.54341C16.3978 8.54341 16.6045 8.57869 16.7578 8.51425C16.7658 8.51191 16.7728 8.50704 16.7778 8.50038C16.7828 8.49372 16.7855 8.48562 16.7855 8.4773C16.7855 8.46897 16.7828 8.46087 16.7778 8.45421C16.7728 8.44755 16.7658 8.44268 16.7578 8.44034C16.6082 8.3777 16.4115 8.40914 16.25 8.40914C15.3534 8.40914 14.9914 8.40253 14.606 8.42857C14.5947 8.42961 14.5842 8.4349 14.5766 8.44337C14.569 8.45185 14.565 8.46287 14.5652 8.47423C14.5654 8.48559 14.57 8.49643 14.5779 8.50457C14.5858 8.51271 14.5965 8.51754 14.6079 8.51809Z" fill="#191919"/>
<path d="M17.2071 8.6017C17.2062 8.67661 17.2003 8.75137 17.1896 8.8255C17.18 8.87218 17.1702 8.9455 17.2402 8.94418C17.2513 8.9443 17.2621 8.94148 17.2717 8.93602C17.2813 8.93056 17.2892 8.92265 17.2947 8.9131C17.3216 8.86081 17.337 8.80342 17.3401 8.74471C17.3431 8.686 17.3336 8.62732 17.3122 8.57254C17.2872 8.51794 17.211 8.55118 17.2071 8.6017Z" fill="#191919"/>
<path d="M17.5476 8.62712C17.5648 8.75564 17.5339 8.8856 17.5516 9.01232C17.5559 9.0434 17.5981 9.04148 17.6116 9.02012C17.6402 8.95716 17.656 8.88912 17.6581 8.81997C17.6601 8.75083 17.6484 8.68197 17.6236 8.6174C17.613 8.57672 17.5417 8.58236 17.5476 8.62712Z" fill="#191919"/>
<path d="M9.9891 6.62111C9.73974 6.26723 9.32754 6.43823 8.97354 6.37799C8.60778 6.31571 8.43234 5.92679 8.21466 5.67167C7.7121 5.08271 6.75162 4.85063 6.10374 5.34095C5.45586 5.83127 5.55294 6.75563 6.0999 7.28267C6.61446 7.77863 7.3119 7.89851 8.00454 7.90667C8.23229 7.91731 8.46048 7.89901 8.68362 7.85219C8.75976 8.28382 8.75513 8.72582 8.66994 9.15575C8.66805 9.16379 8.66855 9.17221 8.67137 9.17997C8.67419 9.18773 8.67921 9.1945 8.68582 9.19946C8.69243 9.20441 8.70034 9.20733 8.70858 9.20786C8.71682 9.20838 8.72503 9.2065 8.73222 9.20243C8.7729 9.17843 8.81394 9.15383 8.85486 9.12659C8.96142 9.11399 9.0981 8.99903 9.26286 9.07211C9.33216 9.10659 9.38968 9.16086 9.42813 9.22804C9.46658 9.29522 9.48423 9.37229 9.47886 9.44951C9.47226 9.59351 9.3777 9.77807 9.21486 9.78815C9.03198 9.79943 8.98326 9.61715 8.8413 9.55655C8.83229 9.55145 8.82211 9.54878 8.81176 9.54878C8.80141 9.54878 8.79123 9.55146 8.78222 9.55655C8.77321 9.56165 8.76567 9.56899 8.76033 9.57787C8.755 9.58674 8.75205 9.59684 8.75178 9.60719C8.74158 9.82907 9.05334 9.98999 9.24378 9.96719C9.94974 9.88247 9.48462 8.99423 9.5103 8.95547C9.74336 8.60452 9.91497 8.21646 10.0178 7.80791C10.1085 7.44863 10.2017 6.92303 9.9891 6.62111ZM6.2691 5.48303C6.28535 5.47348 6.30472 5.47078 6.32296 5.47552C6.3412 5.48026 6.35681 5.49204 6.36636 5.50829C6.37591 5.52454 6.37861 5.54391 6.37387 5.56215C6.36914 5.58039 6.35735 5.596 6.3411 5.60555C6.26156 5.66949 6.18546 5.73759 6.1131 5.80955C6.10875 5.81365 6.10332 5.81641 6.09744 5.81751C6.09157 5.8186 6.0855 5.81799 6.07997 5.81574C6.07443 5.81349 6.06966 5.8097 6.06621 5.80482C6.06277 5.79993 6.0608 5.79416 6.06054 5.78819C6.06499 5.72336 6.08666 5.6609 6.12333 5.60725C6.15999 5.55361 6.21032 5.51072 6.2691 5.48303ZM6.54738 7.15811C6.54652 7.16994 6.54217 7.18124 6.53488 7.19059C6.5276 7.19995 6.51771 7.20693 6.50646 7.21067C6.40566 7.24847 6.30426 7.12499 6.24246 7.06091C6.15986 6.9774 6.08799 6.88392 6.0285 6.78263C5.93106 6.61343 5.80674 6.31847 5.91558 6.13283C5.92004 6.12545 5.92632 6.11935 5.93382 6.11511C5.94133 6.11088 5.9498 6.10865 5.95842 6.10865C5.96704 6.10865 5.97551 6.11088 5.98302 6.11511C5.99052 6.11935 5.99681 6.12545 6.00126 6.13283C6.03067 6.2292 6.05404 6.32731 6.07122 6.42659C6.22254 6.93299 6.56802 7.00091 6.54738 7.15811Z" fill="#191919"/>
<path d="M9.76936 8.77112C9.73432 8.82176 9.69736 8.87036 9.6604 8.91896C9.72284 9.06521 9.8104 9.19939 9.91912 9.31544C9.92477 9.32064 9.93177 9.32414 9.93932 9.32553C9.94687 9.32692 9.95466 9.32615 9.96179 9.3233C9.96891 9.32045 9.97509 9.31564 9.9796 9.30943C9.98411 9.30322 9.98678 9.29586 9.98728 9.2882C9.96731 9.12335 9.90496 8.96649 9.80632 8.83292C9.7942 8.81216 9.78292 8.79248 9.76936 8.77112Z" fill="#191919"/>
<path d="M10.0279 8.35474C9.99681 8.4229 9.96176 8.48902 9.9248 8.55322C10.0006 8.7205 10.0614 8.93806 10.1972 9.0649C10.205 9.0721 10.2148 9.07692 10.2252 9.07877C10.2357 9.08062 10.2465 9.07943 10.2563 9.07534C10.2662 9.07125 10.2746 9.06443 10.2807 9.05569C10.2867 9.04695 10.2902 9.03665 10.2906 9.02602C10.2885 8.82106 10.1463 8.62126 10.0279 8.35474Z" fill="#191919"/>
<path d="M11.4133 11.2362C11.3259 10.9818 10.9922 10.6294 10.4814 10.4562C10.2001 10.3602 10.079 10.341 9.8665 10.1215C9.77566 10.0275 9.69142 9.91915 9.59998 9.81799C9.5647 9.85919 9.52438 9.8958 9.47998 9.92695C9.49198 9.93895 9.6295 10.0981 9.73486 10.2091C10.1258 10.6207 10.4309 10.5091 10.8847 10.8219C11.0561 10.9532 11.2103 11.1055 11.3438 11.2752C11.3744 11.3023 11.4267 11.2752 11.4133 11.2362Z" fill="#191919"/>
<path d="M23.4799 7.3313C23.4559 6.50618 23.4763 5.9873 23.4448 5.06078C23.4314 4.66586 23.483 3.99278 23.3164 3.72998C23.2401 3.60998 23.0031 3.43586 22.5226 3.4265C21.0576 3.39806 19.5946 3.39458 18.1294 3.3785C17.9708 3.3672 17.8114 3.38431 17.6587 3.42902C17.4576 3.5108 17.2945 3.66492 17.2014 3.86102C17.0873 4.12229 17.0239 4.40288 17.0146 4.68782C17.8929 4.98194 18.6667 5.91878 18.7015 7.42382C18.708 7.70234 18.7735 7.57502 19.3105 8.2235C21.6625 8.29454 21.8313 8.07458 21.9544 8.23322C22.1371 8.46842 22.3336 8.69462 22.5362 8.91218C22.5425 8.91856 22.5505 8.92305 22.5592 8.92514C22.5679 8.92723 22.577 8.92683 22.5855 8.924C22.5941 8.92116 22.6016 8.916 22.6073 8.9091C22.613 8.90219 22.6167 8.89383 22.6179 8.88494C22.645 8.64326 22.6753 8.40038 22.6996 8.1593C22.7012 8.14157 22.7089 8.12492 22.7213 8.11216C22.7337 8.0994 22.7501 8.0913 22.7678 8.08922C23.0689 8.0501 23.391 7.90442 23.4638 7.6145C23.4822 7.5213 23.4876 7.42599 23.4799 7.3313ZM20.824 5.35466C20.826 5.30786 20.836 5.26118 20.8396 5.21258C20.8397 5.16059 20.8496 5.10908 20.8688 5.06078C20.8782 5.04523 20.8915 5.03238 20.9074 5.02346C20.9232 5.01454 20.9411 5.00985 20.9593 5.00985C20.9775 5.00985 20.9954 5.01454 21.0112 5.02346C21.0271 5.03238 21.0403 5.04523 21.0498 5.06078C21.0966 5.16325 21.1063 5.27885 21.077 5.38766C21.0682 5.41703 21.0492 5.44232 21.0235 5.45899C20.9977 5.47566 20.9669 5.48264 20.9365 5.47867C20.9061 5.4747 20.8781 5.46005 20.8575 5.43733C20.8369 5.41462 20.825 5.38531 20.824 5.35466ZM19.2987 5.35466C19.301 5.30798 19.3107 5.26118 19.3143 5.21258C19.3143 5.16059 19.3242 5.10908 19.3435 5.06078C19.3529 5.04523 19.3662 5.03238 19.3821 5.02346C19.3979 5.01454 19.4158 5.00985 19.434 5.00985C19.4522 5.00985 19.47 5.01454 19.4859 5.02346C19.5017 5.03238 19.515 5.04523 19.5244 5.06078C19.5713 5.16325 19.5809 5.27885 19.5517 5.38766C19.5429 5.41703 19.5239 5.44232 19.4982 5.45899C19.4724 5.47566 19.4416 5.48264 19.4112 5.47867C19.3808 5.4747 19.3528 5.46005 19.3322 5.43733C19.3116 5.41462 19.2997 5.38531 19.2987 5.35466ZM21.649 6.00446C21.4368 6.49646 20.11 7.07642 19.1042 6.31958C18.9978 6.23266 18.9041 6.13114 18.826 6.01802C18.7971 5.98082 18.8566 5.94458 18.886 5.97134C19.0862 6.12891 19.3051 6.26093 19.5379 6.36434C19.7641 6.45952 20.0078 6.50595 20.2532 6.50059C20.4985 6.49524 20.74 6.43822 20.9618 6.33326C21.3256 6.16094 21.3818 6.02882 21.5727 5.93054C21.5831 5.92429 21.5953 5.92164 21.6073 5.92301C21.6194 5.92439 21.6306 5.92971 21.6393 5.93814C21.648 5.94657 21.6537 5.95765 21.6555 5.96965C21.6572 5.98164 21.655 5.99388 21.649 6.00446Z" fill="#38A1FF"/>
</g>
<defs>
<clipPath id="clip0_13_73">
<rect width="24" height="24" fill="white" transform="translate(0.0817871 0.915405)"/>
</clipPath>
</defs>
</svg>
